<svg xmlns="http://www.w3.org/2000/svg" xmlns:xlink="http://www.w3.org/1999/xlink" width="370.109" height="325.639" viewBox="0 0 370.109 325.639">
  <defs>
    <linearGradient id="linear-gradient" y1="0.5" x2="1" y2="0.5" gradientUnits="objectBoundingBox">
      <stop offset="0" stop-color="#ff9a96"/>
      <stop offset="1" stop-color="#feb3b1"/>
    </linearGradient>
    <linearGradient id="linear-gradient-4" y1="0.5" x2="1" y2="0.5" gradientUnits="objectBoundingBox">
      <stop offset="0" stop-color="#ff9995"/>
      <stop offset="1" stop-color="#feb3b1"/>
    </linearGradient>
    <linearGradient id="linear-gradient-5" y1="0.5" x2="1" y2="0.5" gradientUnits="objectBoundingBox">
      <stop offset="0" stop-color="#ff928e"/>
      <stop offset="1" stop-color="#feb3b1"/>
    </linearGradient>
    <linearGradient id="linear-gradient-6" x1="0" y1="0.5" x2="1" y2="0.5" xlink:href="#linear-gradient-5"/>
  </defs>
  <g id="Group_535" data-name="Group 535" transform="translate(0 0.001)">
    <path id="Path_612" data-name="Path 612" d="M288.934,259.125H619.5s33.125-140.227,7.3-181.11C585.226,12.074,337.6-24.847,288.944,20.389,240.283,65.6,288.934,259.125,288.934,259.125Z" transform="translate(-266.538 66.514)" fill="#e4f6f9"/>
    <g id="Group_468" data-name="Group 468" transform="translate(0 -0.001)">
      <g id="Group_440" data-name="Group 440" transform="translate(0 11.294)">
        <g id="Group_435" data-name="Group 435" transform="translate(298.644 102.79)">
          <path id="Path_613" data-name="Path 613" d="M305.937,7.224H297.1a.909.909,0,0,1-.908-.908h0a.9.9,0,0,1,.908-.9h8.841a.916.916,0,0,1,.918.9h0A.925.925,0,0,1,305.937,7.224Z" transform="translate(-296.188 -0.983)" fill="#90e0ef"/>
          <path id="Path_614" data-name="Path 614" d="M298.422,5.907v8.831a.9.9,0,0,1-.9.9h0a.894.894,0,0,1-.907-.9V5.907a.9.9,0,0,1,.907-.918h0A.909.909,0,0,1,298.422,5.907Z" transform="translate(-292.191 -4.989)" fill="#90e0ef"/>
        </g>
        <g id="Group_436" data-name="Group 436" transform="translate(349.203 264.465)">
          <path id="Path_615" data-name="Path 615" d="M310.838,22.9h-8.83a.905.905,0,0,1-.918-.908h0a.9.9,0,0,1,.918-.9h8.83a.885.885,0,0,1,.9.9h0A.894.894,0,0,1,310.838,22.9Z" transform="translate(-301.089 -16.655)" fill="#90e0ef"/>
          <path id="Path_616" data-name="Path 616" d="M303.322,21.569V30.42a.9.9,0,0,1-.9.9h0a.9.9,0,0,1-.908-.9V21.569a.916.916,0,0,1,.908-.908h0A.914.914,0,0,1,303.322,21.569Z" transform="translate(-297.102 -20.661)" fill="#90e0ef"/>
        </g>
        <g id="Group_437" data-name="Group 437" transform="translate(138.299)">
          <path id="Path_617" data-name="Path 617" d="M290.383-2.749h-8.851a.9.9,0,0,1-.887-.9h0a.9.9,0,0,1,.887-.9h8.851a.894.894,0,0,1,.908.9h0A.894.894,0,0,1,290.383-2.749Z" transform="translate(-280.645 8.99)" fill="#90e0ef"/>
          <path id="Path_618" data-name="Path 618" d="M282.9-4.057V4.774a.894.894,0,0,1-.9.908h0a.92.92,0,0,1-.929-.908V-4.057A.936.936,0,0,1,282-4.975h0A.909.909,0,0,1,282.9-4.057Z" transform="translate(-276.667 4.975)" fill="#90e0ef"/>
        </g>
        <g id="Group_438" data-name="Group 438" transform="translate(0 238.21)">
          <path id="Path_619" data-name="Path 619" d="M276.988,20.359h-8.851a.9.9,0,0,1-.9-.9h0a.9.9,0,0,1,.9-.918h8.851a.892.892,0,0,1,.877.918h0A.887.887,0,0,1,276.988,20.359Z" transform="translate(-267.239 -14.138)" fill="#90e0ef"/>
          <path id="Path_620" data-name="Path 620" d="M269.482,19.014v8.851a.918.918,0,0,1-.918.908h0a.914.914,0,0,1-.9-.908V19.014a.9.9,0,0,1,.9-.9h0A.909.909,0,0,1,269.482,19.014Z" transform="translate(-263.252 -18.116)" fill="#90e0ef"/>
        </g>
        <g id="Group_439" data-name="Group 439" transform="translate(179.935 199.329)">
          <path id="Path_621" data-name="Path 621" d="M294.44,16.58h-8.851a.923.923,0,0,1-.908-.908h0a.914.914,0,0,1,.908-.9h8.851a.887.887,0,0,1,.877.9h0A.9.9,0,0,1,294.44,16.58Z" transform="translate(-284.681 -10.36)" fill="#90e0ef"/>
          <path id="Path_622" data-name="Path 622" d="M286.925,15.245v8.831a.932.932,0,0,1-.908.918h0a.918.918,0,0,1-.908-.918V15.245a.9.9,0,0,1,.908-.9h0A.914.914,0,0,1,286.925,15.245Z" transform="translate(-280.693 -14.347)" fill="#90e0ef"/>
        </g>
        <path id="Path_623" data-name="Path 623" d="M314.084,9.272H299.672a.909.909,0,0,1-.907-.908h0a.918.918,0,0,1,.907-.918h14.412a.916.916,0,0,1,.9.918h0A.907.907,0,0,1,314.084,9.272Z" transform="translate(26.464 120.691)" fill="#90e0ef"/>
        <path id="Path_624" data-name="Path 624" d="M324.569,8.782a.9.9,0,0,1-.9.9H300.305a.9.9,0,0,1,0-1.805h23.367A.907.907,0,0,1,324.569,8.782Z" transform="translate(32.454 124.678)" fill="#90e0ef"/>
        <path id="Path_625" data-name="Path 625" d="M293,22.5a.909.909,0,0,1-.908.908H268.751a.9.9,0,1,1,0-1.805H292.1A.907.907,0,0,1,293,22.5Z" transform="translate(-261.612 252.617)" fill="#90e0ef"/>
        <path id="Path_626" data-name="Path 626" d="M291.265.557H276.853a.892.892,0,0,1-.887-.908h0a.889.889,0,0,1,.887-.9h14.412a.9.9,0,0,1,.887.9h0A.9.9,0,0,1,291.265.557Z" transform="translate(-185.937 39.696)" fill="#90e0ef"/>
        <path id="Path_627" data-name="Path 627" d="M302.283-.737a.9.9,0,0,1-.918.908h-22.5a.918.918,0,0,1-.918-.908.907.907,0,0,1,.918-.887h22.5A.888.888,0,0,1,302.283-.737Z" transform="translate(-167.481 36.193)" fill="#90e0ef"/>
        <path id="Path_628" data-name="Path 628" d="M301.8.077a.914.914,0,0,1-.928.908H277.524a.918.918,0,0,1-.918-.908.9.9,0,0,1,.918-.9H300.87A.9.9,0,0,1,301.8.077Z" transform="translate(-179.974 43.674)" fill="#90e0ef"/>
        <path id="Path_629" data-name="Path 629" d="M303.251-2.5H288.86a.921.921,0,0,1-.939-.9h0a.916.916,0,0,1,.939-.908h14.391a.9.9,0,0,1,.9.908h0A.9.9,0,0,1,303.251-2.5Z" transform="translate(-74.561 11.245)" fill="#90e0ef"/>
        <path id="Path_630" data-name="Path 630" d="M284.768,23.892h-14.4a.9.9,0,0,1-.918-.908h0a.909.909,0,0,1,.918-.9h14.4a.912.912,0,0,1,.9.9h0A.907.907,0,0,1,284.768,23.892Z" transform="translate(-246.65 257.089)" fill="#90e0ef"/>
        <path id="Path_631" data-name="Path 631" d="M310.946-3.839a.883.883,0,0,1-.9.887H286.693a.892.892,0,0,1-.908-.887.909.909,0,0,1,.908-.908h23.356A.9.9,0,0,1,310.946-3.839Z" transform="translate(-94.461 7.099)" fill="#90e0ef"/>
        <path id="Path_632" data-name="Path 632" d="M324.521-3a.923.923,0,0,1-.908.908h-38.4A.916.916,0,0,1,284.309-3a.909.909,0,0,1,.908-.908h38.4A.916.916,0,0,1,324.521-3Z" transform="translate(-108.211 14.915)" fill="#90e0ef"/>
      </g>
      <g id="Group_467" data-name="Group 467" transform="translate(8.656 0)">
        <g id="Group_448" data-name="Group 448" transform="translate(20.744 68.052)">
          <rect id="Rectangle_123" data-name="Rectangle 123" width="156.869" height="110.833" transform="translate(12.452 12.2)" fill="#0096c7" opacity="0.3"/>
          <g id="Group_447" data-name="Group 447" transform="translate(0 0)">
            <rect id="Rectangle_124" data-name="Rectangle 124" width="156.868" height="110.848" fill="#48cae4"/>
            <rect id="Rectangle_125" data-name="Rectangle 125" width="156.868" height="11.535" fill="#03045e"/>
            <g id="Group_446" data-name="Group 446" transform="translate(12.958 22.026)">
              <rect id="Rectangle_126" data-name="Rectangle 126" width="47.622" height="2.025" transform="translate(0.612 35.926)" fill="#03045e"/>
              <rect id="Rectangle_127" data-name="Rectangle 127" width="43.129" height="2.03" transform="translate(0.612 39.82)" fill="#03045e"/>
              <rect id="Rectangle_128" data-name="Rectangle 128" width="27.302" height="2.03" transform="translate(0.612 43.704)" fill="#03045e"/>
              <rect id="Rectangle_129" data-name="Rectangle 129" width="44.609" height="2.02" transform="translate(0.612 47.592)" fill="#03045e"/>
              <rect id="Rectangle_130" data-name="Rectangle 130" width="47.622" height="2.03" transform="translate(0.612 51.471)" fill="#03045e"/>
              <rect id="Rectangle_131" data-name="Rectangle 131" width="58.885" height="2.015" transform="translate(63.668 0.631)" fill="#03045e"/>
              <rect id="Rectangle_132" data-name="Rectangle 132" width="66.683" height="2.015" transform="translate(63.668 4.514)" fill="#03045e"/>
              <rect id="Rectangle_133" data-name="Rectangle 133" width="64.658" height="2.025" transform="translate(63.668 8.393)" fill="#03045e"/>
              <rect id="Rectangle_134" data-name="Rectangle 134" width="62.481" height="2.02" transform="translate(63.668 12.277)" fill="#03045e"/>
              <rect id="Rectangle_135" data-name="Rectangle 135" width="66.683" height="2.02" transform="translate(63.668 16.17)" fill="#03045e"/>
              <rect id="Rectangle_136" data-name="Rectangle 136" width="34.394" height="2.161" transform="translate(0.612 59.259)" fill="#03045e"/>
              <rect id="Rectangle_137" data-name="Rectangle 137" width="47.622" height="2.02" transform="translate(0.612 63.132)" fill="#03045e"/>
              <rect id="Rectangle_138" data-name="Rectangle 138" width="26.818" height="2.02" transform="translate(0.612 67.021)" fill="#03045e"/>
              <rect id="Rectangle_139" data-name="Rectangle 139" width="47.622" height="2.015" transform="translate(0.612 70.905)" fill="#03045e"/>
              <rect id="Rectangle_140" data-name="Rectangle 140" width="42.071" height="2.045" transform="translate(0.612 74.778)" fill="#03045e"/>
              <rect id="Rectangle_141" data-name="Rectangle 141" width="66.683" height="2.171" transform="translate(63.668 24.275)" fill="#03045e"/>
              <rect id="Rectangle_142" data-name="Rectangle 142" width="51.823" height="2.161" transform="translate(63.668 28.164)" fill="#03045e"/>
              <rect id="Rectangle_143" data-name="Rectangle 143" width="59.369" height="2.03" transform="translate(63.668 32.043)" fill="#03045e"/>
              <rect id="Rectangle_144" data-name="Rectangle 144" width="44.066" height="2.025" transform="translate(63.668 35.926)" fill="#03045e"/>
              <rect id="Rectangle_145" data-name="Rectangle 145" width="58.935" height="2.03" transform="translate(63.668 39.82)" fill="#03045e"/>
              <g id="Group_442" data-name="Group 442" transform="translate(63.692 45.938)">
                <path id="Path_633" data-name="Path 633" d="M308.478,38.074H277.519V7.115h30.959Zm-29.711-1.248h28.452V8.353H278.767Z" transform="translate(-277.519 -7.115)" fill="#03045e"/>
                <g id="Group_441" data-name="Group 441" transform="translate(0.186 0.174)">
                  <rect id="Rectangle_146" data-name="Rectangle 146" width="1.249" height="42.014" transform="translate(0 0.886) rotate(-45)" fill="#03045e"/>
                  <path id="Path_634" data-name="Path 634" d="M278.423,37.728l-.886-.882,29.71-29.714.877.886Z" transform="translate(-277.537 -7.132)" fill="#03045e"/>
                </g>
              </g>
              <g id="Group_444" data-name="Group 444" transform="translate(100.016 45.938)">
                <path id="Path_635" data-name="Path 635" d="M311.989,38.074H281.04V7.115h30.949ZM282.3,36.826h28.462V8.353H282.3Z" transform="translate(-281.04 -7.115)" fill="#03045e"/>
                <g id="Group_443" data-name="Group 443" transform="translate(0.181 0.172)">
                  <rect id="Rectangle_147" data-name="Rectangle 147" width="1.256" height="42.021" transform="matrix(0.707, -0.707, 0.707, 0.707, 0, 0.888)" fill="#03045e"/>
                  <path id="Path_636" data-name="Path 636" d="M281.945,37.728l-.887-.882,29.71-29.714.9.886Z" transform="translate(-281.058 -7.13)" fill="#03045e"/>
                </g>
              </g>
              <g id="Group_445" data-name="Group 445">
                <path id="Path_637" data-name="Path 637" d="M320.2,33.621H271.345V2.662H320.2Zm-47.64-1.248h46.382V3.9H272.562Z" transform="translate(-271.345 -2.662)" fill="#03045e"/>
                <path id="Path_638" data-name="Path 638" d="M319,33.453,271.372,3.728l.664-1.058,47.612,29.714Z" transform="translate(-271.092 -2.584)" fill="#03045e"/>
                <path id="Path_639" data-name="Path 639" d="M272.036,33.453l-.664-1.068L319,2.67l.645,1.058Z" transform="translate(-271.092 -2.584)" fill="#03045e"/>
              </g>
            </g>
          </g>
        </g>
        <g id="Group_454" data-name="Group 454" transform="translate(0 19.035)">
          <g id="Group_449" data-name="Group 449" transform="translate(6.276 2.942)">
            <rect id="Rectangle_148" data-name="Rectangle 148" width="61.424" height="39.194" transform="translate(6.911 6.881)" fill="#caf0f8" opacity="0.2"/>
            <rect id="Rectangle_149" data-name="Rectangle 149" width="61.444" height="39.194" fill="#ade8f4"/>
            <rect id="Rectangle_150" data-name="Rectangle 150" width="61.444" height="7.415" fill="#03045e"/>
          </g>
          <g id="Group_452" data-name="Group 452">
            <rect id="Rectangle_151" data-name="Rectangle 151" width="11.123" height="11.092" transform="translate(2.922 2.942)" fill="#415487" opacity="0.5" style="mix-blend-mode: multiply;isolation: isolate"/>
            <g id="Group_451" data-name="Group 451">
              <rect id="Rectangle_152" data-name="Rectangle 152" width="11.062" height="11.097" fill="#48cae4"/>
              <g id="Group_450" data-name="Group 450" transform="translate(2.055 2.065)">
                <path id="Path_640" data-name="Path 640" d="M268.913,2.947l-.636-.63,6.358-6.342.6.63Z" transform="translate(-268.277 4.024)" fill="#415487"/>
                <path id="Path_641" data-name="Path 641" d="M274.635,2.947l-6.358-6.342.636-.63,6.326,6.342Z" transform="translate(-268.277 4.024)" fill="#415487"/>
              </g>
            </g>
          </g>
          <g id="Group_453" data-name="Group 453" transform="translate(18.403 17.781)">
            <path id="Path_642" data-name="Path 642" d="M282.458,13.86a10.3,10.3,0,0,1-4.384.8c-4.684,0-8.212-2.971-8.212-8.418,0-5.2,3.528-8.748,8.676-8.748a8.844,8.844,0,0,1,3.941.753L281.983,0a7.943,7.943,0,0,0-3.363-.681c-3.9,0-6.5,2.5-6.5,6.86,0,4.065,2.352,6.685,6.406,6.685a8.626,8.626,0,0,0,3.507-.691Z" transform="translate(-269.862 2.501)" fill="#0077b6"/>
            <path id="Path_643" data-name="Path 643" d="M271.788,11.8a7.64,7.64,0,0,0,3.848,1.083c2.218,0,3.487-1.155,3.487-2.847,0-1.558-.887-2.424-3.115-3.291-2.734-.97-4.395-2.373-4.395-4.725,0-2.579,2.156-4.518,5.365-4.518a7.5,7.5,0,0,1,3.693.825L280.062.078a6.485,6.485,0,0,0-3.146-.794c-2.269,0-3.136,1.362-3.136,2.5,0,1.547,1,2.311,3.311,3.219,2.816,1.083,4.24,2.424,4.24,4.88,0,2.548-1.9,4.787-5.829,4.787a8.443,8.443,0,0,1-4.24-1.073Z" transform="translate(-256.819 2.501)" fill="#0077b6"/>
            <path id="Path_644" data-name="Path 644" d="M273,11.8a7.6,7.6,0,0,0,3.837,1.083c2.2,0,3.476-1.155,3.476-2.847,0-1.558-.877-2.424-3.125-3.291-2.713-.97-4.385-2.373-4.385-4.725,0-2.579,2.167-4.518,5.375-4.518a7.379,7.379,0,0,1,3.673.825l-.6,1.754a6.38,6.38,0,0,0-3.146-.794c-2.249,0-3.136,1.362-3.136,2.5,0,1.547,1,2.311,3.3,3.219,2.816,1.083,4.261,2.424,4.261,4.88,0,2.548-1.919,4.787-5.828,4.787a8.566,8.566,0,0,1-4.271-1.073Z" transform="translate(-245.873 2.501)" fill="#0077b6"/>
          </g>
        </g>
        <g id="Group_460" data-name="Group 460" transform="translate(227.823)">
          <g id="Group_455" data-name="Group 455" transform="translate(6.297 2.937)">
            <rect id="Rectangle_153" data-name="Rectangle 153" width="61.433" height="39.194" transform="translate(6.881 6.881)" fill="#caf0f8" opacity="0.2"/>
            <rect id="Rectangle_154" data-name="Rectangle 154" width="61.443" height="39.199" fill="#ade8f4"/>
            <rect id="Rectangle_155" data-name="Rectangle 155" width="61.443" height="7.43" fill="#03045e"/>
          </g>
          <g id="Group_458" data-name="Group 458">
            <rect id="Rectangle_156" data-name="Rectangle 156" width="11.112" height="11.117" transform="translate(2.932 2.937)" fill="#415487" opacity="0.5" style="mix-blend-mode: multiply;isolation: isolate"/>
            <g id="Group_457" data-name="Group 457">
              <rect id="Rectangle_157" data-name="Rectangle 157" width="11.082" height="11.097" fill="#48cae4"/>
              <g id="Group_456" data-name="Group 456" transform="translate(2.076 2.06)">
                <path id="Path_645" data-name="Path 645" d="M290.978,1.1l-.615-.619L296.7-5.87l.645.635Z" transform="translate(-290.363 5.87)" fill="#415487"/>
                <path id="Path_646" data-name="Path 646" d="M296.7,1.1l-6.336-6.337.615-.635L297.344.482Z" transform="translate(-290.363 5.87)" fill="#415487"/>
              </g>
            </g>
          </g>
          <g id="Group_459" data-name="Group 459" transform="translate(15.855 17.804)">
            <path id="Path_647" data-name="Path 647" d="M304.326,12a10.705,10.705,0,0,1-4.384.794c-4.694,0-8.242-2.95-8.242-8.408a8.29,8.29,0,0,1,8.707-8.727,8.9,8.9,0,0,1,3.941.732l-.516,1.754a7.517,7.517,0,0,0-3.353-.691c-3.9,0-6.489,2.486-6.489,6.86,0,4.075,2.331,6.675,6.386,6.675a8.346,8.346,0,0,0,3.487-.691Z" transform="translate(-291.699 4.344)" fill="#0077b6"/>
            <path id="Path_648" data-name="Path 648" d="M300.264-3.98V1.828h5.56V3.314h-5.56V9.152H298.7V3.314h-5.6V1.828h5.6V-3.98Z" transform="translate(-278.703 7.735)" fill="#0077b6"/>
            <path id="Path_649" data-name="Path 649" d="M301.668-3.98V1.828h5.581V3.314h-5.581V9.152h-1.579V3.314h-5.57V1.828h5.57V-3.98Z" transform="translate(-265.427 7.735)" fill="#0077b6"/>
          </g>
        </g>
        <g id="Group_466" data-name="Group 466" transform="translate(266.71 47.178)">
          <g id="Group_461" data-name="Group 461" transform="translate(7.506 3.511)">
            <rect id="Rectangle_158" data-name="Rectangle 158" width="73.342" height="46.79" transform="translate(8.23 8.221)" fill="#caf0f8" opacity="0.2"/>
            <rect id="Rectangle_159" data-name="Rectangle 159" width="73.362" height="46.79" fill="#ade8f4"/>
            <rect id="Rectangle_160" data-name="Rectangle 160" width="73.362" height="8.86" fill="#03045e"/>
          </g>
          <g id="Group_464" data-name="Group 464" transform="translate(0 0)">
            <rect id="Rectangle_161" data-name="Rectangle 161" width="13.268" height="13.263" transform="translate(3.517 3.511)" fill="#415487" opacity="0.5" style="mix-blend-mode: multiply;isolation: isolate"/>
            <g id="Group_463" data-name="Group 463">
              <rect id="Rectangle_162" data-name="Rectangle 162" width="13.269" height="13.268" fill="#48cae4"/>
              <g id="Group_462" data-name="Group 462" transform="translate(2.479 2.478)">
                <path id="Path_650" data-name="Path 650" d="M294.907,7.065l-.736-.746,7.555-7.576.766.74Z" transform="translate(-294.172 1.256)" fill="#415487"/>
                <path id="Path_651" data-name="Path 651" d="M301.727,7.065,294.172-.516l.736-.74,7.585,7.576Z" transform="translate(-294.172 1.256)" fill="#415487"/>
              </g>
            </g>
          </g>
          <g id="Group_465" data-name="Group 465" transform="translate(21.795 15.855)">
            <path id="Path_652" data-name="Path 652" d="M307.224,20.807l-10.739-9.1a1.154,1.154,0,0,1,0-1.816l10.739-9.1A1.037,1.037,0,0,1,308.7.917h0a1.07,1.07,0,0,1-.1,1.5l-8.841,7.479a1.154,1.154,0,0,0,0,1.816l8.841,7.479a1.07,1.07,0,0,1,.1,1.5h0A1.047,1.047,0,0,1,307.224,20.807Z" transform="translate(-296.044 4.64)" fill="#0077b6"/>
            <path id="Path_653" data-name="Path 653" d="M299.393,20.683h0a1.045,1.045,0,0,1,.124-1.5l8.851-7.479a1.181,1.181,0,0,0,0-1.816l-8.851-7.479a1.045,1.045,0,0,1-.124-1.5h0a1.05,1.05,0,0,1,1.485-.124l10.75,9.1a1.21,1.21,0,0,1,0,1.816l-10.75,9.1A1.059,1.059,0,0,1,299.393,20.683Z" transform="translate(-267.261 4.64)" fill="#0077b6"/>
            <path id="Path_654" data-name="Path 654" d="M298.188,30.233h0a1.054,1.054,0,0,1-.588-1.372L308.845.708a1.08,1.08,0,0,1,1.4-.588h0a1.067,1.067,0,0,1,.568,1.362L299.57,29.655A1.066,1.066,0,0,1,298.188,30.233Z" transform="translate(-282.221 -0.04)" fill="#0077b6"/>
          </g>
        </g>
      </g>
    </g>
    <path id="Path_655" data-name="Path 655" d="M315.594,15.85c9.77-12.575,81.932-8.614,98.118,8.078,16.165,16.692-25.11,86.088-24.532,145.994.093,9.852-83.706,8.17-91.649-.99C285.048,154.5,283.212,57.62,315.594,15.85Z" transform="translate(-62.931 141.367)" fill="#00b4d8"/>
    <g id="Group_477" data-name="Group 477" transform="translate(82.347 169.185)">
      <g id="Group_471" data-name="Group 471" transform="translate(0 12.216)">
        <path id="Path_656" data-name="Path 656" d="M333.38,36.081c.278,8.377-53.562,10.966-57.286,4.57-3.765-6.406,5.426-15.206,12.813-18.074C301.1,17.831,333.009,24.671,333.38,36.081Z" transform="translate(-275.221 77.341)" fill="#0077b6"/>
        <g id="Group_469" data-name="Group 469" transform="translate(12.06 31.113)">
          <path id="Path_657" data-name="Path 657" d="M298.865,22.126c-3.136-.825-11.461-1.981-13.318-1.671-3.508.588-10.285,5.23-9,7.273,1.269,2.074,7.614-1.341,9.666-1.228s11.823,1.774,11.823,1.774Z" transform="translate(-276.39 40.18)" fill="#c0d8ff"/>
          <path id="Path_658" data-name="Path 658" d="M337.966,62.8c4.281-1.032,16.217-31.237,24.934-42.1,8.666-10.853,25.45-6.509,25.863,6.262.712,22.18-24.841,57.368-29.834,60.494-7.221,4.477-63.053,12.338-68.19,11.523-5.158-.8-14.8-13.669-9.037-17.991C287.448,76.671,331.457,64.395,337.966,62.8Z" transform="translate(-243.495 -14.53)" fill="#c0d8ff"/>
          <path id="Path_659" data-name="Path 659" d="M316.378,23.389c-4.5,1.32-20.787-3.765-24.924-2.816-4.157.97-14.205,5.674-14.525,8.232s12.8-1.124,14.958-1,14.453,5.973,15.1,9.419c.619,3.435-9.656,7.655-11.286,10.976-1.609,3.3,2.961,3.363,5.89,2.352,2.951-1.011,10.162-4.921,12.091-4.993,1.95-.062,9.223-1.516,9.223-1.516Z" transform="translate(-271.434 40.65)" fill="#c0d8ff"/>
        </g>
        <g id="Group_470" data-name="Group 470" transform="translate(12.06 31.113)" opacity="0.5">
          <path id="Path_660" data-name="Path 660" d="M298.865,22.126c-3.136-.825-11.461-1.981-13.318-1.671-3.508.588-10.285,5.23-9,7.273,1.269,2.074,7.614-1.341,9.666-1.228s11.823,1.774,11.823,1.774Z" transform="translate(-276.39 40.18)" fill="#76a1e5"/>
          <path id="Path_661" data-name="Path 661" d="M337.966,62.8c4.281-1.032,16.217-31.237,24.934-42.1,8.666-10.853,25.45-6.509,25.863,6.262.712,22.18-24.841,57.368-29.834,60.494-7.221,4.477-63.053,12.338-68.19,11.523-5.158-.8-14.8-13.669-9.037-17.991C287.448,76.671,331.457,64.395,337.966,62.8Z" transform="translate(-243.495 -14.53)" fill="url(#linear-gradient)"/>
          <path id="Path_662" data-name="Path 662" d="M316.378,23.389c-4.5,1.32-20.787-3.765-24.924-2.816-4.157.97-14.205,5.674-14.525,8.232s12.8-1.124,14.958-1,14.453,5.973,15.1,9.419c.619,3.435-9.656,7.655-11.286,10.976-1.609,3.3,2.961,3.363,5.89,2.352,2.951-1.011,10.162-4.921,12.091-4.993,1.95-.062,9.223-1.516,9.223-1.516Z" transform="translate(-271.434 40.65)" fill="url(#linear-gradient)"/>
        </g>
        <path id="Path_663" data-name="Path 663" d="M321.551,13.058C310.864,17.4,301.6,30.781,296.493,40.468c-5.086,9.708-10.615,24.026-9.934,25.532.681,1.537,14.928,14.484,38.768,14.587,4.136.021,13.555-31.691,14.6-42.451C340.987,27.377,340.038,5.537,321.551,13.058Z" transform="translate(-170.134 -11.514)" fill="#ffa480"/>
        <path id="Path_664" data-name="Path 664" d="M321.551,13.058C310.864,17.4,301.6,30.781,296.493,40.468c-5.086,9.708-10.615,24.026-9.934,25.532.681,1.537,14.928,14.484,38.768,14.587,4.136.021,13.555-31.691,14.6-42.451C340.987,27.377,340.038,5.537,321.551,13.058Z" transform="translate(-170.134 -11.514)" fill="#023e8a"/>
        <path id="Path_665" data-name="Path 665" d="M286.775,21.167c10.615,12.513,29.174,17.2,44.886,16.423,3.425-.165,3.26-5.5-.207-5.313-14.391.691-31.258-3.5-41.017-15.01-2.208-2.61-5.87,1.31-3.662,3.9Z" transform="translate(-173.941 34.072)" fill="#03045e"/>
      </g>
      <path id="Path_666" data-name="Path 666" d="M344.325,10.634c-8.212,0-32.218,10.182-39.46,27.606s-16.671,107.02-17.445,109.289c-.743,2.3,37.241,10.027,61.691,10.027,24.429,0,50.859-5.653,52.9-8.47,2.022-2.8-11.492-86.573-11.946-93.33C389.6,49.02,383.475,10.634,344.325,10.634Z" transform="translate(-161.67 -7.5)" fill="#023e8a"/>
      <path id="Path_667" data-name="Path 667" d="M302.2,14.3c-.371-1.362-2.8-2.156-4.539,0-1.723,2.146-11.709,19.807-3.941,24.4s22.056-1.733,30.351-12.864c6.489-8.758,6.736-11.781,6.922-13.72.155-1.95-4-2.672-5.24-.237C324.778,13.742,302.2,14.3,302.2,14.3Z" transform="translate(-130.146 -10.33)" fill="#03045e"/>
      <g id="Group_472" data-name="Group 472" transform="translate(129.34 44.853)">
        <path id="Path_668" data-name="Path 668" d="M296.889,15.5c-2.693,9.388-4.292,19.157-5.849,28.782-1.455,9.1-3.157,18.538-3.281,27.761,0,.609.97.774,1.093.134,1.682-9.326,2.352-18.879,3.869-28.256,1.547-9.429,3.714-18.683,5.406-28.07C298.261,15.051,297.085,14.7,296.889,15.5Z" transform="translate(-287.759 -11.224)" fill="#0096c7"/>
        <path id="Path_669" data-name="Path 669" d="M289.4,14.688a.6.6,0,0,0-.681.671.8.8,0,1,0,.681-.671Z" transform="translate(-278.88 -14.678)" fill="#0096c7"/>
      </g>
      <g id="Group_476" data-name="Group 476" transform="translate(54.741 5.878)">
        <g id="Group_473" data-name="Group 473" transform="translate(0 28.01)">
          <path id="Path_670" data-name="Path 670" d="M356.023,78.853c5.148-1.083,19.611-45.69,30.433-58.338,10.791-12.637,30.68-6.8,30.68,8.47,0,26.554-30.938,76.618-37.025,80.136-8.8,5.065-76.856,3.312-82.973,2.166-6.107-1.186-17.136-16.929-10.11-21.87C294.1,84.475,348.162,80.482,356.023,78.853Z" transform="translate(-241.046 -13.615)" fill="url(#linear-gradient)"/>
          <path id="Path_671" data-name="Path 671" d="M332.441,20.756c-11.565.794-20.962,1.032-27.431,3.033-6.448,2.012-23.748,11.688-24.429,13.978s5.107.536,5.107.536-5.385,4.168-4.292,6.252c1.063,2.074,13.3-3.435,13.3-3.435s-7.252,5.509-5.664,7.8c1.64,2.29,9.563-1.743,9.563-1.743s-2.878,2.4-1.238,4.034,15.639-6.448,20.87-6.654,9.707,2.352,17.713,0Z" transform="translate(-280.528 52.91)" fill="url(#linear-gradient-4)"/>
        </g>
        <g id="Group_475" data-name="Group 475" transform="translate(122.749)">
          <path id="Path_672" data-name="Path 672" d="M311.416,10.9c6.479,1.816,30.485,12.121,36.148,26.43s-5.416,51.993-7,53.015c-1.61,1.032-29.2.32-47.279-14.412C289.4,72.787,311.416,10.9,311.416,10.9Z" transform="translate(-288.745 -10.9)" fill="#023e8a"/>
          <g id="Group_474" data-name="Group 474" transform="translate(3.352 42.861)">
            <path id="Path_673" data-name="Path 673" d="M296.534,15.681a106.624,106.624,0,0,0-3.776,18.827c-.1.619.97.753,1.083.144,1.207-6.241,2.28-12.483,3.693-18.7A.518.518,0,0,0,296.534,15.681Z" transform="translate(-292.751 -12.738)" fill="#0096c7"/>
            <path id="Path_674" data-name="Path 674" d="M294.516,15.274a.749.749,0,0,0-1.176.155l-.082.134a.713.713,0,0,0,.969.97l.155-.072A.769.769,0,0,0,294.516,15.274Z" transform="translate(-289.031 -15.055)" fill="#0096c7"/>
          </g>
          <path id="Path_675" data-name="Path 675" d="M293.144,21.386C305.5,35.137,326.589,39.9,344.24,38.48c3.4-.289,3.415-5.633,0-5.344-16.362,1.32-35.828-2.744-47.341-15.526-2.29-2.569-6.055,1.228-3.755,3.776Z" transform="translate(-292.426 43.647)" fill="#03045e"/>
        </g>
      </g>
    </g>
    <path id="Path_676" data-name="Path 676" d="M342.319,52.87a17.03,17.03,0,0,0-.01,1.908l.01.2c.371,6.561.773,19.838,0,21.808-5.519,13.834-21.943,23.707-27.307,21.076-5.4-2.631,2.868-14.112,3.776-17.517a11.188,11.188,0,0,0,.268-1.6,75.656,75.656,0,0,0-.268-11.286s-12.235,6.963-22.737,0c-6.293-4.168-7.8-20.354-6.767-34.415.062-.856.113-1.692.175-2.507.258-2.538.6-4.983.99-7.221.9-5.272,2.177-9.522,3.6-11.6,11.317-16.165,44.566-5.189,48.641,5.251,2.146,5.447,1.919,13.38,1.218,20.746C343.361,43.657,342.495,49.238,342.319,52.87Z" transform="translate(-64.638 95.402)" fill="url(#linear-gradient-5)"/>
    <path id="Path_677" data-name="Path 677" d="M344.33,52.207c-1.651,4.034-5.416.289-6.314-10.718-.093-1.094-10.388,1.7-13.411-10.677,0,0-9.945,7.747-16.423-4.116,0,0-5.54,6.922-12.4,5.56-8.841-1.743-10.687-18.765-1.64-26.378,9.553-8.047,18.889.99,18.889.99s8.511-5.272,18.363-2.218c10.285,3.2,12.555,13.731,12.555,13.731a22.743,22.743,0,0,1,13.772,8.49c5.55,7.386-5.385,35.034-7.84,35.126C347.4,62.09,344.33,52.207,344.33,52.207Z" transform="translate(-72.054 86.286)" fill="#2d3244"/>
    <path id="Path_678" data-name="Path 678" d="M292.151,8.771a1.745,1.745,0,0,1-1.361,2.012c-.815.052-1.527-.774-1.609-1.836a1.737,1.737,0,0,1,1.372-1.991C291.367,6.893,292.068,7.708,292.151,8.771Z" transform="translate(-62.873 127.38)" fill="#2d3244"/>
    <path id="Path_679" data-name="Path 679" d="M293.892,8.862a1.7,1.7,0,0,1-1.351,2.012c-.826.041-1.506-.763-1.589-1.826-.031-1.063.557-1.97,1.393-2.012C293.129,6.984,293.851,7.81,293.892,8.862Z" transform="translate(-46.335 128.145)" fill="#2d3244"/>
    <path id="Path_680" data-name="Path 680" d="M296.482,7.7c.072,1.011-1.579,1.95-3.662,2.074-2.1.113-3.858-.6-3.89-1.63-.051-1.011,1.548-1.939,3.662-2.063C294.687,5.97,296.42,6.682,296.482,7.7Z" transform="translate(-65.171 119.184)" fill="#2d3244"/>
    <path id="Path_681" data-name="Path 681" d="M298.193,9.127c-.279.98-2.1,1.362-4.127.846-2.043-.516-3.466-1.743-3.208-2.723s2.074-1.372,4.116-.856C297,6.909,298.42,8.127,298.193,9.127Z" transform="translate(-47.479 120.039)" fill="#2d3244"/>
    <path id="Path_682" data-name="Path 682" d="M293.563,20.9c-.526.3-1.971,1.063-2.558.423-.753-.846.97-12.018,1.3-14.731a.228.228,0,0,0-.444-.1c-1.217,4.312-3.353,15.866-1.238,16.145A4.773,4.773,0,0,0,294,21.519.379.379,0,0,0,293.563,20.9Z" transform="translate(-57.735 121.462)" fill="#ce7c7c"/>
    <path id="Path_683" data-name="Path 683" d="M300.269,12.675c-1.135,1.486-3.146,1.981-5.024,2.022-1.7.031-4.013-.475-4.807-2.166a2.751,2.751,0,0,1-.176-.485.23.23,0,0,1-.031-.144,2.051,2.051,0,0,1,1.486-2.527c1.083-.258,2.063.155,3.167.083a4.105,4.105,0,0,0,2.187-.918A2.477,2.477,0,0,1,300.95,9.8l.041.206A3.1,3.1,0,0,1,300.269,12.675Z" transform="translate(-53.474 137.435)" fill="#fff"/>
    <g id="Group_479" data-name="Group 479" transform="translate(236.756 147.23)">
      <path id="Path_684" data-name="Path 684" d="M295.265,8.612a12.974,12.974,0,0,1-5.045-.062.231.231,0,0,1-.031-.144,20.911,20.911,0,0,0,5.076.134A.036.036,0,1,1,295.265,8.612Z" transform="translate(-290.189 -6.302)" fill="#76a1e5"/>
      <path id="Path_685" data-name="Path 685" d="M293.784,8.408a7.406,7.406,0,0,1-2.775,1.465.045.045,0,0,1-.031-.083A9.589,9.589,0,0,0,293.742,8.2Z" transform="translate(-283.024 -8.202)" fill="#76a1e5"/>
    </g>
    <g id="Group_482" data-name="Group 482" transform="translate(271.894 133.101)">
      <path id="Path_686" data-name="Path 686" d="M293.595,13.06c1.011-2.239,3.239-6.53,8.511-6.21,5.364.289,7.9,5.891,6.819,10.636-1.063,4.766-6.819,9.439-14.082,4.457Z" transform="translate(-293.595 -6.832)" fill="url(#linear-gradient-6)"/>
      <path id="Path_687" data-name="Path 687" d="M300.889,11.9c-1.692-.928-4.446-.227-5.88,1.31A11.541,11.541,0,0,1,298.816,7.6c.165-.144-.082-.423-.289-.309a8.3,8.3,0,0,0-4.487,7.82.167.167,0,0,0,.062.155.128.128,0,0,0,.217.041.186.186,0,0,0,.145-.144v-.031a6.5,6.5,0,0,1,6.282-2.889C300.941,12.281,301.075,12,300.889,11.9Z" transform="translate(-289.779 -2.835)" fill="#ce7c7c"/>
    </g>
    <g id="Group_487" data-name="Group 487" transform="translate(5.319 158.465)">
      <path id="Path_688" data-name="Path 688" d="M375.052,29.777H278.8v-6.81l96.25,2.78Z" transform="translate(-164.837 118.124)" fill="#03045e"/>
      <g id="Group_486" data-name="Group 486" transform="translate(0 0)">
        <path id="Path_689" data-name="Path 689" d="M417.894,120.53H295.11A12.2,12.2,0,0,1,283.1,110.348L268.7,23.455A12.138,12.138,0,0,1,280.689,9.291H403.472a12.146,12.146,0,0,1,12,10.151l14.443,86.934A12.165,12.165,0,0,1,417.894,120.53Z" transform="translate(-260.537 -9.291)" fill="#03045e"/>
        <path id="Path_690" data-name="Path 690" d="M417.137,120.53H294.364a12.137,12.137,0,0,1-11.987-10.182L267.923,23.455A12.163,12.163,0,0,1,279.931,9.291H402.725a12.143,12.143,0,0,1,11.987,10.151l14.432,86.934A12.153,12.153,0,0,1,417.137,120.53Z" transform="translate(-267.755 -9.291)" fill="#023e8a"/>
        <rect id="Rectangle_164" data-name="Rectangle 164" width="101.369" height="4.311" transform="translate(30.518 143.59)" fill="#03045e"/>
        <path id="Path_691" data-name="Path 691" d="M322.092,87.214H272.646L281.9,16.34H331.33Z" transform="translate(-222.181 56.377)" fill="#03045e"/>
        <path id="Path_692" data-name="Path 692" d="M321.443,87.214H272.008l9.249-70.874h49.425Z" transform="translate(-228.131 56.377)" fill="#0077b6"/>
        <g id="Group_485" data-name="Group 485" transform="translate(48.274 37.953)">
          <path id="Path_693" data-name="Path 693" d="M277.86,36.2h0a2.265,2.265,0,0,1-2.249-1.857L272.465,15.6a2.26,2.26,0,0,1,2.228-2.631h0a2.251,2.251,0,0,1,2.228,1.878l3.136,18.734A2.24,2.24,0,0,1,277.86,36.2Z" transform="translate(-272.434 -12.97)" fill="#0077b6"/>
          <path id="Path_694" data-name="Path 694" d="M278.57,36.2h0a2.243,2.243,0,0,1-2.228-1.857L273.215,15.6a2.233,2.233,0,0,1,2.2-2.631h0a2.27,2.27,0,0,1,2.239,1.878L280.8,33.582A2.261,2.261,0,0,1,278.57,36.2Z" transform="translate(-265.509 -12.97)" fill="#0077b6"/>
          <path id="Path_695" data-name="Path 695" d="M279.317,36.2h0a2.235,2.235,0,0,1-2.228-1.857L273.963,15.6a2.226,2.226,0,0,1,2.218-2.631h0a2.235,2.235,0,0,1,2.2,1.878l3.147,18.734A2.231,2.231,0,0,1,279.317,36.2Z" transform="translate(-258.592 -12.97)" fill="#0077b6"/>
          <path id="Path_696" data-name="Path 696" d="M280.066,36.2h0a2.235,2.235,0,0,1-2.228-1.857L274.692,15.6a2.26,2.26,0,0,1,2.228-2.631h0a2.285,2.285,0,0,1,2.228,1.878l3.136,18.734A2.254,2.254,0,0,1,280.066,36.2Z" transform="translate(-251.687 -12.97)" fill="#0077b6"/>
          <path id="Path_697" data-name="Path 697" d="M280.808,36.2h0a2.235,2.235,0,0,1-2.228-1.857L275.434,15.6a2.256,2.256,0,0,1,2.239-2.631h0a2.281,2.281,0,0,1,2.218,1.878l3.157,18.734A2.264,2.264,0,0,1,280.808,36.2Z" transform="translate(-244.774 -12.97)" fill="#0077b6"/>
          <path id="Path_698" data-name="Path 698" d="M281.567,36.2h0a2.251,2.251,0,0,1-2.228-1.857L276.171,15.6a2.278,2.278,0,0,1,2.239-2.631h0a2.252,2.252,0,0,1,2.228,1.878L283.8,33.582A2.256,2.256,0,0,1,281.567,36.2Z" transform="translate(-237.878 -12.97)" fill="#0077b6"/>
          <path id="Path_699" data-name="Path 699" d="M282.286,36.2h0a2.251,2.251,0,0,1-2.228-1.857L276.921,15.6a2.247,2.247,0,0,1,2.218-2.631h0a2.241,2.241,0,0,1,2.218,1.878L284.5,33.582A2.233,2.233,0,0,1,282.286,36.2Z" transform="translate(-230.942 -12.97)" fill="#0077b6"/>
          <path id="Path_700" data-name="Path 700" d="M283.028,36.2h0a2.3,2.3,0,0,1-2.239-1.857L277.663,15.6A2.251,2.251,0,0,1,279.9,12.97h0a2.211,2.211,0,0,1,2.2,1.878l3.157,18.734A2.25,2.25,0,0,1,283.028,36.2Z" transform="translate(-224.03 -12.97)" fill="#0077b6"/>
        </g>
      </g>
    </g>
    <rect id="Rectangle_165" data-name="Rectangle 165" width="357.078" height="12.876" transform="translate(5.312 306.366)" fill="#023e8a"/>
    <g id="Group_490" data-name="Group 490" transform="translate(236.974 266.34)">
      <rect id="Rectangle_166" data-name="Rectangle 166" width="100.804" height="19.968" transform="translate(100.804 19.968) rotate(180)" fill="#ade8f4"/>
      <rect id="Rectangle_167" data-name="Rectangle 167" width="82.126" height="19.968" transform="translate(82.126 19.968) rotate(180)" fill="#023e8a"/>
      <g id="Group_489" data-name="Group 489" transform="translate(6.644 6.025)">
        <rect id="Rectangle_168" data-name="Rectangle 168" width="49.767" height="6.755" transform="translate(64.421 7.33) rotate(180)" fill="#ade8f4"/>
        <path id="Path_701" data-name="Path 701" d="M290.854,24.293a3.967,3.967,0,1,1,3.941,3.951A3.945,3.945,0,0,1,290.854,24.293Z" transform="translate(-290.854 -20.332)" fill="#ade8f4"/>
      </g>
    </g>
    <g id="Group_492" data-name="Group 492" transform="translate(247.561 286.308)">
      <rect id="Rectangle_169" data-name="Rectangle 169" width="100.795" height="19.952" fill="#ade8f4"/>
      <rect id="Rectangle_170" data-name="Rectangle 170" width="82.096" height="19.952" transform="translate(18.698)" fill="#03045e"/>
      <g id="Group_491" data-name="Group 491" transform="translate(29.75 6.018)">
        <rect id="Rectangle_171" data-name="Rectangle 171" width="49.748" height="6.764" transform="translate(0 0.576)" fill="#ade8f4"/>
        <path id="Path_702" data-name="Path 702" d="M307.51,26.218a3.956,3.956,0,1,1-3.961-3.951A3.971,3.971,0,0,1,307.51,26.218Z" transform="translate(-243.087 -22.267)" fill="#ade8f4"/>
      </g>
    </g>
  </g>
</svg>
