<svg xmlns="http://www.w3.org/2000/svg" xmlns:xlink="http://www.w3.org/1999/xlink" width="447.956" height="349.61" viewBox="0 0 447.956 349.61">
  <defs>
    <linearGradient id="linear-gradient" x1="9.892" y1="-11.814" x2="9.892" y2="-10.814" gradientUnits="objectBoundingBox">
      <stop offset="0" stop-color="gray" stop-opacity="0.251"/>
      <stop offset="0.54" stop-color="gray" stop-opacity="0.122"/>
      <stop offset="1" stop-color="gray" stop-opacity="0.102"/>
    </linearGradient>
    <linearGradient id="linear-gradient-2" y1="0.5" x2="1" y2="0.5" gradientUnits="objectBoundingBox">
      <stop offset="0" stop-color="#ff928e"/>
      <stop offset="1" stop-color="#feb3b1"/>
    </linearGradient>
    <linearGradient id="linear-gradient-3" x1="0" y1="0.5" x2="1" y2="0.5" xlink:href="#linear-gradient-2"/>
    <linearGradient id="linear-gradient-4" x1="0" y1="0.5" x2="1" y2="0.5" xlink:href="#linear-gradient-2"/>
    <linearGradient id="linear-gradient-5" x1="0" y1="0.5" x2="1" y2="0.5" xlink:href="#linear-gradient-2"/>
    <linearGradient id="linear-gradient-6" x1="0" y1="0.5" x2="1" y2="0.5" xlink:href="#linear-gradient-2"/>
    <linearGradient id="linear-gradient-7" x1="0" y1="0.5" x2="1" y2="0.5" xlink:href="#linear-gradient-2"/>
    <linearGradient id="linear-gradient-8" x1="-0.004" y1="0.501" x2="1.007" y2="0.501" xlink:href="#linear-gradient-2"/>
    <linearGradient id="linear-gradient-9" x1="0.001" y1="0.5" x2="0.999" y2="0.5" xlink:href="#linear-gradient-2"/>
    <linearGradient id="linear-gradient-10" x1="-0.009" y1="0.501" x2="0.993" y2="0.501" xlink:href="#linear-gradient-2"/>
    <linearGradient id="linear-gradient-11" x1="0" y1="0.5" x2="1" y2="0.5" xlink:href="#linear-gradient-2"/>
  </defs>
  <g id="Group_497" data-name="Group 497" transform="translate(0 0)">
    <path id="Path_703" data-name="Path 703" d="M263.328,130.917c-28.339-.97-55.346-10.13-81.127-20.147-25.76-10-51.313-21.107-78.981-26.42-17.785-3.415-38.129-3.879-52.468,5.674-13.793,9.192-18.26,25.006-20.663,39.717-1.805,11.08-2.868,22.716,2.094,33.053,3.415,7.2,9.512,13.246,13.721,20.158,14.659,23.964,4.312,53.531-11.585,76.917-7.448,10.976-16.083,21.458-21.839,33.125-5.756,11.688-8.408,25.058-3.394,37,4.993,11.822,16.9,20.673,29.752,26.915,26.141,12.689,56.945,16.31,87,18.373,66.478,4.56,133.316,2.589,200,.609,24.676-.722,49.446-1.465,73.72-5.282,13.483-2.115,27.39-5.468,37.19-13.586,12.41-10.347,15.485-27.781,7.17-40.7-13.978-21.685-52.561-27.07-62.33-50.3-5.375-12.823.144-27.07,7.954-38.964,16.754-25.46,44.824-47.815,46.3-76.928,1.021-20.013-12.493-40.037-33.352-49.476-21.86-9.976-52.2-8.717-68.314,7.727C317.539,125.294,288.344,131.783,263.328,130.917Z" transform="translate(-0.615 -70.737)" fill="#e4f6f9"/>
    <path id="Path_704" data-name="Path 704" d="M173.186,225.992l-149.908-.735L8.384,190.3l52.67-3.839L51.865,148.2l104.18-13.519L56.287,100.022l8.8-2.106L225.513,124.11l-8.851,59.751-12.628,32.872Z" transform="translate(17.529 76.423)" fill="#00909e"/>
    <path id="Path_705" data-name="Path 705" d="M10.05,108.968s9.192-1.465,14.711,5.024c0,0-4.034,3.177-12.741-1.228Z" transform="translate(33.051 178.064)" fill="#00909e"/>
    <path id="Path_706" data-name="Path 706" d="M13.363,108.826s-5.86,7.242-2.971,15.289c0,0,4.766-1.939,5.292-11.668Z" transform="translate(28.779 178.062)" fill="#00909e"/>
    <path id="Path_707" data-name="Path 707" d="M9.445,109.782s3.683-6.747,18.414,2.713c0,0-1.96,4.518-8.47,4.147C12.88,116.3,11.168,113.351,9.445,109.782Z" transform="translate(27.415 165.243)" fill="#00909e"/>
    <path id="Path_708" data-name="Path 708" d="M16.908,107.635s-7.634-.867-8.366,16.588c0,0,4.838.99,8.274-4.5C20.261,114.2,18.838,111.06,16.908,107.635Z" transform="translate(19.003 166.904)" fill="#00909e"/>
    <path id="Path_709" data-name="Path 709" d="M8.924,112.127s4.281-11.894,19.848-3.446c0,0-3.549,10.914-18.27,7.479Z" transform="translate(22.561 148.475)" fill="#023e8a"/>
    <path id="Path_710" data-name="Path 710" d="M8.459,109.637s8.088-12.039,22.448-.9c0,0-5.034,11.265-21.22,5.168Z" transform="translate(18.229 133.2)" fill="#023e8a"/>
    <path id="Path_711" data-name="Path 711" d="M8.293,107.342s9.439-11.038,23.634,0c0,0-8.934,9.7-23.634,2.847Z" transform="translate(16.683 118.536)" fill="#023e8a"/>
    <path id="Path_712" data-name="Path 712" d="M8.149,106.123s9.573-11.554,23.191-.6c0,0-10.791,10.151-23.191,3.311Z" transform="translate(15.341 103.342)" fill="#023e8a"/>
    <path id="Path_713" data-name="Path 713" d="M8.232,107.393s10.079-14.855,22.8-4.8c0,0-10.76,12.761-22.8,7.613Z" transform="translate(16.115 87.474)" fill="#023e8a"/>
    <path id="Path_714" data-name="Path 714" d="M8.459,105.2s10.677-14.721,23.057-3.435c0,0-12.637,12.761-23.057,6.138Z" transform="translate(18.229 72.624)" fill="#023e8a"/>
    <path id="Path_715" data-name="Path 715" d="M9.307,105.474S21.944,91.63,32.952,97.139c0,0-13.174,14.7-24.2,12.008Z" transform="translate(20.94 57.114)" fill="#023e8a"/>
    <path id="Path_716" data-name="Path 716" d="M10.183,106.626s14.577-16.97,23.036-11.3c0,0-10.749,13.153-24.088,14.463Z" transform="translate(24.49 41.519)" fill="#023e8a"/>
    <path id="Path_717" data-name="Path 717" d="M11.406,103.644S24.146,89.81,33.482,93.235c0,0-10.915,14.36-23.8,14.752Z" transform="translate(29.632 27.738)" fill="#023e8a"/>
    <path id="Path_718" data-name="Path 718" d="M10.968,102.349S25.06,89.093,31.2,91.424c0,0-10.182,14.711-20.849,13.834Z" transform="translate(35.837 13.383)" fill="#023e8a"/>
    <path id="Path_719" data-name="Path 719" d="M10.956,104.066S23.1,88.241,29.711,89.479c0,0-7.355,14.1-18.755,16.186Z" transform="translate(41.492 -2.818)" fill="#023e8a"/>
    <path id="Path_720" data-name="Path 720" d="M11.968,99.877S22.707,87.745,28.484,87.766c0,0-8.449,16.227-16.98,16.052Z" transform="translate(46.597 -18.136)" fill="#023e8a"/>
    <path id="Path_721" data-name="Path 721" d="M13.083,110.506,23.461,85.231s.516,22.84-11.688,29.958Z" transform="translate(49.103 -41.753)" fill="#023e8a"/>
    <path id="Path_722" data-name="Path 722" d="M12.364,105.557s1.723-21.076.619-22.788c0,0,7.4,17.537-.681,32.135Z" transform="translate(54.032 -64.689)" fill="#023e8a"/>
    <path id="Path_723" data-name="Path 723" d="M24.87,107.459s-10.739-6.644-17.7,9.656c0,0,9.584,6.334,18.982-5.478Z" transform="translate(6.193 152.844)" fill="#023e8a"/>
    <path id="Path_724" data-name="Path 724" d="M26.117,105.427S12.923,99.392,6.527,116.4c0,0,10.182,7.036,20.787-6.664Z" transform="translate(0.23 136.71)" fill="#023e8a"/>
    <path id="Path_725" data-name="Path 725" d="M29.575,107.446s-9.45-11.049-23.634,0c0,0,8.944,9.676,23.634,2.827Z" transform="translate(-5.229 119.463)" fill="#023e8a"/>
    <path id="Path_726" data-name="Path 726" d="M29.042,106.123s-9.563-11.554-23.17-.6c0,0,10.78,10.151,23.17,3.311Z" transform="translate(-5.872 103.342)" fill="#023e8a"/>
    <path id="Path_727" data-name="Path 727" d="M27.442,110.114s-6.7-16.609-21.272-9.481c0,0,7.861,14.742,20.674,12.225Z" transform="translate(-3.095 85.177)" fill="#023e8a"/>
    <path id="Path_728" data-name="Path 728" d="M27.938,108.3s-6.675-16.9-21.478-9.068c0,0,9.068,15.484,20.808,11.668Z" transform="translate(-0.394 69.438)" fill="#023e8a"/>
    <path id="Path_729" data-name="Path 729" d="M22.395,115.016S19.764,96.467,7.5,94.827c0,0,2.61,19.539,13.246,23.531Z" transform="translate(9.276 47.645)" fill="#023e8a"/>
    <path id="Path_730" data-name="Path 730" d="M19.352,116.239S18.321,93.9,8.18,93.141c0,0,.34,16.929,10.007,26.255Z" transform="translate(15.63 31.938)" fill="#023e8a"/>
    <path id="Path_731" data-name="Path 731" d="M21.42,112.5s-3.033-18.579-12.7-20.828c0,0,1.186,17.981,11.719,25.388Z" transform="translate(20.67 18.253)" fill="#023e8a"/>
    <path id="Path_732" data-name="Path 732" d="M16.711,112.3s-.1-19.343-6.025-22.2c0,0-3.642,17.517,4.322,24.687Z" transform="translate(31.239 3.57)" fill="#023e8a"/>
    <path id="Path_733" data-name="Path 733" d="M17.5,111.343S16.682,91.4,10.544,88.606c0,0-2.094,15.763,6.035,24.057Z" transform="translate(35.395 -10.311)" fill="#023e8a"/>
    <path id="Path_734" data-name="Path 734" d="M16.892,107.157s-.031-16.207-4.395-20c0,0-4.353,17.764,2.125,23.253Z" transform="translate(42.519 -23.838)" fill="#023e8a"/>
    <path id="Path_735" data-name="Path 735" d="M17.162,111.965,12.9,84.988S7.135,107.1,17.358,116.834Z" transform="translate(44.519 -44.017)" fill="#023e8a"/>
    <path id="Path_736" data-name="Path 736" d="M21.586,103.19S10.661,85.034,10.9,83.053c0,0,1.166,18.971,14.9,28.442Z" transform="translate(40.92 -62.043)" fill="#023e8a"/>
    <path id="Path_737" data-name="Path 737" d="M25.564,109.61S15.258,83.871,10.6,81.787c0,0,14.7,7.469,15.8,27.111Z" transform="translate(38.222 -73.838)" fill="#023e8a"/>
    <path id="Path_738" data-name="Path 738" d="M12.128,136.026l-.7-.217c8.707-28.339,10.873-46.423,6.128-50.941l.485-.536C23.083,89.108,21.041,106.976,12.128,136.026Z" transform="translate(45.871 -50.128)" fill="#0096c7"/>
    <path id="Path_739" data-name="Path 739" d="M10.145,157.6l-1.073-.392c.939-2.569,1.939-5.22,2.981-7.84,9.068-22.592,16.784-43.627,21.747-59.782l.9-.444c-4.952,16.176-12.545,38.025-21.633,60.7C12.033,152.37,11.042,154.99,10.145,157.6Z" transform="translate(23.94 -5.317)" fill="#0096c7"/>
    <path id="Path_740" data-name="Path 740" d="M41.657,254.017c-.134-.144-14.226-16-24.037-43.091a160.084,160.084,0,0,1-9.512-49.373C7.438,140.467,11.853,116.9,19.436,95.54l.825.949C3.26,144.48,10,185.621,18.982,210.348c9.7,26.853,23.645,42.534,23.789,42.709Z" transform="translate(14.34 54.287)" fill="#0096c7"/>
    <path id="Path_741" data-name="Path 741" d="M116.113,107.631s-9.934,12.132-2.053,30.422l-79.27,34.4-7.6,1.578-3.5-15.309,2.342-19.343V128.81Z" transform="translate(160.125 166.929)" fill="#d5d6db"/>
    <path id="Path_742" data-name="Path 742" d="M8.384,124.921l109.711-19.988L263.478,128.1l-90.292,32.51Z" transform="translate(17.529 141.8)" fill="#00909e"/>
    <path id="Path_743" data-name="Path 743" d="M8.384,124.921l109.711-19.988L263.478,128.1l-90.292,32.51Z" transform="translate(17.529 141.8)" fill="#00afd8"/>
    <path id="Path_744" data-name="Path 744" d="M12.115,106.871s-10.254,19.456,1.547,37.417l162.718,35.25s-10.12-15.495.526-36.973Z" transform="translate(13.8 159.849)" fill="#00909e"/>
    <path id="Path_745" data-name="Path 745" d="M12.115,106.871s-10.254,19.456,1.547,37.417l162.718,35.25s-10.12-15.495.526-36.973Z" transform="translate(13.8 159.849)" fill="#0096c7"/>
    <path id="Path_746" data-name="Path 746" d="M11.21,107.523s-5.87,14.236,0,23.459" transform="translate(19.553 165.923)" opacity="0.1" style="isolation: isolate"/>
    <path id="Path_747" data-name="Path 747" d="M171.252,148.906l90.824-38.747s5.065,1.083,1.8,4.818c-3.281,3.7-90.875,37.633-90.875,37.633L8.534,113.656Z" transform="translate(18.928 190.48)" fill="#00909e"/>
    <path id="Path_748" data-name="Path 748" d="M171.252,148.906l90.824-38.747s5.065,1.083,1.8,4.818c-3.281,3.7-90.875,37.633-90.875,37.633L8.534,113.656Z" transform="translate(18.928 190.48)" fill="#0084a3"/>
    <path id="Path_749" data-name="Path 749" d="M27.094,110.709s-8.748,10.512,0,26.286" transform="translate(155.617 195.604)" opacity="0.1" style="isolation: isolate"/>
    <path id="Path_750" data-name="Path 750" d="M23.887,123.807l39.28-13.117.141.433L24.018,124.23Z" transform="translate(161.962 195.431)" opacity="0.1" style="isolation: isolate"/>
    <rect id="Rectangle_172" data-name="Rectangle 172" width="50.474" height="0.448" transform="matrix(0.935, -0.355, 0.355, 0.935, 185.821, 322.774)" opacity="0.1" style="isolation: isolate"/>
    <path id="Path_751" data-name="Path 751" d="M23.912,132.695l54.135-22.134.14.393-54.12,22.164Z" transform="translate(162.194 194.221)" opacity="0.1" style="isolation: isolate"/>
    <path id="Path_752" data-name="Path 752" d="M23.974,138.08l61.348-27.7.192.393L24.15,138.513Z" transform="translate(162.767 192.502)" opacity="0.1" style="isolation: isolate"/>
    <path id="Path_753" data-name="Path 753" d="M24.019,139.846l67.489-29.468.176.373L24.211,140.279Z" transform="translate(163.19 192.52)" opacity="0.1" style="isolation: isolate"/>
    <path id="Path_754" data-name="Path 754" d="M24.118,145.076l80.907-34.938.172.4L24.3,145.469Z" transform="translate(164.109 190.291)" opacity="0.1" style="isolation: isolate"/>
    <path id="Path_755" data-name="Path 755" d="M12.335,121.729l77.084-16.22,46.957,8.986L73.2,134.855Z" transform="translate(54.339 147.158)" fill="#fff" opacity="0.3" style="isolation: isolate"/>
    <path id="Path_756" data-name="Path 756" d="M114.656,107.18s3.992,1.589,1.64,4.054c-2.311,2.5-91.938,28.452-91.938,28.452Z" transform="translate(166.348 162.727)" fill="#00909e"/>
    <path id="Path_757" data-name="Path 757" d="M120.336,103.55s-9.935,12.09-2.032,30.422L39.044,168.356l-7.624,1.6L27.9,154.625l2.4-19.312V124.7Z" transform="translate(199.374 128.91)" fill="#d5d6db"/>
    <path id="Path_758" data-name="Path 758" d="M12.6,120.84l109.716-19.988L267.7,123.983,177.4,156.5Z" transform="translate(56.795 103.78)" fill="#034893"/>
    <path id="Path_759" data-name="Path 759" d="M16.33,102.79s-10.265,19.436,1.558,37.386l162.707,35.261s-10.089-15.495.536-36.983Z" transform="translate(53.047 121.83)" fill="#3a3768"/>
    <path id="Path_760" data-name="Path 760" d="M16.256,102.772s-10.265,19.436,1.578,37.386l162.687,35.25s-10.079-15.505.536-36.983l-51.437-11.152Z" transform="translate(52.409 121.662)" fill="#023e8a"/>
    <path id="Path_761" data-name="Path 761" d="M15.427,103.441s-5.87,14.226,0,23.438" transform="translate(58.84 127.894)" opacity="0.1" style="isolation: isolate"/>
    <path id="Path_762" data-name="Path 762" d="M175.437,144.861l90.855-38.789s5.065,1.1,1.8,4.828c-3.3,3.724-90.875,37.654-90.875,37.654L12.75,109.6Z" transform="translate(58.205 152.405)" fill="#3a3768"/>
    <path id="Path_763" data-name="Path 763" d="M175.437,144.861l90.855-38.789s5.065,1.1,1.8,4.828c-3.3,3.724-90.875,37.654-90.875,37.654L12.75,109.6Z" transform="translate(58.205 152.405)" fill="#023368"/>
    <path id="Path_764" data-name="Path 764" d="M31.315,106.629s-8.758,10.5,0,26.255" transform="translate(194.899 157.594)" opacity="0.1" style="isolation: isolate"/>
    <path id="Path_765" data-name="Path 765" d="M28.1,119.709l39.3-13.1.141.383-39.28,13.138Z" transform="translate(201.224 157.429)" opacity="0.1" style="isolation: isolate"/>
    <path id="Path_766" data-name="Path 766" d="M28.1,124.416,75.28,106.483l.141.383L28.263,124.818Z" transform="translate(201.224 156.238)" opacity="0.1" style="isolation: isolate"/>
    <path id="Path_767" data-name="Path 767" d="M28.126,128.619l54.129-22.143.171.413L28.3,129.043Z" transform="translate(201.456 156.174)" opacity="0.1" style="isolation: isolate"/>
    <path id="Path_768" data-name="Path 768" d="M28.187,134.017l61.359-27.725.2.393L28.383,134.4Z" transform="translate(202.024 154.455)" opacity="0.1" style="isolation: isolate"/>
    <path id="Path_769" data-name="Path 769" d="M28.235,135.81l67.483-29.518.161.423L28.407,136.183Z" transform="translate(202.47 154.455)" opacity="0.1" style="isolation: isolate"/>
    <path id="Path_770" data-name="Path 770" d="M28.333,141.012l80.9-34.958.176.414L28.515,141.4Z" transform="translate(203.38 152.235)" opacity="0.1" style="isolation: isolate"/>
    <path id="Path_771" data-name="Path 771" d="M16.55,117.608l77.08-16.18,46.951,8.967L77.42,130.765Z" transform="translate(93.61 109.138)" fill="#fff" opacity="0.45" style="isolation: isolate"/>
    <path id="Path_772" data-name="Path 772" d="M118.881,103.095s3.961,1.589,1.64,4.075c-2.342,2.486-91.948,28.442-91.948,28.442Z" transform="translate(205.616 124.671)" fill="#023368"/>
    <path id="Path_773" data-name="Path 773" d="M120.707,98.877s-9.934,21.757-2.032,40.089L39.395,163.7l-7.582,1.589-3.508-15.3,2.342-19.343V120.056Z" transform="translate(203.119 85.375)" fill="#d5d6db"/>
    <path id="Path_774" data-name="Path 774" d="M13,116.148,122.7,96.181l145.388,23.131-90.3,32.53Z" transform="translate(60.544 60.256)" fill="#00afd8"/>
    <path id="Path_775" data-name="Path 775" d="M16.757,98.116s-10.306,19.467,1.527,37.417l162.707,35.261s-10.1-15.495.536-36.983Z" transform="translate(56.787 78.286)" fill="#00909e"/>
    <path id="Path_776" data-name="Path 776" d="M16.757,98.116s-10.306,19.467,1.527,37.417l162.707,35.261s-10.1-15.495.536-36.983Z" transform="translate(56.787 78.286)" fill="#0096c7"/>
    <path id="Path_777" data-name="Path 777" d="M15.826,98.771s-5.87,14.216,0,23.418" transform="translate(62.557 84.388)" opacity="0.1" style="isolation: isolate"/>
    <path id="Path_778" data-name="Path 778" d="M175.868,137l90.824-29.143s5.086,1.1,1.805,4.828-90.9,28.05-90.9,28.05l-164.451-39Z" transform="translate(61.932 112.075)" fill="#00909e"/>
    <path id="Path_779" data-name="Path 779" d="M175.868,137l90.824-29.143s5.086,1.1,1.805,4.828-90.9,28.05-90.9,28.05l-164.451-39Z" transform="translate(61.932 112.075)" fill="#0084a3"/>
    <path id="Path_780" data-name="Path 780" d="M31.716,101.957s-8.758,10.5,0,26.255" transform="translate(198.635 114.069)" opacity="0.1" style="isolation: isolate"/>
    <rect id="Rectangle_173" data-name="Rectangle 173" width="41.422" height="0.427" transform="translate(233.465 228.952) rotate(-18.457)" opacity="0.1" style="isolation: isolate"/>
    <path id="Path_781" data-name="Path 781" d="M28.5,119.754l47.157-17.943.162.423-47.179,17.9Z" transform="translate(204.954 112.714)" opacity="0.1" style="isolation: isolate"/>
    <path id="Path_782" data-name="Path 782" d="M28.527,123.921l54.139-22.113.161.383L28.7,124.335Z" transform="translate(205.186 112.687)" opacity="0.1" style="isolation: isolate"/>
    <path id="Path_783" data-name="Path 783" d="M28.589,129.355,89.962,101.62l.166.423L28.775,129.748Z" transform="translate(205.764 110.931)" opacity="0.1" style="isolation: isolate"/>
    <rect id="Rectangle_174" data-name="Rectangle 174" width="73.649" height="0.453" transform="translate(234.831 242.059) rotate(-23.617)" opacity="0.1" style="isolation: isolate"/>
    <path id="Path_784" data-name="Path 784" d="M28.734,136.322l80.9-34.938.171.383-80.9,34.927Z" transform="translate(207.119 108.739)" opacity="0.1" style="isolation: isolate"/>
    <path id="Path_785" data-name="Path 785" d="M16.951,112.964l77.08-16.21,46.956,8.986L77.815,126.121Z" transform="translate(97.34 65.596)" fill="#fff" opacity="0.3" style="isolation: isolate"/>
    <path id="Path_786" data-name="Path 786" d="M119.272,98.423s3.982,1.609,1.651,4.1S28.974,130.95,28.974,130.95Z" transform="translate(209.351 81.146)" fill="#0084a3"/>
    <path id="Path_787" data-name="Path 787" d="M32.471,85.556s-16.661-1-14.7,10.657a2.874,2.874,0,0,0,1.475,3.023s.031-.867,1.713-.578a8.036,8.036,0,0,0,1.8.093,3.812,3.812,0,0,0,2.228-.918h0s4.684-1.929,6.489-9.584c0,0,1.362-1.671,1.331-2.115l-2.827,1.217a5.005,5.005,0,0,1,.206,3.693s-.1-3.611-.64-3.538c-.113,0-1.455.7-1.455.7s1.661,3.538.413,6.107c0,0,.454-4.343-.939-5.849L25.58,89.631s1.939,3.631.64,6.623c0,0,.33-4.58-1.042-6.344l-1.8,1.393s1.816,3.59.7,6.076c0,0-.134-5.323-1.073-5.736a11.452,11.452,0,0,0-1.826,1.939s1.248,2.631.464,4.013c0,0-.464-3.549-.856-3.569a11.439,11.439,0,0,0-1.733,3.941,8.506,8.506,0,0,1,1.331-4.188A4.967,4.967,0,0,0,18,95.027s.248-1.651,2.8-1.8c0,0,1.3-1.795,1.63-1.878a10.16,10.16,0,0,0-4.044.464s1.341-1.568,4.508-.877l1.743-1.465s-3.312-.444-4.725.062c0,0,1.609-1.413,5.21-.392l1.929-1.135a18.432,18.432,0,0,0-4.518-.4s1.785-.959,5.086.082l1.372-.64s-2.063-.371-2.682-.464c-.6-.062-.629-.237-.629-.237a7.319,7.319,0,0,1,3.879.454A18.969,18.969,0,0,0,32.471,85.556Z" transform="translate(103.486 -38.921)" fill="#ade8f4"/>
    <path id="Path_788" data-name="Path 788" d="M55.161,90.209s-16.63-1-14.7,10.667a2.841,2.841,0,0,0,1.506,2.981s.01-.877,1.7-.557a7.139,7.139,0,0,0,1.816.1,3.812,3.812,0,0,0,2.177-.939h0s4.684-1.919,6.51-9.584c0,0,1.351-1.651,1.29-2.084L52.665,92a5.073,5.073,0,0,1,.206,3.7s-.093-3.631-.629-3.559c-.1,0-1.455.691-1.455.691s1.64,3.538.413,6.1c0,0,.454-4.333-.928-5.808L48.28,94.253s1.929,3.673.619,6.654c0,0,.33-4.57-1.032-6.386l-1.8,1.434s1.816,3.611.712,6.045c0,0-.134-5.3-1.093-5.715a11.479,11.479,0,0,0-1.816,1.939s1.238,2.651.485,4.013c0,0-.485-3.528-.887-3.559a11.681,11.681,0,0,0-1.723,3.951,8.579,8.579,0,0,1,1.362-4.209A5.3,5.3,0,0,0,40.7,99.659s.258-1.651,2.775-1.785a10.91,10.91,0,0,1,1.64-1.9,10.109,10.109,0,0,0-4.065.5s1.362-1.6,4.529-.9l1.754-1.455s-3.322-.423-4.725.052c0,0,1.62-1.382,5.2-.371l1.929-1.145a17.966,17.966,0,0,0-4.519-.4s1.774-.959,5.076.093l1.4-.64S49.6,91.313,49,91.251c-.609-.083-.64-.248-.64-.248a7.274,7.274,0,0,1,3.889.444A17.112,17.112,0,0,0,55.161,90.209Z" transform="translate(314.912 4.427)" fill="#ade8f4"/>
    <path id="Path_789" data-name="Path 789" d="M38.383,101.271s-7.263-15.031-16.5-7.634a2.861,2.861,0,0,0-1.9,2.765s.763-.382,1.3,1.207a8.877,8.877,0,0,0,.8,1.63,4.113,4.113,0,0,0,1.888,1.506h0s3.972,3.095,11.554.99a7.507,7.507,0,0,0,2.445.124l-2.414-1.908a5.12,5.12,0,0,1-3.146,2.012s3.136-1.878,2.816-2.311c-.083-.083-1.341-.918-1.341-.918s-2.27,3.177-5.107,3.332c0,0,4.023-1.712,4.663-3.652L31.46,97.258s-2.239,3.456-5.478,3.765c0,0,4.157-1.929,5.024-3.992l-2.074-.877s-2.259,3.343-4.952,3.6c0,0,4.549-2.744,4.436-3.765a11.1,11.1,0,0,0-2.589-.64s-1.661,2.373-3.25,2.373c0,0,2.868-2.156,2.693-2.5a11.156,11.156,0,0,0-4.292.454,8.062,8.062,0,0,1,4.292-.887,4.535,4.535,0,0,0-2.239-1.465s1.578-.64,2.94,1.506a11.838,11.838,0,0,1,2.445.516,10.774,10.774,0,0,0-2.383-3.3s2,.413,2.93,3.508L31.1,96.4s-1.217-3.115-2.352-4.106c0,0,2,.733,2.878,4.374l1.939,1.114a17.468,17.468,0,0,0-1.857-4.147s1.7,1.1,2.414,4.488l1.207.918s-.671-2.012-.877-2.569-.113-.671-.113-.671a7.085,7.085,0,0,1,1.516,3.59S38.207,101.416,38.383,101.271Z" transform="translate(125.614 17.494)" fill="#ade8f4"/>
    <path id="Path_790" data-name="Path 790" d="M54.656,96.863s-7.232-15.031-16.5-7.613a2.839,2.839,0,0,0-1.878,2.734s.763-.392,1.29,1.207a8.6,8.6,0,0,0,.825,1.661,3.677,3.677,0,0,0,1.878,1.465h0s3.972,3.157,11.544,1c0,0,2.1.371,2.455.113l-2.383-1.888a5.067,5.067,0,0,1-3.157,1.991s3.136-1.857,2.8-2.259a15.367,15.367,0,0,0-1.31-.939s-2.29,3.157-5.127,3.311c0,0,4.044-1.723,4.642-3.662l-1.991-1.145s-2.228,3.477-5.478,3.776c0,0,4.157-1.929,5.034-3.992l-2.094-.887s-2.27,3.342-4.952,3.59c0,0,4.56-2.734,4.446-3.755a10.866,10.866,0,0,0-2.589-.609S40.44,93.3,38.872,93.3c0,0,2.858-2.146,2.682-2.486a11.293,11.293,0,0,0-4.292.444,8.293,8.293,0,0,1,4.312-.887A4.735,4.735,0,0,0,39.316,88.9s1.578-.609,2.919,1.558a9.511,9.511,0,0,1,2.466.505,10.38,10.38,0,0,0-2.393-3.322s2.032.423,2.95,3.518l2.135.867s-1.238-3.126-2.362-4.116c0,0,1.991.743,2.878,4.374l1.939,1.1a16.755,16.755,0,0,0-1.867-4.1s1.712,1.052,2.4,4.446l1.228.9s-.65-1.981-.877-2.558-.114-.671-.114-.671a7.105,7.105,0,0,1,1.517,3.6A17.428,17.428,0,0,0,54.656,96.863Z" transform="translate(277.403 -23.478)" fill="#ade8f4"/>
    <path id="Path_791" data-name="Path 791" d="M56.91,104.082s-7.252-15.062-16.485-7.613a2.819,2.819,0,0,0-1.9,2.734s.763-.4,1.3,1.217a8.553,8.553,0,0,0,.8,1.63,3.653,3.653,0,0,0,1.878,1.465h0s3.982,3.167,11.544,1.032c0,0,2.115.361,2.466.093L54.1,102.762a5.125,5.125,0,0,1-3.157,2s3.136-1.836,2.8-2.29c-.052-.062-1.3-.918-1.3-.918s-2.28,3.157-5.137,3.332c0,0,4.044-1.7,4.673-3.683l-1.991-1.135s-2.239,3.446-5.488,3.765c0,0,4.157-1.939,5.045-4l-2.084-.856s-2.259,3.3-4.962,3.559c0,0,4.57-2.723,4.457-3.755a10.4,10.4,0,0,0-2.579-.609s-1.682,2.331-3.27,2.331c0,0,2.878-2.156,2.7-2.486a11.594,11.594,0,0,0-4.3.444,8.539,8.539,0,0,1,4.312-.877A4.747,4.747,0,0,0,41.57,96.1s1.568-.6,2.93,1.558a8.82,8.82,0,0,1,2.435.516,10.154,10.154,0,0,0-2.362-3.322s2.022.413,2.93,3.5l2.125.856s-1.217-3.105-2.342-4.1c0,0,2,.743,2.858,4.384l1.97,1.114a18.062,18.062,0,0,0-1.878-4.137s1.7,1.083,2.414,4.467l1.207.887s-.66-2.012-.877-2.569-.114-.671-.114-.671a7.087,7.087,0,0,1,1.537,3.59A17.635,17.635,0,0,0,56.91,104.082Z" transform="translate(298.308 43.672)" fill="#ade8f4"/>
    <path id="Path_792" data-name="Path 792" d="M23.528,114.087c5.55,0,10.069.485,10.069,1.135,0,.629-4.518,1.145-10.069,1.145s-10.058-.516-10.058-1.145C13.47,114.572,17.968,114.087,23.528,114.087Z" transform="translate(64.913 227.074)" fill="#00909e" opacity="0.1" style="isolation: isolate"/>
    <path id="Path_793" data-name="Path 793" d="M17.13,112.233c5.55,0,10.079.516,10.079,1.135,0,.588-4.529,1.1-10.079,1.1s-10.058-.516-10.058-1.1C7.072,112.749,11.58,112.233,17.13,112.233Z" transform="translate(5.308 209.802)" fill="#00909e" opacity="0.1" style="isolation: isolate"/>
    <path id="Path_794" data-name="Path 794" d="M53.417,112.639c5.55,0,10.058.475,10.058,1.114,0,.609-4.508,1.093-10.058,1.093s-10.079-.485-10.079-1.093C43.338,113.114,47.856,112.639,53.417,112.639Z" transform="translate(343.169 213.584)" fill="#00909e" opacity="0.1" style="isolation: isolate"/>
    <path id="Path_795" data-name="Path 795" d="M45.275,112.108c5.581,0,10.069.505,10.069,1.145,0,.588-4.488,1.083-10.069,1.083-5.54,0-10.058-.5-10.058-1.083C35.217,112.613,39.735,112.108,45.275,112.108Z" transform="translate(267.512 208.637)" fill="#00909e" opacity="0.1" style="isolation: isolate"/>
    <path id="Path_796" data-name="Path 796" d="M41.7,114.511c6.571,0,11.9.928,11.9,2.032,0,1.155-5.333,2.043-11.9,2.043-6.592,0-11.915-.887-11.915-2.043C29.784,115.439,35.107,114.511,41.7,114.511Z" transform="translate(216.898 231.024)" fill="#00909e" opacity="0.1" style="isolation: isolate"/>
    <path id="Path_797" data-name="Path 797" d="M40.906,112.716S24.328,121.3,32.9,131.378a3.213,3.213,0,0,0,3.115,2.063s-.454-.877,1.32-1.547a9.135,9.135,0,0,0,1.805-.949,4.234,4.234,0,0,0,1.589-2.156h0s3.394-4.529.763-12.916c0,0,.351-2.373.062-2.775l-2.032,2.775a5.607,5.607,0,0,1,2.331,3.435s-2.208-3.435-2.631-3.054c-.093.062-.99,1.506-.99,1.506s3.59,2.445,3.858,5.653c0,0-2.032-4.5-4.219-5.1l-1.259,2.218s3.951,2.4,4.374,6.025c0,0-2.29-4.591-4.622-5.519l-.939,2.393s3.807,2.4,4.157,5.426c0,0-3.167-5.045-4.323-4.89a11.49,11.49,0,0,0-.609,2.919s2.662,1.774,2.713,3.559c0,0-2.466-3.126-2.858-2.919a12.789,12.789,0,0,0,.609,4.756,9.406,9.406,0,0,1-1.1-4.756,5.208,5.208,0,0,0-1.578,2.538s-.722-1.723,1.64-3.291a11.64,11.64,0,0,1,.5-2.765,11.721,11.721,0,0,0-3.621,2.765s.382-2.29,3.838-3.394l.877-2.4s-3.446,1.444-4.508,2.775c0,0,.753-2.29,4.776-3.373l1.2-2.2a19.993,19.993,0,0,0-4.56,2.2s1.145-1.939,4.931-2.827l.949-1.372s-2.208.774-2.827,1.052c-.629.3-.753.155-.753.155a8.12,8.12,0,0,1,4-1.785S41.06,112.881,40.906,112.716Z" transform="translate(223.004 214.302)" fill="#ade8f4"/>
    <path id="Path_798" data-name="Path 798" d="M170.367,246.246c-2.858-7.768-18.641-8.511-25.471-6.551-4.859,1.434-15.1,3.012-20.581,3.848l-.361-.341c.712-.237.743-.753.65-1.527a21.15,21.15,0,0,1,.031-3.023c3.353,1.042,6.344-1.413,6.344-1.413h0c3.941-1.754,2.878-9.243,3.642-11.3.557-1.537,1.166-10.553,1.444-15.062h.052l.041-1.527.041-1.032s.392-11.018,1.145-13.225c.712-2.063,1.259-12.369,1.362-14.02v-.2l-.041-.959c.031-.7.041-1.486.041-2.29,0-3.745-.392-8.48-.433-9.233v-.382c.01-1.62-.186-9.625-6.984-12.648-2.527-1.125-5.54-2.455-8.459-3.755-.753-6.5-2.466-12.978-2.321-19.518a28.89,28.89,0,0,1,.186-2.971c0,.279-.031.578-.031.918v1.888c.258-8.212,3.342-16.454,3.064-24.46-.021.784-.083,1.578-.175,2.362a25.054,25.054,0,0,0-.825-8.067,4.727,4.727,0,0,0-1.372-2.486,6.057,6.057,0,0,0-2.4-.949,49.044,49.044,0,0,0-6.3-1.166,9.767,9.767,0,0,0-1.424-2.765C106.788,88.3,100.2,82.56,92.438,81.27c-3.9-.66-8.408-.124-11.049,2.682a5.628,5.628,0,0,0-.784.784c-1.424,1.682-2.043,3.961-3.508,5.633-.093.124-.206.217-.309.351-2.858,2.548-7.314,3.095-10.512,5.375A14.156,14.156,0,0,0,64.7,97.477a26.524,26.524,0,0,0-3.415,4.168c-1.444,2.032-2.909,4.127-3.363,6.5-.928,4.838,2.362,9.419,2.971,14.257,1.351,10.853-10.636,20.478-8.377,31.175a14.2,14.2,0,0,0,3.869,6.932c-4.684,4.24-8.686,8.356-8.686,8.356v.237h-.732l.083.9h-.083l.413,4.745-.413,6.912v.629h.041c.134,2.548.66,11.668,1.31,13.607.753,2.228,1.124,13.225,1.124,13.225s.836,15.557,1.6,17.62-.309,9.532,3.652,11.286h0a7.938,7.938,0,0,0,3.961,1.661c-.206,1.64-.083,2.827.567,3.208a1.879,1.879,0,0,0,.939.248,7.657,7.657,0,0,0-.722,1.248,18.993,18.993,0,0,1-4.6-1.062c-4.24-1.764-18.332-5.7-22.427-2.93C28.3,243.141,18.45,245.679,23,256.82c4.56,11.183,6.675,11.451,6.675,11.451a16.745,16.745,0,0,1,3.642,3.652C34.7,273.986,47.408,278.7,50.6,278.7a30.816,30.816,0,0,1,4.034.165s-3.456,3.043-2.981,4.818c.464,1.754-1.052,15.835-1.052,15.835s3.5,3.539,5-1.093l.062.072c.279.413,1.785,2.125,4.642-.072a26.347,26.347,0,0,1,3.7-2.332l13.772-1.95a33.892,33.892,0,0,1,4.333-.062c2.208.206,4.353-1.093,5.7-2.115,2.858,1.094,6.066,2.3,7.6,2.734,3.105.836,17.362,4.683,20.684,3.5a4.719,4.719,0,0,0,1.805-1.289l3.177.1-1.486.289s2.889.062,6.829.1l-.155.093,4.941-.031c7.232.062,15.361.093,16.434-.165,1.661-.382,10.368-.093,12.926,0h.7s9.553-1.9,5.633-11.585c-3.043-7.469-12.359-9.594-16.485-10.223,1.166-.2,2.166-.382,2.827-.516,2.9-.433,8.49-3.054,8.944-3.941s5.158-3.508,6.375-4.993S173.234,254.025,170.367,246.246Zm-79.1,21.777-.475.144-.33.124-.609.588c-.475-.33-1-.671-1.527-1.011Q89.745,267.946,91.262,268.024Zm41.76,12.349" transform="translate(142.751 -81.017)" fill="url(#linear-gradient)"/>
    <path id="Path_799" data-name="Path 799" d="M31.262,143.183s6.706,17.507,10.5,15.753c3.838-1.733,2.785-9.192,3.507-11.214.732-2.063,1.537-17.527,1.537-17.527s.371-10.956,1.094-13.174c.671-2.012,1.228-12.3,1.32-13.916v-.217L48.5,90.2l-4.085-1.021-9.5,3.528-1.32,7.49-.506,2.909-.217,1.259Z" transform="translate(230.667 -4.982)" fill="url(#linear-gradient-2)"/>
    <path id="Path_800" data-name="Path 800" d="M31.476,94.386s6.4,5.2,8.315,5.663c1.95.454,3.105,4.56,3.105,4.56" transform="translate(232.661 43.537)" opacity="0.1" style="isolation: isolate"/>
    <path id="Path_801" data-name="Path 801" d="M42.391,143.542S35.706,161.059,31.9,159.305s-2.8-9.2-3.508-11.265c-.732-2.063-1.547-17.506-1.547-17.506s-.361-10.966-1.083-13.143c-.671-2.053-1.217-12.328-1.32-13.958v-.186l.743-12.73,4.085-1.011,9.491,3.518,1.31,7.5.516,2.909.217,1.259Z" transform="translate(167.121 -1.926)" fill="url(#linear-gradient-3)"/>
    <rect id="Rectangle_175" data-name="Rectangle 175" width="14.945" height="23.312" transform="translate(238.221 47.845)" fill="#3e373a"/>
    <rect id="Rectangle_176" data-name="Rectangle 176" width="14.945" height="23.312" transform="translate(238.221 47.845)" opacity="0.1" style="isolation: isolate"/>
    <path id="Path_802" data-name="Path 802" d="M29.213,97.683s-5.107,5.622-3.219,6.644,14.164,20.137,14.164,20.137,40.285,4.952,47.9-2.476c7.582-7.448,7.428-20.725,7.428-20.725s-6.087,1.29-6.747.588c-.681-.712-4.333-4.168-4.333-4.168S32.731,94.568,29.213,97.683Z" transform="translate(177.689 61.356)" fill="#4b4b5b"/>
    <path id="Path_803" data-name="Path 803" d="M29.213,97.683s-5.107,5.622-3.219,6.644,14.164,20.137,14.164,20.137,40.285,4.952,47.9-2.476c7.582-7.448,7.428-20.725,7.428-20.725s-6.087,1.29-6.747.588c-.681-.712-4.333-4.168-4.333-4.168S32.731,94.568,29.213,97.683Z" transform="translate(177.689 61.356)" fill="#03045e"/>
    <path id="Path_804" data-name="Path 804" d="M111.633,125.934,98.5,136.467l-3.961.3-1.475.062-24.491,1.826L43.165,136.8l-3.765-.279-4.828-.361-10.058-9.646a173.763,173.763,0,0,1,13.37-12.761,27.361,27.361,0,0,1,6.489-4.364l.289-.082a7.025,7.025,0,0,0,2.765-1.939c4.931-5.076,9.491-17.62,9.491-17.62s21.767-11.245,19.137,3.5c-2.631,14.762,9.769,11.09,9.769,11.09l4.085,1.888,1.62.722,4.126,1.9,9.295,4.261C112.242,116.474,111.633,125.934,111.633,125.934Z" transform="translate(167.792 -37.921)" fill="url(#linear-gradient-4)"/>
    <path id="Path_805" data-name="Path 805" d="M46.339,83.409a19.554,19.554,0,1,1-19.549,19.58A19.566,19.566,0,0,1,46.339,83.409Z" transform="translate(189.005 -58.727)" opacity="0.1" style="isolation: isolate"/>
    <path id="Path_806" data-name="Path 806" d="M112.325,118.522H24.441V118.3l.743-12.689a175.683,175.683,0,0,1,13.37-12.792l55.181-2.2,2.558-2.682,9.295,4.25c7.314,3.322,6.716,12.844,6.716,12.844S113.315,116.026,112.325,118.522Z" transform="translate(167.121 -16.562)" opacity="0.1" style="isolation: isolate"/>
    <path id="Path_807" data-name="Path 807" d="M112.325,118.478H24.441v-.186l.743-12.73A173.763,173.763,0,0,1,38.554,92.8l55.181-2.2,2.558-2.713,9.295,4.261c7.314,3.373,6.716,12.864,6.716,12.864S113.315,116,112.325,118.478Z" transform="translate(167.121 -16.972)" fill="#e7c7ca"/>
    <path id="Path_808" data-name="Path 808" d="M32.237,90.87s13.886,17.692,32.362-.382c18.466-18.012,2.032,40.243,2.032,40.243L26.79,135.467Z" transform="translate(189.005 -24.975)" opacity="0.1" style="isolation: isolate"/>
    <path id="Path_809" data-name="Path 809" d="M32.237,90.935s13.886,17.7,32.362-.351,2.032,40.223,2.032,40.223L26.79,135.522Z" transform="translate(189.005 -24.173)" fill="#e7c7ca"/>
    <path id="Path_810" data-name="Path 810" d="M82.067,88.444,83.532,110.8l1.568,7.469,1.207,5.664s3.054,43.813,2.2,45.989c-.877,2.208.433,3.93.619,5.117.175,1.145-.186,4.075-.052,5.406.165,1.31,0,1.888-3.353,1.434-3.353-.485-8.036-1.279-8.036-1.279s-11.812.856-15.9-.619c-4.085-1.413-11.822-1.455-11.822-1.455s-11.678.309-15.474-.124c-3.8-.454-5.839,4.663-8.315,3.208-2.5-1.455,2.909-15.619,4.663-19.714s-2.331-14.432-2.331-14.432l5.251-29.174,1.176-6.6V90.91l.289-.1a7.129,7.129,0,0,0,2.765-1.939l1.31,20.89,41.172,1.485V87.722" transform="translate(177.231 -18.546)" opacity="0.1" style="isolation: isolate"/>
    <path id="Path_811" data-name="Path 811" d="M82.067,88.359l1.465,22.376,1.568,7.448,1.207,5.674s3.054,43.792,2.2,46c-.877,2.187.433,3.92.619,5.117.175,1.145-.186,4.075-.052,5.406.165,1.289,0,1.867-3.353,1.413s-8.036-1.3-8.036-1.3-11.812.9-15.9-.588c-4.085-1.434-11.822-1.434-11.822-1.434s-11.678.268-15.474-.165-5.839,4.673-8.315,3.219c-2.5-1.444,2.909-15.619,4.663-19.714s-2.331-14.453-2.331-14.453l5.251-29.143,1.176-6.623V90.8l.289-.082a7.025,7.025,0,0,0,2.765-1.939l1.31,20.911,41.172,1.455V87.637" transform="translate(177.231 -19.338)" fill="#e7c7ca"/>
    <path id="Path_812" data-name="Path 812" d="M92.337,101.838a4.665,4.665,0,0,0-1.32-2.486,5.558,5.558,0,0,0-2.321-.959,46.232,46.232,0,0,0-6.066-1.145,9.658,9.658,0,0,0-1.32-2.724c-4.292-6.066-10.646-11.8-18.115-13.1-3.9-.671-8.439-.052-10.925,3.033-1.4,1.671-2,3.961-3.384,5.6-2.672,3.219-7.5,3.631-10.873,6.118a20.431,20.431,0,0,0-4.384,5.055c-1.372,2.022-2.806,4.1-3.229,6.489-.867,4.787,2.28,9.346,2.878,14.185,1.29,10.76-10.254,20.343-8.067,30.99,1.269,6.19,6.984,10.564,12.916,12.792,2.1.774,4.488,1.558,5.478,3.58.423.856.506,1.857.928,2.723,1.372,2.992,5.911,3.074,8.356.959,2.455-2.166,3.219-5.653,3.507-8.893,1.186-14.154-4.518-28.173-3.838-42.379.2-4.281,1.413-9.171,5.251-11.152,5.179-2.589,11.42,1.795,17.125.949a34.145,34.145,0,0,1,1.64,20.735c-.908,3.776-2.486,7.459-2.61,11.327-.155,5.932,3.033,11.348,5.808,16.609a8.388,8.388,0,0,1,1.166,3.219,7.527,7.527,0,0,1-.64,3.353c-1.547,4.2-4.24,8.088-4.56,12.586a2.04,2.04,0,0,0,.33,1.475,1.783,1.783,0,0,0,1.145.516c4.715.8,8.81-3.373,11.121-7.572a35.495,35.495,0,0,0,4.384-15.134c.464-8.923-2.713-17.672-2.517-26.605C90.439,121.831,95.019,111.607,92.337,101.838Z" transform="translate(171.706 -79.508)" opacity="0.1" style="isolation: isolate"/>
    <path id="Path_813" data-name="Path 813" d="M92.378,101.775a4.8,4.8,0,0,0-1.32-2.486,5.4,5.4,0,0,0-2.29-.939,52.847,52.847,0,0,0-6.087-1.186,10.3,10.3,0,0,0-1.32-2.682c-4.281-6.087-10.636-11.812-18.1-13.091-3.92-.681-8.449-.093-10.956,3.023-1.372,1.671-1.97,3.91-3.353,5.6-2.693,3.229-7.5,3.621-10.873,6.138a20.687,20.687,0,0,0-4.395,5.055c-1.372,2-2.8,4.085-3.239,6.5-.867,4.735,2.29,9.295,2.878,14.113,1.31,10.8-10.254,20.374-8.067,31.031,1.29,6.2,7.015,10.564,12.937,12.771,2.094.784,4.477,1.558,5.457,3.59.444.877.505,1.878.918,2.744,1.393,2.971,5.942,3.085,8.408.918,2.424-2.135,3.188-5.612,3.487-8.841,1.166-14.2-4.5-28.194-3.848-42.41.2-4.271,1.413-9.181,5.261-11.1,5.168-2.631,11.4,1.723,17.115.887a34.013,34.013,0,0,1,1.63,20.736c-.918,3.786-2.476,7.459-2.579,11.348-.175,5.942,3.023,11.337,5.8,16.609A9.347,9.347,0,0,1,81,163.29a7.868,7.868,0,0,1-.629,3.363c-1.578,4.209-4.271,8.108-4.57,12.6a2.074,2.074,0,0,0,.33,1.506,1.887,1.887,0,0,0,1.124.485c4.745.815,8.831-3.363,11.142-7.582a35.543,35.543,0,0,0,4.374-15.124c.5-8.923-2.713-17.672-2.507-26.6C90.48,121.778,95.07,111.544,92.378,101.775Z" transform="translate(172.089 -79.898)" fill="#3e373a"/>
    <path id="Path_814" data-name="Path 814" d="M30.572,113.059l17.368.575-2.5-12.9-13.313,1.279Z" transform="translate(224.237 102.716)" fill="#c3c7d9"/>
    <path id="Path_815" data-name="Path 815" d="M108.688,123.488c-1.176,1.444-5.695,4.106-6.128,4.962-.433.877-5.849,3.508-8.614,3.941-2.785.454-11.544,2.352-13.153,3.353-1.135.722-10.388,3.064-16.475,4.353a44.384,44.384,0,0,1-4.972.908c-2.62.134-31.382-9.666-31.382-9.666l5.529-5.664.32-.093c1.568-.526,8.81-3,12.823-4.157,4.539-1.3,9.79-6.7,9.79-6.7s7.747-2.651,8.769-2.93-2.62-10.213-2.62-10.213,16.774-2.342,23.346-4.312,21.747-1.238,24.522,6.52C113.207,111.511,109.875,122.013,108.688,123.488Z" transform="translate(199.942 61.765)" fill="#03045e"/>
    <path id="Path_816" data-name="Path 816" d="M61.855,115.321s-3.332,3.508-6.706,3.219-15.113.856-15.113.856a24.377,24.377,0,0,0-5.911,3.435c-2.744,2.177-4.209.475-4.467.082l-.052-.082c-1.465,4.611-4.828,1.093-4.828,1.093s1.465-14.009,1.021-15.753,2.889-4.745,2.889-4.745L32.64,102.4l9.976-2.538L56.924,104.8Z" transform="translate(170.27 94.598)" fill="#caf0f8"/>
    <path id="Path_817" data-name="Path 817" d="M32.609,100.113l-2.95,20.509-.052-.083c-1.465,4.611-4.828,1.093-4.828,1.093s1.465-14.009,1.021-15.753,2.889-4.745,2.889-4.745Z" transform="translate(170.27 96.89)" opacity="0.1" style="isolation: isolate"/>
    <path id="Path_818" data-name="Path 818" d="M27.542,94.461s7.737,2.62,14.443,0" transform="translate(196.011 44.235)" opacity="0.1" style="isolation: isolate"/>
    <path id="Path_819" data-name="Path 819" d="M30.1,94.94s3.219,1.63,5.684,0" transform="translate(219.851 48.698)" opacity="0.1" style="isolation: isolate"/>
    <path id="Path_820" data-name="Path 820" d="M30.1,95.981s5.385.722,6.417-.743" transform="translate(219.851 51.474)" opacity="0.1" style="isolation: isolate"/>
    <path id="Path_821" data-name="Path 821" d="M29.93,98.888S40.071,97.568,42.6,95.8" transform="translate(218.258 56.747)" opacity="0.1" style="isolation: isolate"/>
    <path id="Path_822" data-name="Path 822" d="M26.93,95.8s5.7,3.2,9.945,3.084" transform="translate(190.309 56.747)" opacity="0.1" style="isolation: isolate"/>
    <path id="Path_823" data-name="Path 823" d="M64.318,113.692a44.559,44.559,0,0,1-4.983.908c-2.61.134-31.372-9.666-31.372-9.666l5.529-5.664.32-.093c.877.6,1.589,1.114,2.094,1.537,2.414,1.888,4.756-.557,5.622-.557s8.48,6.272,8.48,6.272,6.984,1.578,8.17,3.054c1.166,1.444,5.251,1.145,5.983,2.177A3.874,3.874,0,0,1,64.318,113.692Z" transform="translate(199.942 88.17)" fill="#023e8a"/>
    <path id="Path_824" data-name="Path 824" d="M65.043,101.577s-7.077.433-11.162-1.3-17.661-5.695-21.6-2.909c-3.951,2.816-13.442,5.272-9.047,16.351,4.364,11.09,6.427,11.379,6.427,11.379a15.9,15.9,0,0,1,3.5,3.652c1.31,2.032,13.586,6.705,16.63,6.705,3.074,0,8.48,0,16.062,5.261a32.853,32.853,0,0,0,14.463,5.849s9.625,3.941,12.617,4.818,16.712,4.663,19.931,3.466c3.219-1.124,5.251-8.449,5.251-8.449s1.455-6.571.743-7.582c-.743-1.032-4.828-.743-5.994-2.187s-8.17-3.054-8.17-3.054-7.582-6.283-8.459-6.283c-.856,0-3.188,2.465-5.612.578a128.441,128.441,0,0,0-15.124-9.635C69.954,115.328,65.043,101.577,65.043,101.577Z" transform="translate(145.263 62.343)" fill="#03045e"/>
    <path id="Path_825" data-name="Path 825" d="M24.878,97.465a8.449,8.449,0,0,1,7.18,1.908c3.508,2.94,15.289,8.779,15.289,8.779" transform="translate(171.192 70.694)" fill="#023e8a"/>
    <path id="Path_826" data-name="Path 826" d="M50.1,97.3s-15.619,2.352-18.528,5.581" transform="translate(233.564 70.684)" fill="#023e8a"/>
    <path id="Path_827" data-name="Path 827" d="M71.359,121.748h-.691c-2.476-.093-10.832-.351-12.452,0-1.9.454-27,0-27,0l4.91-1.011s-1.836-6.375-.671-6.922c0,0-6.571-4.333-1.609-7.252a15.331,15.331,0,0,1,10.285-1.7l12.431-4.188,2.393-.8s14.009.7,17.8,10.347C80.561,119.86,71.359,121.748,71.359,121.748Z" transform="translate(230.266 94.598)" fill="#caf0f8"/>
    <path id="Path_828" data-name="Path 828" d="M48.469,121.738h-.691c4.085-3.373,13.308-13.6-14.1-21.055l2.393-.815s14.009.743,17.8,10.357C57.671,119.892,48.469,121.738,48.469,121.738Z" transform="translate(253.156 94.608)" opacity="0.1" style="isolation: isolate"/>
    <path id="Path_829" data-name="Path 829" d="M33.3,100.738a.769.769,0,0,1,.753.774.778.778,0,0,1-.753.784.766.766,0,0,1-.763-.784A.758.758,0,0,1,33.3,100.738Z" transform="translate(242.564 102.713)" fill="#4b4b5b"/>
    <path id="Path_830" data-name="Path 830" d="M32.869,100.862a.763.763,0,1,1,0,1.527.763.763,0,1,1,0-1.527Z" transform="translate(238.53 103.868)" fill="#4b4b5b"/>
    <g id="Group_495" data-name="Group 495" transform="translate(197.191 27.529)" opacity="0.1">
      <path id="Path_831" data-name="Path 831" d="M52.6,99.532a33.92,33.92,0,0,0-2.538-14.071c-5.684.846-11.915-3.539-17.094-.908-3.838,1.96-5.024,6.8-5.251,11.111-.062,1.135-.072,2.259-.052,3.425a9.371,9.371,0,0,1,.052-1.228c.2-4.3,1.382-9.181,5.251-11.121,5.179-2.631,11.41,1.743,17.094.908A33.88,33.88,0,0,1,52.6,99.532Z" transform="translate(-0.08 -83.531)"/>
      <path id="Path_832" data-name="Path 832" d="M28.564,97.94a13.142,13.142,0,0,0-.052-2.847c-.475-3.869-2.579-7.551-2.95-11.307-.506,4.529,2.4,8.893,2.95,13.493A2.9,2.9,0,0,1,28.564,97.94Z" transform="translate(-20.173 -82.744)"/>
      <path id="Path_833" data-name="Path 833" d="M56.465,100.586c-.279,3.25-1.052,6.716-3.487,8.882-2.486,2.135-7.036,2.012-8.4-.918-.444-.9-.516-1.919-.928-2.785-.98-2-3.363-2.775-5.437-3.569-5.952-2.218-11.678-6.561-12.957-12.771a12.44,12.44,0,0,1-.227-1.7,13.859,13.859,0,0,0,.227,3.858c1.279,6.21,7,10.574,12.957,12.823,2.074.774,4.457,1.547,5.437,3.569.433.887.505,1.867.928,2.755,1.362,2.961,5.942,3.074,8.4.939,2.424-2.166,3.188-5.633,3.487-8.9q.186-2.553.124-5.137C56.589,98.626,56.538,99.6,56.465,100.586Z" transform="translate(-24.987 -46.076)"/>
      <path id="Path_834" data-name="Path 834" d="M31.316,106.092v1.9c.237-8.129,3.239-16.32,2.94-24.3C34.029,91.071,31.481,98.613,31.316,106.092Z" transform="translate(33.979 -83.685)"/>
      <path id="Path_835" data-name="Path 835" d="M36.606,107a6.872,6.872,0,0,0,.113-1.589,8.947,8.947,0,0,0-1.2-3.177c-2.517-4.828-5.406-9.749-5.746-15.113,0,.248-.031.444-.031.691-.165,5.921,3.023,11.348,5.777,16.619A9.707,9.707,0,0,1,36.606,107Z" transform="translate(19.291 -51.637)"/>
      <path id="Path_836" data-name="Path 836" d="M46.95,89.251a36.02,36.02,0,0,1-4.405,15.082c-2.311,4.209-6.4,8.418-11.141,7.6a1.629,1.629,0,0,1-1.135-.526.674.674,0,0,1-.2-.32,10.233,10.233,0,0,0-.134,1.042,2,2,0,0,0,.33,1.486,1.865,1.865,0,0,0,1.135.516c4.745.825,8.831-3.384,11.141-7.572A36.026,36.026,0,0,0,46.95,91.417c.052-1.011.062-2.043.031-3.064C46.97,88.663,46.97,88.941,46.95,89.251Z" transform="translate(20.863 -40.197)"/>
    </g>
    <path id="Path_837" data-name="Path 837" d="M31.63,106.315S42.71,110.967,50,100.672" transform="translate(234.095 102.098)" fill="none" stroke="#000" stroke-miterlimit="10" stroke-width="1" opacity="0.1" style="isolation: isolate"/>
    <path id="Path_838" data-name="Path 838" d="M31.839,104.425s9.058-5.891,20.6-.2" transform="translate(236.042 112.117)" fill="none" stroke="#000" stroke-miterlimit="10" stroke-width="1" opacity="0.1" style="isolation: isolate"/>
    <path id="Path_839" data-name="Path 839" d="M25.967,105.908s3.786-8.552,13.937-1.991" transform="translate(181.338 109.262)" fill="none" stroke="#000" stroke-miterlimit="10" stroke-width="1" opacity="0.1" style="isolation: isolate"/>
    <path id="Path_840" data-name="Path 840" d="M24.772,97.332,32.53,90.3s30.041-1.939,31.289,8.263c0,0,10.657-12.1,33.074-9.419l9.491,7.541L80.18,108.2l-25.46,8.831L35.944,108.66Z" transform="translate(170.205 -8.938)" opacity="0.1" style="isolation: isolate"/>
    <path id="Path_841" data-name="Path 841" d="M24.772,97.34l7.758-6.984s30.041-1.96,31.289,8.253c0,0,10.657-12.121,33.074-9.419l9.491,7.531-26.2,11.533-25.46,8.81-18.776-8.377Z" transform="translate(170.205 -8.532)" fill="#d5d6db"/>
    <path id="Path_842" data-name="Path 842" d="M24.44,89.712l3.426,41.023,36.343,1.823L62.652,91.717l-.035-.7Z" transform="translate(167.111 -0.008)" opacity="0.1" style="isolation: isolate"/>
    <path id="Path_843" data-name="Path 843" d="M24.44,89.625l3.426,41.043,36.343,1.8L62.652,91.64l-.035-.685Z" transform="translate(167.111 -0.818)" fill="#00b4d8"/>
    <path id="Path_844" data-name="Path 844" d="M66.7,89.625,29.209,95.286V136.46l36.636-5.279Z" transform="translate(211.541 -0.818)" opacity="0.1" style="isolation: isolate"/>
    <path id="Path_845" data-name="Path 845" d="M66.7,89.542,29.209,95.163v41.194l36.636-5.289Z" transform="translate(211.541 -1.591)" fill="#00b4d8"/>
    <path id="Path_846" data-name="Path 846" d="M50.276,90.518,30.022,92.754l.453,6.921,19.8-2.2Z" transform="translate(219.119 7.498)" fill="#fff" opacity="0.3" style="isolation: isolate"/>
    <path id="Path_847" data-name="Path 847" d="M25.76,128.7l2.074,5.571s3.054,2.6,6.4,1.29c3.384-1.29,6.3-1.95,7.768-3.229s3.5-7.706,3.5-7.706,2.043-7.025,4.075-8.769c2.053-1.733,7.448-25.883,0-23.5-7.448,2.342-13.143,24.222-13.143,24.222a5.059,5.059,0,0,1-3.208,1.764c-1.888.165-5.684-.289-6.406,1.31C26.07,121.264,23.563,125.514,25.76,128.7Z" transform="translate(171.187 23.106)" fill="url(#linear-gradient-5)"/>
    <path id="Path_848" data-name="Path 848" d="M39.14,92.629a12.527,12.527,0,0,1-11-2.723l1.568,40.821a11.1,11.1,0,0,0,9.429,3.116Z" transform="translate(201.61 1.8)" opacity="0.1" style="isolation: isolate"/>
    <path id="Path_849" data-name="Path 849" d="M39.14,92.574a12.512,12.512,0,0,1-11-2.754l1.568,40.831a11.132,11.132,0,0,0,9.429,3.115Z" transform="translate(201.61 0.999)" fill="#00909e"/>
    <path id="Path_850" data-name="Path 850" d="M39.14,92.574a12.512,12.512,0,0,1-11-2.754l1.568,40.831a11.132,11.132,0,0,0,9.429,3.115Z" transform="translate(201.61 0.999)" fill="#0096c7"/>
    <path id="Path_851" data-name="Path 851" d="M29.294,93.331s15.258-4.673,19.229-4.023" transform="translate(212.333 -4.348)" opacity="0.1" style="isolation: isolate"/>
    <path id="Path_852" data-name="Path 852" d="M43.226,91.884s-14.783-3.518-17.259-2.527" transform="translate(181.338 -4.954)" opacity="0.1" style="isolation: isolate"/>
    <path id="Path_853" data-name="Path 853" d="M30.227,91.917s10.182-3.755,13.886-1.981" transform="translate(221.025 -2.356)" opacity="0.1" style="isolation: isolate"/>
    <path id="Path_854" data-name="Path 854" d="M29.727,105.734a35.027,35.027,0,0,1,5.034-3.177A74.712,74.712,0,0,0,42.2,98.048" transform="translate(216.366 77.652)" opacity="0.1" style="isolation: isolate"/>
    <path id="Path_855" data-name="Path 855" d="M36.289,94.461s-6.4,5.21-8.315,5.674-3.115,4.529-3.115,4.529" transform="translate(171.015 44.235)" opacity="0.1" style="isolation: isolate"/>
    <path id="Path_856" data-name="Path 856" d="M57.423,128.407l-2.063,5.529s-3.054,2.651-6.417,1.31c-3.363-1.31-6.272-1.96-7.727-3.229-1.465-1.29-3.508-7.686-3.508-7.686s-2.053-7.025-4.106-8.769c-2.032-1.764-7.428-25.883,0-23.541,7.459,2.352,13.163,24.253,13.163,24.253a5.136,5.136,0,0,0,3.208,1.774c1.888.134,5.695-.289,6.427,1.3C57.114,120.979,59.6,125.209,57.423,128.407Z" transform="translate(217.07 20.018)" fill="url(#linear-gradient-6)"/>
    <path id="Path_857" data-name="Path 857" d="M32.133,94.667s4.178,2.682,4.168,5.891" transform="translate(238.781 46.154)" opacity="0.1" style="isolation: isolate"/>
    <path id="Path_858" data-name="Path 858" d="M46.356,83.317A19.559,19.559,0,1,1,26.8,102.876,19.577,19.577,0,0,1,46.356,83.317Z" transform="translate(189.061 -59.584)" fill="url(#linear-gradient-7)"/>
    <path id="Path_859" data-name="Path 859" d="M36.254,103.333c2.352-.382,4.436-1.764,6.736-2.558,5.055-1.764,10.677-.536,15.815,1.063a21.206,21.206,0,0,0,6.035,1.3,6.083,6.083,0,0,0,5.313-2.62,6.013,6.013,0,0,0-.031-5.5,15.181,15.181,0,0,0-3.569-4.405c-4.56-4.312-10.2-8.335-16.454-7.871a22.315,22.315,0,0,0-7.242,2.084,74.313,74.313,0,0,0-8.5,4.261c-2.084,1.207-5.994,2.847-7.2,5.076C24.391,99.207,31.953,104.014,36.254,103.333Z" transform="translate(186.885 -65.281)" fill="#3e373a"/>
    <path id="Path_860" data-name="Path 860" d="M70.15,87.395a6.107,6.107,0,0,1-5.313,2.62,21.122,21.122,0,0,1-6.056-1.29c-5.117-1.609-10.739-2.837-15.815-1.052-2.28.774-4.364,2.208-6.716,2.527-3.466.547-9.027-2.465-9.635-6.282-.7,4.415,5.767,8.222,9.635,7.6,2.352-.351,4.436-1.764,6.716-2.538,5.076-1.754,10.7-.557,15.815,1.052a20.149,20.149,0,0,0,6.056,1.3,6.231,6.231,0,0,0,5.313-2.651,5.06,5.06,0,0,0,.619-3.2A4.944,4.944,0,0,1,70.15,87.395Z" transform="translate(186.889 -53.985)" opacity="0.1" style="isolation: isolate"/>
    <path id="Path_861" data-name="Path 861" d="M70.023,111.024c15.01,0,27.163,1.847,27.163,4.178,0,2.28-12.153,4.157-27.163,4.157-14.979,0-27.142-1.878-27.142-4.157C42.881,112.871,55.044,111.024,70.023,111.024Z" transform="translate(338.912 198.539)" fill="#00909e" opacity="0.1" style="isolation: isolate"/>
    <g id="Group_496" data-name="Group 496" transform="translate(395.167 270.485)">
      <path id="Path_862" data-name="Path 862" d="M52.51,107.236s2.579,3.384-1.166,8.4c-3.745,5.055-6.819,9.326-5.581,12.462,0,0,5.633-9.367,10.234-9.47C60.6,118.491,57.565,112.889,52.51,107.236Z" transform="translate(-31.995 -107.236)" fill="#00b4d8"/>
      <path id="Path_863" data-name="Path 863" d="M52.38,107.236a3.884,3.884,0,0,1,.526,1.083c4.488,5.261,6.871,10.172,2.558,10.275-4,.134-8.82,7.283-9.965,9.089a2.757,2.757,0,0,0,.134.413c.072.206,5.633-9.336,10.234-9.47S57.435,112.889,52.38,107.236Z" transform="translate(-31.865 -107.236)" opacity="0.1" style="isolation: isolate"/>
      <path id="Path_864" data-name="Path 864" d="M47.158,108.3c0,1.2-.124,2.156-.279,2.156-.175,0-.309-.959-.309-2.156,0-1.155.175-.578.33-.578C47.086,107.722,47.158,107.145,47.158,108.3Z" transform="translate(-21.887 -104.05)" fill="url(#linear-gradient-8)"/>
      <path id="Path_865" data-name="Path 865" d="M48.608,108.524c-1.042.557-1.939.908-2.012.743-.083-.124.7-.691,1.733-1.269s.619-.155.712,0C49.1,108.153,49.65,107.936,48.608,108.524Z" transform="translate(-21.697 -102.84)" fill="url(#linear-gradient-9)"/>
      <path id="Path_866" data-name="Path 866" d="M50.039,107.236s-2.558,3.384,1.2,8.4c3.724,5.055,6.809,9.326,5.55,12.462,0,0-5.643-9.367-10.223-9.47C41.982,118.491,44.984,112.889,50.039,107.236Z" transform="translate(-43.017 -107.236)" fill="#00b4d8"/>
      <path id="Path_867" data-name="Path 867" d="M50.039,107.236a4.107,4.107,0,0,0-.506,1.083c-4.5,5.261-6.871,10.172-2.579,10.275,4,.134,8.82,7.283,9.976,9.089-.052.134-.082.289-.144.413-.072.206-5.643-9.336-10.223-9.47S44.984,112.889,50.039,107.236Z" transform="translate(-43.017 -107.236)" opacity="0.1" style="isolation: isolate"/>
      <path id="Path_868" data-name="Path 868" d="M44.4,108.3c0,1.2.113,2.156.279,2.156s.31-.959.31-2.156c0-1.155-.165-.578-.34-.578C44.491,107.722,44.4,107.145,44.4,108.3Z" transform="translate(-42.122 -104.05)" fill="url(#linear-gradient-10)"/>
      <path id="Path_869" data-name="Path 869" d="M44.813,108.524c1.042.557,1.939.908,2.012.743.072-.124-.7-.691-1.723-1.269s-.629-.155-.722,0C44.318,108.153,43.761,107.936,44.813,108.524Z" transform="translate(-44.177 -102.84)" fill="url(#linear-gradient-11)"/>
      <path id="Path_870" data-name="Path 870" d="M71.7,110.208l-.124,1.073-.175,1.465-.072.639-.175,1.444-.083.619-.175,1.465-2.074,16.795c-.165,1.485-2.61,2.651-5.56,2.651H52.642c-2.961,0-5.406-1.166-5.581-2.651l-2.053-16.795-.165-1.465-.083-.619-.186-1.444-.083-.639-.175-1.465-.134-1.073c-.093-.846,1.207-1.537,2.889-1.537H68.817C70.5,108.671,71.809,109.362,71.7,110.208Z" transform="translate(-44.176 -93.867)" fill="#023e8a"/>
      <path id="Path_871" data-name="Path 871" d="M71.458,108.924l-.187,1.431h-26.9l-.182-1.431Z" transform="translate(-44.051 -91.512)" fill="#ade8f4"/>
      <path id="Path_872" data-name="Path 872" d="M70.964,109.124l-.171,1.481H44.4l-.187-1.481Z" transform="translate(-43.819 -89.647)" fill="#ade8f4"/>
      <path id="Path_873" data-name="Path 873" d="M70.48,109.327l-.2,1.471H44.4l-.161-1.471Z" transform="translate(-43.574 -87.755)" fill="#ade8f4"/>
    </g>
  </g>
</svg>
