<svg xmlns="http://www.w3.org/2000/svg" xmlns:xlink="http://www.w3.org/1999/xlink" width="474.7" height="308.186" viewBox="0 0 474.7 308.186">
  <defs>
    <linearGradient id="linear-gradient" x1="-789.996" y1="-167.151" x2="-791.525" y2="-165.656" gradientUnits="objectBoundingBox">
      <stop offset="0" stop-color="#e1473d"/>
      <stop offset="1" stop-color="#e9605a"/>
    </linearGradient>
    <linearGradient id="linear-gradient-2" x1="-822.502" y1="-171.589" x2="-824.571" y2="-168.486" xlink:href="#linear-gradient"/>
    <linearGradient id="linear-gradient-3" x1="-789.974" y1="-160.663" x2="-791.505" y2="-159.17" xlink:href="#linear-gradient"/>
    <linearGradient id="linear-gradient-4" x1="-822.482" y1="-164.917" x2="-824.558" y2="-161.812" xlink:href="#linear-gradient"/>
    <linearGradient id="linear-gradient-5" x1="-789.955" y1="-154.212" x2="-791.485" y2="-152.724" xlink:href="#linear-gradient"/>
    <linearGradient id="linear-gradient-6" x1="-822.462" y1="-159.855" x2="-824.53" y2="-156.739" xlink:href="#linear-gradient"/>
    <linearGradient id="linear-gradient-7" x1="9326.06" y1="0.5" x2="9327.06" y2="0.5" gradientUnits="objectBoundingBox">
      <stop offset="0" stop-color="#09005d"/>
      <stop offset="1" stop-color="#1a0f91"/>
    </linearGradient>
    <linearGradient id="linear-gradient-8" x1="22822.436" y1="0.5" x2="22823.436" y2="0.5" gradientUnits="objectBoundingBox">
      <stop offset="0" stop-color="#ff928e"/>
      <stop offset="1" stop-color="#feb3b1"/>
    </linearGradient>
    <linearGradient id="linear-gradient-9" x1="5943.284" y1="0.499" x2="5944.284" y2="0.499" xlink:href="#linear-gradient-7"/>
    <linearGradient id="linear-gradient-10" x1="23197.654" y1="0.5" x2="23198.654" y2="0.5" xlink:href="#linear-gradient-8"/>
    <linearGradient id="linear-gradient-11" x1="3390.654" y1="0.5" x2="3391.654" y2="0.5" xlink:href="#linear-gradient-7"/>
    <linearGradient id="linear-gradient-12" x1="5.749" y1="-2.34" x2="1.941" y2="-0.279" xlink:href="#linear-gradient-7"/>
    <linearGradient id="linear-gradient-13" x1="6227.751" y1="0.5" x2="6228.751" y2="0.5" xlink:href="#linear-gradient-8"/>
    <linearGradient id="linear-gradient-14" x1="4855.102" y1="-1.535" x2="4852.653" y2="1.575" xlink:href="#linear-gradient-8"/>
    <linearGradient id="linear-gradient-15" x1="5708.488" y1="-887.386" x2="5706.458" y2="-883.436" xlink:href="#linear-gradient-8"/>
    <linearGradient id="linear-gradient-16" x1="7893.774" y1="-1.14" x2="7891.123" y2="2.808" xlink:href="#linear-gradient-8"/>
    <linearGradient id="linear-gradient-17" x1="6033.907" y1="6478.605" x2="6032.69" y2="6479.9" xlink:href="#linear-gradient-8"/>
    <linearGradient id="linear-gradient-18" x1="-2045.214" y1="0.25" x2="-2044.151" y2="1.688" xlink:href="#linear-gradient-7"/>
    <linearGradient id="linear-gradient-19" x1="16826.164" y1="20429.951" x2="16828.877" y2="20427.418" xlink:href="#linear-gradient-8"/>
    <linearGradient id="linear-gradient-20" x1="-714.921" y1="-17.4" x2="-715.332" y2="-16.283" xlink:href="#linear-gradient-7"/>
    <linearGradient id="linear-gradient-21" x1="-1990.346" y1="-26.142" x2="-1989.214" y2="-26.142" xlink:href="#linear-gradient-8"/>
    <linearGradient id="linear-gradient-22" x1="0.367" y1="-0.166" x2="0.636" y2="0.945" xlink:href="#linear-gradient-7"/>
    <linearGradient id="linear-gradient-23" x1="0.5" y1="-3.05" x2="0.5" y2="-1.839" xlink:href="#linear-gradient-7"/>
    <linearGradient id="linear-gradient-24" x1="0.564" y1="-0.402" x2="0.115" y2="4.875" gradientUnits="objectBoundingBox">
      <stop offset="0" stop-color="#4042e2"/>
      <stop offset="1" stop-color="#4f52ff"/>
    </linearGradient>
    <linearGradient id="linear-gradient-25" x1="-1683.482" y1="-27.61" x2="-1682.581" y2="-27.61" xlink:href="#linear-gradient-8"/>
    <linearGradient id="linear-gradient-26" x1="0.558" y1="-0.171" x2="0.536" y2="0.099" xlink:href="#linear-gradient-7"/>
    <linearGradient id="linear-gradient-27" x1="-530.201" y1="-13.011" x2="-529.207" y2="-13.011" xlink:href="#linear-gradient-8"/>
    <linearGradient id="linear-gradient-28" x1="0.491" y1="0.334" x2="0.785" y2="1.796" xlink:href="#linear-gradient-8"/>
    <linearGradient id="linear-gradient-29" x1="0.753" y1="-1.075" x2="0.592" y2="0.108" xlink:href="#linear-gradient-8"/>
    <linearGradient id="linear-gradient-30" x1="-622.036" y1="-1068.067" x2="-621.132" y2="-1069.22" xlink:href="#linear-gradient-8"/>
    <linearGradient id="linear-gradient-31" x1="-673.865" y1="-1076.345" x2="-672.589" y2="-1076.345" xlink:href="#linear-gradient-7"/>
    <linearGradient id="linear-gradient-32" x1="-1945.813" y1="-3979.245" x2="-1942.995" y2="-3983.53" xlink:href="#linear-gradient-8"/>
    <linearGradient id="linear-gradient-33" x1="3596.878" y1="2749.175" x2="3596.139" y2="2751.591" xlink:href="#linear-gradient-7"/>
    <linearGradient id="linear-gradient-34" x1="0.266" y1="0.973" x2="0.586" y2="0.36" xlink:href="#linear-gradient-7"/>
    <linearGradient id="linear-gradient-35" y1="0.5" x2="1" y2="0.5" gradientUnits="objectBoundingBox">
      <stop offset="0" stop-color="#dae3fe"/>
      <stop offset="1" stop-color="#e9effd"/>
    </linearGradient>
    <linearGradient id="linear-gradient-36" x1="-215.01" y1="1.147" x2="-213.732" y2="-0.094" xlink:href="#linear-gradient-7"/>
    <linearGradient id="linear-gradient-37" x1="-196.371" y1="28.151" x2="-198.397" y2="27.128" xlink:href="#linear-gradient-8"/>
    <linearGradient id="linear-gradient-38" x1="-1363.957" y1="-6.77" x2="-1364.174" y2="-4.853" xlink:href="#linear-gradient-7"/>
    <linearGradient id="linear-gradient-39" x1="-982.241" y1="1.602" x2="-981.205" y2="-1.187" xlink:href="#linear-gradient-8"/>
    <linearGradient id="linear-gradient-40" x1="-841.949" y1="-5.628" x2="-842.083" y2="-4.058" xlink:href="#linear-gradient-7"/>
    <linearGradient id="linear-gradient-41" x1="-439.231" y1="1.698" x2="-438.767" y2="-1.193" xlink:href="#linear-gradient-8"/>
    <linearGradient id="linear-gradient-42" x1="0.457" y1="-0.44" x2="0.541" y2="1.538" xlink:href="#linear-gradient-8"/>
    <linearGradient id="linear-gradient-43" x1="-758.862" y1="0.5" x2="-757.862" y2="0.5" xlink:href="#linear-gradient-8"/>
    <linearGradient id="linear-gradient-44" x1="-842.38" y1="-6.367" x2="-843.22" y2="-4.534" xlink:href="#linear-gradient-8"/>
    <linearGradient id="linear-gradient-45" x1="-1025.669" y1="5.369" x2="-1019.58" y2="-0.723" xlink:href="#linear-gradient-7"/>
    <linearGradient id="linear-gradient-46" x1="-3071.393" y1="-21.587" x2="-3074.456" y2="-15.689" xlink:href="#linear-gradient-8"/>
    <linearGradient id="linear-gradient-47" x1="-557.014" y1="78.234" x2="-562.77" y2="75.378" xlink:href="#linear-gradient-8"/>
    <linearGradient id="linear-gradient-48" x1="1.683" y1="-1.315" x2="-1.781" y2="3.458" xlink:href="#linear-gradient-8"/>
  </defs>
  <g id="Group_534" data-name="Group 534" transform="translate(0 0)">
    <path id="Path_874" data-name="Path 874" d="M623.347,227c-9.512-16.465-10.3-30.629-5.375-48.579,5.436-19.859,10.687-45.257-2.342-63.31-11.471-15.9-29.453-27.183-48.806-31.351-24.511-5.292-45.051,3.26-64.7,17.434-27,19.477-73.668,35.322-106.917,26.719-29.071-7.489-50.539-32.558-81.168-37.448-21.117-3.343-52.592,2.012-59.39,25.44-1.805,6.117-1.682,12.833-4.58,18.548-8.243,16.32-31.826,11.214-46.629,15-33.94,8.583-43.524,41.275-30.6,70.954,10.089,23.16,15.98,42.554,10.646,68.2-2.971,14.185-9.047,27.668-7.51,42.5,1.485,13.751,9.037,24.553,21.757,30.557,26.6,12.565,62.444,7.417,90.607,3.848,16.753-2.166,33.259-5.519,49.827-8.7,39.79-7.6,74.05-32.341,114.541-37.633,16.62-2.218,34.322-.836,49.559,6.437,14.566,6.912,26.482,19.394,42.472,23.4,9.831,2.424,20.147,1.289,30.144-.113,17.837-2.527,36.777-6.52,49.239-19.281,8.965-9.192,13.36-21.808,16.052-34.27C646.125,267.676,636.881,250.417,623.347,227Z" transform="translate(-167.313 -82.18)" fill="#e4f6f9"/>
    <g id="Group_511" data-name="Group 511" transform="translate(8.623 31.067)">
      <g id="Group_501" data-name="Group 501">
        <g id="Group_500" data-name="Group 500" transform="translate(19.989)">
          <path id="Path_875" data-name="Path 875" d="M568.086,324.492a7.056,7.056,0,0,1-7.056,7H180.3a7.054,7.054,0,0,1-7.046-7l-3.167-218.805c0-3.858,4.56-11.41,12.926-10.873L555.1,85.2a17.7,17.7,0,0,1,18.218,18.125Z" transform="translate(-170.087 -85.191)" fill="#03045e"/>
          <path id="Path_876" data-name="Path 876" d="M552.349,310.16a6.672,6.672,0,0,1-6.644,6.674H180.7a6.672,6.672,0,0,1-6.675-6.674l-2.992-198.617c.361-11.946,10.842-16.238,17.2-15.99L544.849,86.01a12.415,12.415,0,0,1,12.792,12.73Z" transform="translate(-161.292 -77.647)" fill="#0096c7"/>
          <g id="Group_498" data-name="Group 498" transform="translate(14.752 19.182)">
            <path id="Path_877" data-name="Path 877" d="M172.279,113.907a.453.453,0,0,1-.423-.454L171.64,97.36a.45.45,0,0,1,.423-.474.518.518,0,0,1,.464.474l.227,16.093a.452.452,0,0,1-.454.454Z" transform="translate(-170.371 4.567)" fill="#03045e"/>
            <path id="Path_878" data-name="Path 878" d="M172.848,166.014a.423.423,0,0,1-.444-.423l-.887-61.711a13.1,13.1,0,0,1,3.714-9.707c4.519-4.3,11.544-4.054,11.853-4.054l113.891-3.064a.42.42,0,0,1,.475.423.5.5,0,0,1-.444.475L187.084,91c-.33-.031-6.994-.247-11.214,3.807a12.156,12.156,0,0,0-3.466,9.068l.908,61.711a.442.442,0,0,1-.464.423Z" transform="translate(-171.517 -87.051)" fill="#03045e"/>
          </g>
          <g id="Group_499" data-name="Group 499" transform="translate(28.088 23.274)">
            <path id="Path_879" data-name="Path 879" d="M173.535,285.668c.392-16.413.217-161.778-.691-174.333-.959-12.545,18.611-14.907,48.631-16.32s283.324-7,289.854-7.52c14.67-1.217,17.682,20.715,16.217,68.272-1.083,35.745-2.9,94.6-3.734,121.679a15,15,0,0,1-14.938,14.5c-60.958.144-294.579.815-310.126,1.29C180.838,293.767,173.39,292.188,173.535,285.668Z" transform="translate(-172.81 -87.447)" fill="#48cae4"/>
          </g>
        </g>
        <path id="Rectangle_177" data-name="Rectangle 177" d="M.158,0H448.717a.159.159,0,0,1,.159.159V19.034a.158.158,0,0,1-.158.158H.158A.158.158,0,0,1,0,19.034V.158A.158.158,0,0,1,.158,0Z" transform="translate(0 245.262)" fill="#03045e"/>
      </g>
      <g id="Group_502" data-name="Group 502" transform="translate(83.709 108.875)">
        <rect id="Rectangle_178" data-name="Rectangle 178" width="14.496" height="65.755" transform="translate(0 53.223)" fill="#ade8f4"/>
        <rect id="Rectangle_179" data-name="Rectangle 179" width="14.527" height="43.138" transform="translate(24.269 75.84)" fill="#ade8f4"/>
        <rect id="Rectangle_180" data-name="Rectangle 180" width="14.507" height="98.95" transform="translate(48.539 20.028)" fill="#ade8f4"/>
        <rect id="Rectangle_181" data-name="Rectangle 181" width="14.517" height="23.785" transform="translate(72.818 95.193)" fill="#ade8f4"/>
        <rect id="Rectangle_182" data-name="Rectangle 182" width="14.517" height="85.743" transform="translate(97.067 33.235)" fill="#ade8f4"/>
        <rect id="Rectangle_183" data-name="Rectangle 183" width="14.517" height="70.903" transform="translate(121.336 48.075)" fill="#ade8f4"/>
        <rect id="Rectangle_184" data-name="Rectangle 184" width="14.527" height="54.764" transform="translate(145.605 64.214)" fill="#ade8f4"/>
        <rect id="Rectangle_185" data-name="Rectangle 185" width="14.518" height="118.978" transform="translate(169.884)" fill="#ade8f4"/>
        <rect id="Rectangle_186" data-name="Rectangle 186" width="14.518" height="106.365" transform="translate(194.134 12.613)" fill="#ade8f4"/>
        <rect id="Rectangle_187" data-name="Rectangle 187" width="14.508" height="87.345" transform="translate(218.413 31.633)" fill="#ade8f4"/>
        <rect id="Rectangle_188" data-name="Rectangle 188" width="14.487" height="21.569" transform="translate(242.702 97.409)" fill="#ade8f4"/>
        <rect id="Rectangle_189" data-name="Rectangle 189" width="14.528" height="63.489" transform="translate(266.941 55.49)" fill="#ade8f4"/>
      </g>
      <g id="Group_505" data-name="Group 505" transform="translate(290.476 31.348)">
        <path id="Path_880" data-name="Path 880" d="M226.245,103.188A14.969,14.969,0,1,1,211.286,88.23,14.947,14.947,0,0,1,226.245,103.188Z" transform="translate(-196.303 -88.23)" fill="#0096c7"/>
        <path id="Path_881" data-name="Path 881" d="M229.885,103.188A14.984,14.984,0,1,1,214.9,88.23,14.974,14.974,0,0,1,229.885,103.188Z" transform="translate(-162.681 -88.23)" fill="#0096c7"/>
        <path id="Path_882" data-name="Path 882" d="M233.5,103.263a14.989,14.989,0,1,1-14.989-14.989A15,15,0,0,1,233.5,103.263Z" transform="translate(-129.058 -87.82)" fill="#0096c7"/>
        <g id="Group_503" data-name="Group 503" transform="translate(2.924 3.404)">
          <path id="Path_883" data-name="Path 883" d="M217.542,96.937a9.993,9.993,0,0,1,.732,3.662A9.625,9.625,0,1,1,208.65,91a3.809,3.809,0,0,1,.485.021V88.56h-.485A12.055,12.055,0,1,0,220.74,100.6a12.567,12.567,0,0,0-.939-4.622Z" transform="translate(-196.59 -88.56)" fill="#ade8f4"/>
          <path id="Path_884" data-name="Path 884" d="M217.372,108.769a9.823,9.823,0,0,1-5.127,1.486,9.625,9.625,0,0,1,0-19.25,3.417,3.417,0,0,1,.464.021V88.56h-.464a12.054,12.054,0,1,0,0,24.109,11.858,11.858,0,0,0,6.314-1.785Z" transform="translate(-163.098 -88.56)" fill="#ade8f4"/>
          <path id="Path_885" data-name="Path 885" d="M223.83,106.025A9.616,9.616,0,1,1,215.887,91a3.568,3.568,0,0,1,.464.021V88.56h-.464a12.055,12.055,0,1,0,9.9,18.889Z" transform="translate(-129.262 -88.56)" fill="#ade8f4"/>
        </g>
        <g id="Group_504" data-name="Group 504" transform="translate(0 36.292)">
          <path id="Path_886" data-name="Path 886" d="M223.49,91.748H199.082a2.785,2.785,0,0,0-2.775,2.785,2.816,2.816,0,0,0,2.775,2.806H223.49a2.8,2.8,0,0,0,2.754-2.806A2.767,2.767,0,0,0,223.49,91.748Z" transform="translate(-196.303 -91.748)" fill="#ade8f4"/>
          <path id="Path_887" data-name="Path 887" d="M227.13,91.748H202.7a2.787,2.787,0,0,0-2.786,2.785,2.818,2.818,0,0,0,2.786,2.806H227.13a2.819,2.819,0,0,0,2.754-2.806A2.787,2.787,0,0,0,227.13,91.748Z" transform="translate(-162.681 -91.748)" fill="#ade8f4"/>
          <path id="Path_888" data-name="Path 888" d="M206.321,97.339H230.75a2.812,2.812,0,0,0,2.754-2.806,2.78,2.78,0,0,0-2.754-2.785H206.321a2.789,2.789,0,0,0-2.8,2.785A2.82,2.82,0,0,0,206.321,97.339Z" transform="translate(-129.058 -91.748)" fill="#ade8f4"/>
          <path id="Rectangle_190" data-name="Rectangle 190" d="M.269,0h29.4a.27.27,0,0,1,.27.27V21.6a.267.267,0,0,1-.267.267H.267A.267.267,0,0,1,0,21.6V.269A.269.269,0,0,1,.269,0Z" transform="translate(0 8.635)" fill="#ade8f4"/>
          <path id="Rectangle_191" data-name="Rectangle 191" d="M.268,0H29.7a.269.269,0,0,1,.269.269V21.6a.267.267,0,0,1-.267.267H.268A.268.268,0,0,1,0,21.6V.268A.268.268,0,0,1,.268,0Z" transform="translate(37.235 8.635)" fill="#ade8f4"/>
          <path id="Rectangle_192" data-name="Rectangle 192" d="M.269,0H29.7a.271.271,0,0,1,.271.271V21.6a.267.267,0,0,1-.267.267H.267A.267.267,0,0,1,0,21.6V.269A.269.269,0,0,1,.269,0Z" transform="translate(74.471 8.635)" fill="#ade8f4"/>
        </g>
      </g>
      <g id="Group_506" data-name="Group 506" transform="translate(59.519 55.098)">
        <rect id="Rectangle_193" data-name="Rectangle 193" width="62.855" height="8.654" fill="#ade8f4"/>
        <rect id="Rectangle_194" data-name="Rectangle 194" width="62.855" height="5.027" transform="translate(0 12.311)" fill="#ade8f4"/>
        <rect id="Rectangle_195" data-name="Rectangle 195" width="62.855" height="4.996" transform="translate(0 20.965)" fill="#ade8f4"/>
        <rect id="Rectangle_196" data-name="Rectangle 196" width="62.855" height="4.997" transform="translate(0 29.619)" fill="#ade8f4"/>
      </g>
      <g id="Group_510" data-name="Group 510" transform="translate(140.977 57.675)">
        <g id="Group_507" data-name="Group 507" transform="translate(0 25.429)">
          <path id="Path_889" data-name="Path 889" d="M186.035,95.31a2.1,2.1,0,0,0-4.2.031,2.116,2.116,0,0,0,2.135,2.084A2.087,2.087,0,0,0,186.035,95.31Z" transform="translate(-181.619 -93.247)" fill="url(#linear-gradient)"/>
          <path id="Path_890" data-name="Path 890" d="M185.88,95.245a2.017,2.017,0,0,0-4.034.031,2.017,2.017,0,1,0,4.034-.031Z" transform="translate(-181.536 -93.182)" fill="url(#linear-gradient-2)"/>
          <path id="Path_891" data-name="Path 891" d="M182.29,94.552a.478.478,0,0,1-.444-.382c-.01-.093-.031-.165-.031-.237a.482.482,0,0,1,.413-.516.46.46,0,0,1,.5.444l.021.155a.453.453,0,0,1-.351.536Z" transform="translate(-181.815 -91.663)" fill="#fff"/>
          <path id="Path_892" data-name="Path 892" d="M183.937,95.41a2.343,2.343,0,0,1-2.063-1.259.471.471,0,0,1,.217-.609.412.412,0,0,1,.588.2,1.42,1.42,0,0,0,1.29.763h.248a.417.417,0,0,1,.536.361.46.46,0,0,1-.361.526,2.618,2.618,0,0,1-.4.021Z" transform="translate(-181.636 -91.005)" fill="#fff"/>
        </g>
        <g id="Group_508" data-name="Group 508" transform="translate(0 12.73)">
          <path id="Path_893" data-name="Path 893" d="M186.035,94.08a2.055,2.055,0,0,0-2.115-2.063,2.076,2.076,0,0,0-2.084,2.074,2.135,2.135,0,0,0,2.135,2.115A2.1,2.1,0,0,0,186.035,94.08Z" transform="translate(-181.619 -92.016)" fill="url(#linear-gradient-3)"/>
          <path id="Path_894" data-name="Path 894" d="M185.88,94.033a2.014,2.014,0,0,0-2.042-2.012,1.961,1.961,0,0,0-1.991,2.022,2.017,2.017,0,1,0,4.034-.01Z" transform="translate(-181.536 -91.969)" fill="url(#linear-gradient-4)"/>
          <path id="Path_895" data-name="Path 895" d="M182.29,93.309a.49.49,0,0,1-.444-.382,2.133,2.133,0,0,1-.031-.268.462.462,0,0,1,.413-.475.452.452,0,0,1,.5.433l.021.175a.432.432,0,0,1-.351.516Z" transform="translate(-181.815 -90.441)" fill="#fff"/>
          <path id="Path_896" data-name="Path 896" d="M183.937,94.215a2.394,2.394,0,0,1-2.063-1.29.474.474,0,0,1,.217-.609.405.405,0,0,1,.588.175,1.451,1.451,0,0,0,1.29.815c.1,0,.175-.041.248-.041a.449.449,0,0,1,.536.371.461.461,0,0,1-.361.516c-.124.01-.279.062-.4.062Z" transform="translate(-181.636 -89.79)" fill="#fff"/>
        </g>
        <g id="Group_509" data-name="Group 509">
          <path id="Path_897" data-name="Path 897" d="M186.035,92.856a2.1,2.1,0,0,0-4.2.01,2.129,2.129,0,0,0,2.135,2.115A2.1,2.1,0,0,0,186.035,92.856Z" transform="translate(-181.619 -90.782)" fill="url(#linear-gradient-5)"/>
          <path id="Path_898" data-name="Path 898" d="M185.88,92.8a2.021,2.021,0,0,0-2.042-2.012A2.022,2.022,0,1,0,185.88,92.8Z" transform="translate(-181.536 -90.726)" fill="url(#linear-gradient-6)"/>
          <path id="Path_899" data-name="Path 899" d="M182.29,92.067a.471.471,0,0,1-.444-.351,2.944,2.944,0,0,1-.031-.3.452.452,0,0,1,.413-.464.444.444,0,0,1,.5.423l.021.2a.438.438,0,0,1-.351.5Z" transform="translate(-181.815 -89.189)" fill="#fff"/>
          <path id="Path_900" data-name="Path 900" d="M183.937,92.985a2.374,2.374,0,0,1-2.063-1.29.483.483,0,0,1,.217-.619.408.408,0,0,1,.588.206,1.419,1.419,0,0,0,1.29.763h.248a.43.43,0,0,1,.536.34.434.434,0,0,1-.361.526,1.38,1.38,0,0,1-.4.072Z" transform="translate(-181.636 -88.549)" fill="#fff"/>
        </g>
        <path id="Path_901" data-name="Path 901" d="M182.554,95.435l.031-.351c.031-1,.619-1.754,1.382-1.754l56.193-.082c.732-.01,1.351.825,1.351,1.805h0a1.656,1.656,0,0,1-1.331,1.805L184,97.292C183.163,97.333,182.554,96.456,182.554,95.435Z" transform="translate(-174.93 -67.808)" fill="#ade8f4"/>
        <path id="Path_902" data-name="Path 902" d="M182.554,94.187l.031-.351c.031-.98.619-1.733,1.382-1.733l56.193-.083c.732,0,1.351.815,1.351,1.785h0c0,1-.588,1.805-1.331,1.805L184,96.055C183.163,96.1,182.554,95.25,182.554,94.187Z" transform="translate(-174.93 -79.239)" fill="#ade8f4"/>
        <path id="Path_903" data-name="Path 903" d="M182.554,92.945l.031-.34c.031-.97.619-1.764,1.382-1.764L240.16,90.8c.732-.041,1.351.763,1.351,1.754h0c0,1-.588,1.805-1.331,1.805L184,94.833C183.163,94.833,182.554,93.966,182.554,92.945Z" transform="translate(-174.93 -90.634)" fill="#ade8f4"/>
      </g>
    </g>
    <g id="Group_512" data-name="Group 512" transform="translate(186.729 35.954)">
      <path id="Path_904" data-name="Path 904" d="M221.923,103.925a18.255,18.255,0,1,1-18.239-18.26A18.249,18.249,0,0,1,221.923,103.925Z" transform="translate(-185.414 -85.665)" fill="#03045e"/>
      <path id="Path_905" data-name="Path 905" d="M220.775,103.375a17.651,17.651,0,1,1-17.641-17.651A17.661,17.661,0,0,1,220.775,103.375Z" transform="translate(-184.864 -85.115)" fill="#023e8a"/>
      <path id="Path_906" data-name="Path 906" d="M185.99,95.291l-.113-.01a.231.231,0,0,1-.1-.309,16.5,16.5,0,0,1,14.793-9.14,14.612,14.612,0,0,1,2.982.3.222.222,0,0,1,.2.279.289.289,0,0,1-.3.217,16.946,16.946,0,0,0-2.878-.247,15.921,15.921,0,0,0-14.339,8.82A.262.262,0,0,1,185.99,95.291Z" transform="translate(-182.297 -84.119)" fill="#fff" opacity="0.63"/>
      <path id="Path_907" data-name="Path 907" d="M215.668,100.984A14.948,14.948,0,1,1,200.72,86.026,14.932,14.932,0,0,1,215.668,100.984Z" transform="translate(-182.079 -82.302)" fill="#caf0f8"/>
      <g id="layer1" transform="translate(12.297 11.172)">
        <path id="path4158" d="M193.559,104.316l-6.365-7.964.041-1.589c2.981.217,5.313-.1,5.849-2.93l-6.365-.041,1.031-1.723,5.076.072c-.774-1.609-2.9-1.805-6.221-1.692l1.145-1.682,10.78-.021-1.073,1.671h-2.981a2.984,2.984,0,0,1,.959,1.795l3.095-.031-1.073,1.651-2.053.031c-.32,2.466-2.59,3.93-5.447,4.261l6.406,8.191Z" transform="translate(-186.606 -86.748)" fill="#023e8a"/>
      </g>
    </g>
    <g id="Group_513" data-name="Group 513" transform="translate(184.366 112.685)">
      <path id="Path_908" data-name="Path 908" d="M238.375,119.667A26.6,26.6,0,1,1,211.78,93.1,26.592,26.592,0,0,1,238.375,119.667Z" transform="translate(-185.185 -93.103)" fill="#03045e"/>
      <path id="Path_909" data-name="Path 909" d="M236.678,118.875A25.7,25.7,0,1,1,210.97,93.188,25.7,25.7,0,0,1,236.678,118.875Z" transform="translate(-184.374 -92.311)" fill="#023e8a"/>
      <path id="Path_910" data-name="Path 910" d="M186.047,107.127a.45.45,0,0,1-.176-.062.37.37,0,0,1-.155-.5,23.993,23.993,0,0,1,21.509-13.225,22.557,22.557,0,0,1,4.353.382.348.348,0,0,1,.31.423.381.381,0,0,1-.444.278,23.866,23.866,0,0,0-4.219-.371,23.291,23.291,0,0,0-20.849,12.864A.406.406,0,0,1,186.047,107.127Z" transform="translate(-180.631 -90.848)" fill="#fff" opacity="0.63"/>
      <path id="Path_911" data-name="Path 911" d="M229.213,115.4a21.752,21.752,0,1,1-21.767-21.777A21.76,21.76,0,0,1,229.213,115.4Z" transform="translate(-180.294 -88.259)" fill="#caf0f8"/>
      <g id="layer1-2" data-name="layer1" transform="translate(21.21 19.147)">
        <path id="path4158-2" data-name="path4158" d="M194.194,112.527l-6.365-7.964.041-1.589c2.981.217,5.3-.1,5.849-2.93L187.354,100l1.032-1.723,5.076.072c-.774-1.609-2.909-1.805-6.221-1.692l1.145-1.682,10.77-.021-1.063,1.671h-2.981a2.983,2.983,0,0,1,.959,1.795l3.084-.031-1.063,1.651-2.053.031c-.33,2.466-2.589,3.93-5.457,4.261l6.406,8.191Z" transform="translate(-187.241 -94.959)" fill="#023e8a"/>
      </g>
    </g>
    <g id="Group_514" data-name="Group 514" transform="translate(63.11 20.077)">
      <path id="Path_912" data-name="Path 912" d="M214.624,104.707a20.6,20.6,0,1,1-20.612-20.581A20.635,20.635,0,0,1,214.624,104.707Z" transform="translate(-173.431 -84.126)" fill="#03045e"/>
      <path id="Path_913" data-name="Path 913" d="M213.336,104.092a19.921,19.921,0,1,1-19.921-19.9A19.924,19.924,0,0,1,213.336,104.092Z" transform="translate(-172.835 -83.511)" fill="#023e8a"/>
      <path id="Path_914" data-name="Path 914" d="M174.109,95.019a.23.23,0,0,1-.144-.031.266.266,0,0,1-.124-.371,18.587,18.587,0,0,1,16.681-10.306,20.178,20.178,0,0,1,3.363.32c.144.051.268.2.237.309-.031.206-.175.3-.34.248a18.343,18.343,0,0,0-19.436,9.677A.261.261,0,0,1,174.109,95.019Z" transform="translate(-169.941 -82.403)" fill="#fff" opacity="0.63"/>
      <path id="Path_915" data-name="Path 915" d="M207.528,101.368a16.846,16.846,0,1,1-16.836-16.836A16.876,16.876,0,0,1,207.528,101.368Z" transform="translate(-169.667 -80.344)" fill="#caf0f8"/>
      <g id="layer1-3" data-name="layer1" transform="translate(15.062 12.266)">
        <path id="path4158-3" data-name="path4158" d="M181.834,102.883l-6.365-7.974.041-1.578c2.981.206,5.3-.114,5.849-2.93l-6.376-.041,1.032-1.723,5.076.072c-.763-1.62-2.9-1.805-6.2-1.7l1.124-1.681,10.78-.01-1.073,1.671h-2.982a2.982,2.982,0,0,1,.97,1.785l3.085-.031L185.723,90.4l-2.053.021c-.32,2.476-2.579,3.93-5.437,4.271l6.406,8.191Z" transform="translate(-174.891 -85.315)" fill="#023e8a"/>
      </g>
    </g>
    <g id="Group_520" data-name="Group 520" transform="translate(27.601 47.425)">
      <g id="Group_515" data-name="Group 515" transform="translate(0 139.638)">
        <path id="Path_916" data-name="Path 916" d="M198.976,221.436a1.409,1.409,0,0,1-1.434-1.083L175.156,101.81a1.325,1.325,0,0,1,1.186-1.475A1.41,1.41,0,0,1,178,101.377L200.4,219.91a1.324,1.324,0,0,1-1.186,1.5A.628.628,0,0,1,198.976,221.436Z" transform="translate(-121.996 -100.313)" fill="#030644"/>
        <path id="Path_917" data-name="Path 917" d="M171.423,220.055a.921.921,0,0,1-.289-.031,1.289,1.289,0,0,1-1.114-1.517l26.4-116.985a1.476,1.476,0,0,1,1.692-1.042,1.31,1.31,0,0,1,1.1,1.537l-26.379,117A1.428,1.428,0,0,1,171.423,220.055Z" transform="translate(-169.989 -98.932)" fill="#030644"/>
        <path id="Path_918" data-name="Path 918" d="M211.644,105.6H173.381a1.379,1.379,0,0,1-1.434-1.279,1.357,1.357,0,0,1,1.434-1.269h38.263a1.36,1.36,0,0,1,1.444,1.269A1.382,1.382,0,0,1,211.644,105.6Z" transform="translate(-151.747 -74.804)" fill="#91b3fa"/>
        <path id="Path_919" data-name="Path 919" d="M210.3,105.6H173.419a1.37,1.37,0,0,1-1.4-1.279,1.348,1.348,0,0,1,1.4-1.269H210.3a1.332,1.332,0,0,1,1.393,1.269A1.354,1.354,0,0,1,210.3,105.6Z" transform="translate(-151.105 -74.804)" fill="#030644"/>
        <path id="Path_920" data-name="Path 920" d="M211.644,107.675H173.381a1.34,1.34,0,0,1-1.434-1.29,1.377,1.377,0,0,1,1.434-1.259h38.263a1.38,1.38,0,0,1,1.444,1.259A1.343,1.343,0,0,1,211.644,107.675Z" transform="translate(-151.747 -55.463)" fill="#91b3fa"/>
        <path id="Path_921" data-name="Path 921" d="M219.36,107.675H172.978a1.369,1.369,0,0,1-1.486-1.29,1.407,1.407,0,0,1,1.486-1.259H219.36a1.381,1.381,0,0,1,1.424,1.259A1.343,1.343,0,0,1,219.36,107.675Z" transform="translate(-155.977 -55.463)" fill="#030644"/>
        <path id="Path_922" data-name="Path 922" d="M211.644,109.762H173.381a1.35,1.35,0,0,1-1.434-1.269,1.373,1.373,0,0,1,1.434-1.29h38.263a1.376,1.376,0,0,1,1.444,1.29A1.354,1.354,0,0,1,211.644,109.762Z" transform="translate(-151.747 -36.114)" fill="#91b3fa"/>
        <path id="Path_923" data-name="Path 923" d="M228,109.762H172.493a1.363,1.363,0,0,1-1.455-1.269,1.386,1.386,0,0,1,1.455-1.29H228a1.37,1.37,0,0,1,1.444,1.29A1.347,1.347,0,0,1,228,109.762Z" transform="translate(-160.216 -36.114)" fill="#030644"/>
        <path id="Path_924" data-name="Path 924" d="M235.629,111.83h-63.61a1.351,1.351,0,0,1-1.413-1.279,1.371,1.371,0,0,1,1.413-1.269h63.61a1.381,1.381,0,0,1,1.444,1.269A1.361,1.361,0,0,1,235.629,111.83Z" transform="translate(-164.24 -16.755)" fill="#030644"/>
      </g>
      <g id="Group_517" data-name="Group 517" transform="translate(23.021 46.554)">
        <path id="Path_925" data-name="Path 925" d="M173.511,102.9s-.939,1.455-1.166,5.571a.692.692,0,0,0,.671.743h7.294a.44.44,0,0,0,.413-.588,11.81,11.81,0,0,0-4.6-6.107Z" transform="translate(-171.071 13.333)" fill="url(#linear-gradient-7)"/>
        <path id="Path_926" data-name="Path 926" d="M172.426,102.61l.413,3.5a.647.647,0,0,0,.578.536,4.895,4.895,0,0,0,1.558,0,1.082,1.082,0,0,0,.887-1.042v-3.353Z" transform="translate(-170.306 10.809)" fill="url(#linear-gradient-8)"/>
        <path id="Path_927" data-name="Path 927" d="M175.469,102.52a9.936,9.936,0,0,0-1.393,5.148,1.317,1.317,0,0,0,1.32,1.29h11.337a.577.577,0,0,0,.31-1.032c-2.146-1.486-6.375-4.292-9.419-5.406Z" transform="translate(-154.935 13.333)" fill="url(#linear-gradient-9)"/>
        <path id="Path_928" data-name="Path 928" d="M174.1,103.667l.877,4.271a.869.869,0,0,0,1.011.7,3.575,3.575,0,0,0,1.032-.444,1.035,1.035,0,0,0,.454-1.021L176.542,102Z" transform="translate(-154.739 8.452)" fill="url(#linear-gradient-10)"/>
        <path id="Path_929" data-name="Path 929" d="M175.98,96.393s-3.095,2.692-3.673,5.942c-.547,3.239,1.651,56.048,1.651,56.048s3.053.526,4.653-.433c0,0,1.847-34.3,3.3-42.193,0,0,7.448,35.5,9.522,41.894,0,0,2.93.371,3.91-.206,0,0-1.97-45.989-4.415-54.18Z" transform="translate(-172.221 -43.747)" fill="url(#linear-gradient-11)"/>
        <path id="Path_930" data-name="Path 930" d="M177.172,104.9h.093a.338.338,0,0,0,.227-.444l-1.3-4.983a.322.322,0,0,0-.144-.165l-2.806-1.8a.3.3,0,0,0-.464.083.326.326,0,0,0,.082.454l2.693,1.733,1.289,4.869A.311.311,0,0,0,177.172,104.9Z" transform="translate(-167.573 -34.005)" fill="url(#linear-gradient-12)"/>
        <path id="Path_931" data-name="Path 931" d="M190.214,94.608c-12.885-1.083-16.279,1.6-16.279,1.6l6.2,9.769s12.689-.248,21.778-7.242a22.853,22.853,0,0,1-3.642-5.426A17.266,17.266,0,0,1,190.214,94.608Z" transform="translate(-156.248 -72.487)" fill="#03045e"/>
        <path id="Path_932" data-name="Path 932" d="M188.446,91.945a.411.411,0,0,0-.774-.165L186.063,95.3a3.28,3.28,0,0,0-.3,2.135l.578,2.084a3.621,3.621,0,0,1-.722,2.8,24.272,24.272,0,0,1-9.326,7.252,22.855,22.855,0,0,0,3.642,5.426,22.1,22.1,0,0,0,7.727-10.749,1.68,1.68,0,0,0,1.217-1.723Z" transform="translate(-134.271 -88.744)" fill="url(#linear-gradient-13)"/>
        <path id="Path_933" data-name="Path 933" d="M208.144,101.243c-4.539-4.88-13.184-7.077-18.188-7.964a4.622,4.622,0,0,0-5.148,2.858c-2.239,6.076-8.356,21.819-9.563,24.552-.97,2.218-1.98,4.384-2.62,5.746a1.642,1.642,0,0,0,.743,2.177,119.921,119.921,0,0,0,14.876,5.22,1.067,1.067,0,0,0,1.352-1.021,3.183,3.183,0,0,1,.454-1.682l11.657-19.415c7.232,8.057,13.6,8.8,18.487,7.025a38.171,38.171,0,0,1-1.63-7.613C211.352,109.878,208.144,101.243,208.144,101.243Z" transform="translate(-169.928 -73.469)" fill="#023e8a"/>
        <path id="Path_934" data-name="Path 934" d="M193.09,96.341l-1.774-2.2c-4.23,2.868-11.492,8.707-14.381,8.212a38.171,38.171,0,0,0,1.63,7.613C184.992,107.648,193.09,96.341,193.09,96.341Z" transform="translate(-128.3 -64.699)" fill="url(#linear-gradient-14)"/>
        <path id="Path_935" data-name="Path 935" d="M178.277,96.866l5.7,4.6,7.7.99c-.413-1.083-5.561-3.343-5.561-3.343s-4.1-4.106-5.364-5.034c-1.021-.743-1.96.856-2.28,1.424l-.072.175Z" transform="translate(-115.797 -67.09)" fill="url(#linear-gradient-15)"/>
        <path id="Path_936" data-name="Path 936" d="M178.313,92.335l-3.858,9.429s4.446,3.095,8,2.816l1.939-8.47Z" transform="translate(-151.404 -81.552)" fill="url(#linear-gradient-16)"/>
        <g id="Group_516" data-name="Group 516" transform="translate(23.835)">
          <path id="Path_937" data-name="Path 937" d="M181.6,92.2c.072.155,2.785,9.924,2.785,9.924l-5.622,1.444-3.962-8.893S180.088,90.12,181.6,92.2Z" transform="translate(-171.969 -87.857)" fill="url(#linear-gradient-17)"/>
          <path id="Path_938" data-name="Path 938" d="M179.514,99.432l1.671,4.859a.687.687,0,0,0,.124.165c.227.34,1.093,1.4,2.125.433a6.383,6.383,0,0,1,2.672-1.785.721.721,0,0,1,.815.526,33.774,33.774,0,0,1,.939,4.684.754.754,0,0,1-.588.815,23.772,23.772,0,0,1-5.385.413.717.717,0,0,1-.578-.4c-.547-1.166-2.177-4.735-2.806-5.663-.588-.846-1.97-.8-2.569-.753a.722.722,0,0,1-.516-.2,1.826,1.826,0,0,1-.124-2.95.732.732,0,0,0-.021-1.063,1.857,1.857,0,0,1-.217-2.775,2.56,2.56,0,0,1,3.105-.753.723.723,0,0,0,.877-.31.574.574,0,0,1,.578-.289.7.7,0,0,0,.794-.7,2.087,2.087,0,0,1,1.64-2.249c2.466-.763,3.993,1.6,4.127,3.394.155,1.774-2.538,2.445-4.158,2.311-1.217-.072-2.094,1.114-2.445,1.692A.574.574,0,0,0,179.514,99.432Z" transform="translate(-174.531 -91.29)" fill="url(#linear-gradient-18)"/>
          <path id="Path_939" data-name="Path 939" d="M178.08,95.585s-.382-3.095-1.671-3.239c-1.259-.165-2.507.9-1.228,2.62C176.77,97.1,178.08,95.585,178.08,95.585Z" transform="translate(-173.478 -81.604)" fill="url(#linear-gradient-19)"/>
        </g>
      </g>
      <g id="Group_519" data-name="Group 519" transform="translate(73.844)">
        <path id="Path_940" data-name="Path 940" d="M261.8,129.094a42.327,42.327,0,1,1-42.317-42.317A42.317,42.317,0,0,1,261.8,129.094Z" transform="translate(-177.147 -86.777)" fill="#03045e"/>
        <path id="Path_941" data-name="Path 941" d="M259.111,127.827a40.914,40.914,0,1,1-40.893-40.914A40.943,40.943,0,0,1,259.111,127.827Z" transform="translate(-175.88 -85.51)" fill="#023e8a"/>
        <path id="Path_942" data-name="Path 942" d="M178.374,108.829a.324.324,0,0,1-.206-.052.469.469,0,0,1-.2-.6,38.072,38.072,0,0,1,34.157-21,38.935,38.935,0,0,1,6.871.6.476.476,0,0,1,.371.526.415.415,0,0,1-.516.361,39.648,39.648,0,0,0-6.726-.578,37.2,37.2,0,0,0-33.352,20.509A.4.4,0,0,1,178.374,108.829Z" transform="translate(-169.791 -83.069)" fill="#fff" opacity="0.63"/>
        <path id="Path_943" data-name="Path 943" d="M247.242,122.268a34.631,34.631,0,1,1-34.621-34.662A34.649,34.649,0,0,1,247.242,122.268Z" transform="translate(-169.396 -79.054)" fill="#caf0f8"/>
        <g id="Group_518" data-name="Group 518" transform="translate(34.205 26.356)">
          <path id="Path_944" data-name="Path 944" d="M188.031,112.212c-.722-.031-1.465-.052-2.187-.113a19.128,19.128,0,0,1-2.754-.34,7.134,7.134,0,0,1-1.888-.629,1.687,1.687,0,0,1-.268-.165.7.7,0,0,1-.3-.815,6.513,6.513,0,0,1,1.393-2.95,10.493,10.493,0,0,1,5.695-3.58c.072-.01.1-.041.114-.134.01-1.083.051-2.177.051-3.26,0-.691-.041-1.382-.1-2.063a5.067,5.067,0,0,0-.846-2.249,10,10,0,0,0-1.96-2.156c-.516-.444-1.042-.846-1.537-1.3a6.834,6.834,0,0,1-.67-.753l-.052-.093a.433.433,0,0,1,.186-.66,2.474,2.474,0,0,1,.918-.34,17.414,17.414,0,0,1,2.3-.34,18.383,18.383,0,0,1,2.383-.062,20.575,20.575,0,0,1,3.2.258,5.454,5.454,0,0,1,1.465.371l.227.113c.186.124.227.268.134.516a1.422,1.422,0,0,1-.248.413,12.22,12.22,0,0,1-1.341,1.29c-.671.6-1.341,1.2-1.981,1.836a5.305,5.305,0,0,0-1.32,2.558,6.923,6.923,0,0,0-.186,1.651c-.01,1.042-.021,2.084-.021,3.105l-.031,1.166c0,.082.031.124.1.134.464.144.949.258,1.413.433a10.321,10.321,0,0,1,3.539,2.259,7.466,7.466,0,0,1,1.609,2.1,4.025,4.025,0,0,1,.485,1.929l-.01.124a.633.633,0,0,1-.361.547,7.507,7.507,0,0,1-1.8.66,12.479,12.479,0,0,1-2.62.4c-.815.062-1.63.093-2.445.134Z" transform="translate(-179.062 -81.282)" fill="#023e8a" fill-rule="evenodd"/>
          <path id="Path_945" data-name="Path 945" d="M189.8,93.625c-1.073-.052-2.084-.072-3.085-.144a20.891,20.891,0,0,1-3.992-.629,5.71,5.71,0,0,1-1.774-.732,1.233,1.233,0,0,1-.34-.309.477.477,0,0,1-.01-.681,1.719,1.719,0,0,1,.464-.4,5.551,5.551,0,0,1,1.4-.588,15.715,15.715,0,0,1,2.177-.464c.753-.093,1.547-.186,2.311-.237.98-.072,1.97-.093,2.951-.1.629-.01,1.279.031,1.908.072a23.3,23.3,0,0,1,3.869.547,7.711,7.711,0,0,1,2.1.722,3.2,3.2,0,0,1,.475.361.518.518,0,0,1,.01.825,2.227,2.227,0,0,1-.815.547,8.72,8.72,0,0,1-2.1.64c-.815.144-1.62.289-2.445.371C191.856,93.511,190.793,93.553,189.8,93.625Z" transform="translate(-180.463 -89.332)" fill="#023e8a" fill-rule="evenodd"/>
          <path id="Path_946" data-name="Path 946" d="M181.5,89.828c.268.062.258.062.289.289a11.418,11.418,0,0,0,.99,3.518,8.285,8.285,0,0,0,1.5,2.259,18.116,18.116,0,0,0,1.372,1.29,19.934,19.934,0,0,1,1.816,1.692,7.557,7.557,0,0,1,1.279,1.96,2.547,2.547,0,0,1-.34,2.6,7.233,7.233,0,0,1-1.506,1.465,26.9,26.9,0,0,0-2.269,1.919,8.9,8.9,0,0,0-1.362,1.754,10.885,10.885,0,0,0-1.372,3.807c-.083.547-.124,1.1-.186,1.64a.8.8,0,0,0,.392.774,3.958,3.958,0,0,0,1.2.557,13.864,13.864,0,0,0,2.455.536c.67.083,1.351.155,2.042.186.98.021,1.991.041,2.981,0a22.992,22.992,0,0,0,2.651-.237,10.181,10.181,0,0,0,2.507-.588,6.506,6.506,0,0,0,.9-.433.9.9,0,0,0,.444-.794,7.823,7.823,0,0,0-.32-2.29,11.143,11.143,0,0,0-1.558-3.652,8.823,8.823,0,0,0-1.785-1.929,16.916,16.916,0,0,1-2.012-1.826,15.021,15.021,0,0,1-.959-1.186,2.513,2.513,0,0,1-.382-1.929,4.8,4.8,0,0,1,1.052-2.125,12.3,12.3,0,0,1,1.847-1.743,13.875,13.875,0,0,0,1.7-1.6,10.375,10.375,0,0,0,2.032-4,16.281,16.281,0,0,0,.33-1.8c.01-.134.144-.072.248-.134-.031.227-.052.475-.093.7a10.913,10.913,0,0,1-.485,2.063,11.294,11.294,0,0,1-1.413,2.765,10.271,10.271,0,0,1-1.857,1.929c-.557.464-1.1.928-1.62,1.424a5.274,5.274,0,0,0-1.3,1.847,2.683,2.683,0,0,0-.237,1.331,2.579,2.579,0,0,0,.567,1.413,15.036,15.036,0,0,0,2.424,2.435,9.54,9.54,0,0,1,1.97,2,10.519,10.519,0,0,1,1.444,2.837,16.457,16.457,0,0,1,.588,2.414c.031.134-.01.3.062.423s.248.155.351.237a2.61,2.61,0,0,1,.382.371.729.729,0,0,1-.01,1.052,2.484,2.484,0,0,1-.846.64,8.265,8.265,0,0,1-2.177.763c-.691.134-1.382.279-2.084.371a21.776,21.776,0,0,1-3.074.206c-.877-.01-1.743-.01-2.61-.062-.763-.041-1.485-.134-2.218-.237a13.463,13.463,0,0,1-2.445-.536,5.617,5.617,0,0,1-1.805-.867,1.88,1.88,0,0,1-.351-.351.731.731,0,0,1,0-.928,2.1,2.1,0,0,1,.743-.6.3.3,0,0,0,.144-.248,16.955,16.955,0,0,1,.4-2.115,10.326,10.326,0,0,1,2.063-3.941,8.252,8.252,0,0,1,1.011-.98c.66-.567,1.32-1.1,2-1.651a5.59,5.59,0,0,0,1.4-1.547,2.208,2.208,0,0,0,.165-1.919,6.92,6.92,0,0,0-1.682-2.435c-.629-.6-1.3-1.135-1.95-1.713a9.212,9.212,0,0,1-2-2.455,11.794,11.794,0,0,1-1.3-3.652C181.58,90.478,181.549,90.158,181.5,89.828Z" transform="translate(-180.442 -84.905)" fill="#023e8a" fill-rule="evenodd"/>
          <path id="Path_947" data-name="Path 947" d="M198.436,89.594c0,.34.01.66,0,.99a.625.625,0,0,1-.2.413,3.24,3.24,0,0,1-1.125.65,12.158,12.158,0,0,1-2.548.65c-.835.113-1.661.227-2.5.3a30.929,30.929,0,0,1-3.528.082c-.671-.01-1.362-.052-2.032-.1a26.326,26.326,0,0,1-3.219-.475,9.045,9.045,0,0,1-1.95-.66,3.866,3.866,0,0,1-.671-.464.589.589,0,0,1-.206-.454v-.867c.227.134.464.32.712.454a7.814,7.814,0,0,0,1.96.65c.722.155,1.444.289,2.177.382a31.868,31.868,0,0,0,5.344.227c.959-.052,1.929-.113,2.868-.227a15.489,15.489,0,0,0,3.58-.774A3.613,3.613,0,0,0,198.436,89.594Z" transform="translate(-180.44 -86.89)" fill="#023e8a" fill-rule="evenodd"/>
          <path id="Path_948" data-name="Path 948" d="M180.47,92.288a3.109,3.109,0,0,0,.836.64,8.3,8.3,0,0,0,2.135.784,17.857,17.857,0,0,0,2.466.444c.66.083,1.32.134,1.97.165.691.031,1.382.062,2.074.041.794-.021,1.6-.083,2.4-.144a15.87,15.87,0,0,0,2.486-.361,9.945,9.945,0,0,0,2.693-.887,3.3,3.3,0,0,0,.918-.7v.1c0,.2,0,.4.01.6a1.086,1.086,0,0,1-.454.939,5.175,5.175,0,0,1-1.413.753,15.464,15.464,0,0,1-2.641.66,25.28,25.28,0,0,1-3.064.31,24.468,24.468,0,0,1-3.012-.01c-.567-.031-1.135-.072-1.692-.134a16.5,16.5,0,0,1-3.858-.825,5.472,5.472,0,0,1-1.413-.753,1.113,1.113,0,0,1-.444-.959C180.491,92.742,180.47,92.515,180.47,92.288Z" transform="translate(-180.425 -61.988)" fill="#023e8a" fill-rule="evenodd"/>
        </g>
      </g>
    </g>
    <g id="Group_521" data-name="Group 521" transform="translate(28.374 65.571)">
      <path id="Path_949" data-name="Path 949" d="M201.354,104.411l1.548-.671a.539.539,0,0,0,.278-.712.556.556,0,0,0-.732-.3h-.031l-1.506.671h0a.536.536,0,0,0-.278.7A.545.545,0,0,0,201.354,104.411Z" transform="translate(114.312 43.286)" fill="#fff"/>
      <path id="Path_950" data-name="Path 950" d="M201.891,104.322l1.5-.815a.57.57,0,0,0,.227-.774.61.61,0,0,0-.763-.237h-.031l-1.424.815h0a.556.556,0,0,0-.248.784A.535.535,0,0,0,201.891,104.322Z" transform="translate(118.799 41.002)" fill="#fff"/>
      <path id="Path_951" data-name="Path 951" d="M202.448,104.116l1.382-.887a.641.641,0,0,0,.175-.825.59.59,0,0,0-.8-.144h-.01l-1.372.9v.031a.524.524,0,0,0-.206.743A.594.594,0,0,0,202.448,104.116Z" transform="translate(123.112 38.381)" fill="#fff"/>
      <path id="Path_952" data-name="Path 952" d="M202.927,103.921l1.32-1.042a.575.575,0,1,0-.732-.887h0l-1.32.99V103a.6.6,0,0,0-.093.836A.56.56,0,0,0,202.927,103.921Z" transform="translate(127.213 35.399)" fill="#fff"/>
      <path id="Path_953" data-name="Path 953" d="M203.377,103.645l1.248-1.124a.613.613,0,0,0,.021-.856.572.572,0,0,0-.815-.01H203.8l-1.217,1.083h0a.615.615,0,0,0-.041.856A.55.55,0,0,0,203.377,103.645Z" transform="translate(131.065 32.136)" fill="#fff"/>
      <path id="Path_954" data-name="Path 954" d="M203.828,103.331l1.135-1.207a.576.576,0,0,0-.041-.846.6.6,0,0,0-.836,0h0v.041l-1.135,1.176-.01.041a.571.571,0,0,0,.031.836A.564.564,0,0,0,203.828,103.331Z" transform="translate(134.669 28.582)" fill="#fff"/>
      <path id="Path_955" data-name="Path 955" d="M204.236,103.021l1.062-1.29a.662.662,0,0,0-.083-.887.63.63,0,0,0-.877.072h0l-1.073,1.279v.041a.617.617,0,0,0,.083.856A.632.632,0,0,0,204.236,103.021Z" transform="translate(137.995 24.786)" fill="#fff"/>
      <path id="Path_956" data-name="Path 956" d="M204.594,102.617l.98-1.362a.654.654,0,0,0-.155-.887.7.7,0,0,0-.9.155h0l-.959,1.372h0a.668.668,0,0,0,.155.877A.647.647,0,0,0,204.594,102.617Z" transform="translate(141.052 20.774)" fill="#fff"/>
      <path id="Path_957" data-name="Path 957" d="M204.943,102.218l.846-1.424a.636.636,0,1,0-1.073-.681h0l-.01.031-.836,1.382-.021.031a.635.635,0,0,0,.217.877A.641.641,0,0,0,204.943,102.218Z" transform="translate(143.828 16.542)" fill="#fff"/>
      <path id="Path_958" data-name="Path 958" d="M205.28,101.793l.732-1.516a.639.639,0,1,0-1.135-.588h-.021l-.774,1.5h0a.626.626,0,0,0,.31.846A.673.673,0,0,0,205.28,101.793Z" transform="translate(146.287 12.138)" fill="#fff"/>
      <path id="Path_959" data-name="Path 959" d="M205.512,101.323l.64-1.537a.646.646,0,0,0-.33-.877.616.616,0,0,0-.846.361h-.021l-.65,1.527h0a.668.668,0,0,0,.34.867A.712.712,0,0,0,205.512,101.323Z" transform="translate(148.469 7.585)" fill="#fff"/>
      <path id="Path_960" data-name="Path 960" d="M205.735,100.793l.547-1.547a.658.658,0,1,0-1.238-.444h-.01l-.547,1.558h0a.688.688,0,0,0,.413.856A.667.667,0,0,0,205.735,100.793Z" transform="translate(150.309 2.915)" fill="#fff"/>
      <path id="Path_961" data-name="Path 961" d="M205.944,100.286l.454-1.6a.7.7,0,0,0-.5-.825.717.717,0,0,0-.856.485h0l-.392,1.558v.041a.667.667,0,1,0,1.289.34Z" transform="translate(151.834 -1.89)" fill="#fff"/>
      <path id="Path_962" data-name="Path 962" d="M206.094,99.777l.34-1.651a.668.668,0,0,0-.536-.8.705.705,0,0,0-.825.547h0l-.31,1.63-.01.01a.665.665,0,0,0,.547.8A.7.7,0,0,0,206.094,99.777Z" transform="translate(153.014 -6.777)" fill="#fff"/>
      <path id="Path_963" data-name="Path 963" d="M206.229,99.24l.2-1.651a.727.727,0,0,0-.619-.8.7.7,0,0,0-.774.609h0v.041l-.186,1.62h-.01a.7.7,0,0,0,.619.794A.692.692,0,0,0,206.229,99.24Z" transform="translate(153.849 -11.749)" fill="#fff"/>
      <path id="Path_964" data-name="Path 964" d="M206.3,98.69l.082-1.7a.718.718,0,0,0-1.434-.062v.01h0l-.072,1.651h0a.741.741,0,0,0,.681.763A.732.732,0,0,0,206.3,98.69Z" transform="translate(154.3 -16.738)" fill="#fff"/>
      <path id="Path_965" data-name="Path 965" d="M206.352,98.109l-.041-1.712a.713.713,0,1,0-1.424.062h0v.021l.062,1.63h0a.7.7,0,0,0,1.4,0Z" transform="translate(154.355 -21.749)" fill="#fff"/>
      <path id="Path_966" data-name="Path 966" d="M206.463,97.476l-.2-1.681a.718.718,0,1,0-1.424.186h0v.01l.2,1.63h0a.7.7,0,0,0,.795.65A.706.706,0,0,0,206.463,97.476Z" transform="translate(153.914 -26.718)" fill="#fff"/>
      <path id="Path_967" data-name="Path 967" d="M206.5,96.863l-.309-1.651a.727.727,0,0,0-1.424.3h0l.3,1.6.01.041a.743.743,0,0,0,.836.557A.711.711,0,0,0,206.5,96.863Z" transform="translate(153.094 -31.644)" fill="#fff"/>
      <path id="Path_968" data-name="Path 968" d="M206.51,96.253c-.175-.536-.32-1.083-.475-1.609a.682.682,0,0,0-.908-.475.653.653,0,0,0-.464.877h0c.155.526.32,1.042.433,1.578v.041a.76.76,0,0,0,.908.485A.741.741,0,0,0,206.51,96.253Z" transform="translate(151.855 -36.482)" fill="#fff"/>
      <path id="Path_969" data-name="Path 969" d="M206.443,95.676l-.578-1.568a.712.712,0,0,0-.959-.433.727.727,0,0,0-.423.918h0v.01l.619,1.547h0a.751.751,0,0,0,.949.444A.714.714,0,0,0,206.443,95.676Z" transform="translate(150.2 -41.218)" fill="#fff"/>
      <path id="Path_970" data-name="Path 970" d="M206.351,95.034l-.732-1.5a.734.734,0,0,0-1.321.64h0v.041l.722,1.465h.031a.714.714,0,0,0,.949.361A.784.784,0,0,0,206.351,95.034Z" transform="translate(148.167 -45.795)" fill="#fff"/>
      <path id="Path_971" data-name="Path 971" d="M206.172,94.462l-.846-1.444a.727.727,0,0,0-.98-.279.768.768,0,0,0-.3,1.011h.031l.825,1.444h0a.824.824,0,0,0,1.011.3A.749.749,0,0,0,206.172,94.462Z" transform="translate(145.776 -50.175)" fill="#fff"/>
      <path id="Path_972" data-name="Path 972" d="M205.963,93.89l-.929-1.362a.747.747,0,0,0-1.238.836h.01l.939,1.372h0a.74.74,0,0,0,1.021.217A.781.781,0,0,0,205.963,93.89Z" transform="translate(143.046 -54.379)" fill="#fff"/>
      <path id="Path_973" data-name="Path 973" d="M205.719,93.361l-1.042-1.3a.777.777,0,0,0-1.073-.124A.75.75,0,0,0,203.532,93h0l1.032,1.259.01.031a.73.73,0,0,0,1.032.134A.739.739,0,0,0,205.719,93.361Z" transform="translate(139.999 -58.338)" fill="#fff"/>
      <path id="Path_974" data-name="Path 974" d="M205.441,92.839l-1.166-1.228a.757.757,0,0,0-1.052-.041.729.729,0,0,0-.021,1.052h.01l1.135,1.2h0a.75.75,0,0,0,1.063.041A.738.738,0,0,0,205.441,92.839Z" transform="translate(136.666 -62.066)" fill="#fff"/>
      <path id="Path_975" data-name="Path 975" d="M205.093,92.345,203.865,91.2a.783.783,0,0,0-1.073.031.807.807,0,0,0,.041,1.083h0l1.217,1.094h.021a.71.71,0,0,0,1.083-.031A.725.725,0,0,0,205.093,92.345Z" transform="translate(133.084 -65.564)" fill="#fff"/>
      <path id="Path_976" data-name="Path 976" d="M204.7,91.868l-1.3-1.021a.689.689,0,0,0-1.042.1.728.728,0,0,0,.124,1.042h.021l1.269,1.063h0a.753.753,0,1,0,.928-1.186Z" transform="translate(129.268 -68.801)" fill="#fff"/>
      <path id="Path_977" data-name="Path 977" d="M204.327,91.432l-1.382-.949a.755.755,0,0,0-1.052.165.807.807,0,0,0,.2,1.083h.01l1.351.939h.01a.749.749,0,0,0,1.042-.2A.727.727,0,0,0,204.327,91.432Z" transform="translate(125.226 -71.739)" fill="#fff"/>
      <path id="Path_978" data-name="Path 978" d="M203.882,91.023l-1.413-.867a.832.832,0,0,0-1.073.248.849.849,0,0,0,.279,1.083h.01l1.413.825h0a.755.755,0,1,0,.784-1.29Z" transform="translate(120.987 -74.403)" fill="#fff"/>
      <path id="Path_979" data-name="Path 979" d="M203.444,90.605l-1.506-.7a.719.719,0,0,0-1.021.31.731.731,0,0,0,.34,1.011h.01l1.465.763h.031a.723.723,0,0,0,1-.32A.8.8,0,0,0,203.444,90.605Z" transform="translate(116.576 -76.761)" fill="#fff"/>
      <path id="Path_980" data-name="Path 980" d="M202.953,90.281l-1.558-.629a.73.73,0,0,0-1,.4.832.832,0,0,0,.413,1.042h0l1.516.609.041.031a.769.769,0,0,0,.99-.433A.808.808,0,0,0,202.953,90.281Z" transform="translate(112.023 -78.84)" fill="#fff"/>
      <path id="Path_981" data-name="Path 981" d="M202.461,89.946l-1.62-.505a.736.736,0,0,0-.959.464.767.767,0,0,0,.485,1h.031l1.537.506h.021a.714.714,0,0,0,.959-.433A.8.8,0,0,0,202.461,89.946Z" transform="translate(107.315 -80.548)" fill="#fff"/>
      <path id="Path_982" data-name="Path 982" d="M201.89,89.691l-1.6-.423a.783.783,0,0,0-.939.567.765.765,0,0,0,.557.928h.01l1.589.392V91.2a.8.8,0,0,0,.959-.567A.751.751,0,0,0,201.89,89.691Z" transform="translate(102.511 -81.923)" fill="#fff"/>
      <path id="Path_983" data-name="Path 983" d="M201.376,89.433l-1.661-.289a.8.8,0,0,0-.908.629.782.782,0,0,0,.619.908h.041l1.609.289h0a.767.767,0,0,0,.918-.64A.827.827,0,0,0,201.376,89.433Z" transform="translate(97.609 -82.954)" fill="#fff"/>
      <path id="Path_984" data-name="Path 984" d="M200.792,89.242l-1.671-.175a.78.78,0,0,0-.846.722.744.744,0,0,0,.681.836h.01l1.651.175h.01a.781.781,0,0,0,.856-.722A.789.789,0,0,0,200.792,89.242Z" transform="translate(92.663 -83.599)" fill="#fff"/>
      <path id="Path_985" data-name="Path 985" d="M200.223,89.079l-1.681-.041a.8.8,0,0,0-.815.794.783.783,0,0,0,.784.784h.01l1.651.031h.031a.784.784,0,0,0,.774-.763A.757.757,0,0,0,200.223,89.079Z" transform="translate(87.651 -83.859)" fill="#fff"/>
      <path id="Path_986" data-name="Path 986" d="M199.624,89.049l-1.671.1a.8.8,0,1,0,.083,1.589h0l.021-.021,1.651-.113h.021a.768.768,0,0,0,.712-.836A.747.747,0,0,0,199.624,89.049Z" transform="translate(82.639 -83.788)" fill="#fff"/>
      <path id="Path_987" data-name="Path 987" d="M199,89.1l-1.651.206a.833.833,0,0,0-.691.908.808.808,0,0,0,.908.671h.041l1.589-.227h.031a.832.832,0,0,0,.691-.929A.8.8,0,0,0,199,89.1Z" transform="translate(77.681 -83.327)" fill="#fff"/>
      <path id="Path_988" data-name="Path 988" d="M198.382,89.217l-1.64.33a.8.8,0,0,0,.351,1.568h.031l1.6-.371h.021a.78.78,0,0,0,.588-.918A.766.766,0,0,0,198.382,89.217Z" transform="translate(72.791 -82.491)" fill="#fff"/>
      <path id="Path_989" data-name="Path 989" d="M197.8,89.334l-1.6.485a.8.8,0,1,0,.433,1.537h.052l1.568-.454h0a.843.843,0,0,0,.537-1.042A.855.855,0,0,0,197.8,89.334Z" transform="translate(67.951 -81.297)" fill="#fff"/>
      <path id="Path_990" data-name="Path 990" d="M197.211,89.535l-1.578.588a.79.79,0,0,0-.485,1.011.8.8,0,0,0,1.021.464h.021l1.537-.557.031-.031a.775.775,0,0,0,.454-1.032A.758.758,0,0,0,197.211,89.535Z" transform="translate(63.233 -79.765)" fill="#fff"/>
      <path id="Path_991" data-name="Path 991" d="M196.638,89.749l-1.547.66a.813.813,0,0,0-.423,1.042.874.874,0,0,0,1.073.444h0v-.031l1.5-.691h.031a.778.778,0,1,0-.629-1.424Z" transform="translate(58.606 -77.947)" fill="#fff"/>
      <path id="Path_992" data-name="Path 992" d="M196.06,89.979l-1.465.774a.774.774,0,0,0-.382,1.063.8.8,0,0,0,1.073.382h.01l1.485-.763h.01a.8.8,0,0,0,.371-1.073A.828.828,0,0,0,196.06,89.979Z" transform="translate(54.089 -75.898)" fill="#fff"/>
      <path id="Path_993" data-name="Path 993" d="M195.528,90.234l-1.465.815a.8.8,0,0,0-.31,1.083.823.823,0,0,0,1.1.33h.031l1.413-.794h.041a.825.825,0,0,0-.815-1.434Z" transform="translate(49.69 -73.553)" fill="#fff"/>
      <path id="Path_994" data-name="Path 994" d="M195,90.545l-1.413.825a.825.825,0,0,0,.836,1.424h.021l1.4-.877h0a.861.861,0,0,0,.279-1.166A.844.844,0,0,0,195,90.545Z" transform="translate(45.396 -71.058)" fill="#fff"/>
      <path id="Path_995" data-name="Path 995" d="M194.511,90.832l-1.413.939a.807.807,0,0,0,.9,1.341h0l1.4-.928h.031a.833.833,0,0,0,.206-1.135A.824.824,0,0,0,194.511,90.832Z" transform="translate(41.195 -68.405)" fill="#fff"/>
      <path id="Path_996" data-name="Path 996" d="M194.005,91.161l-1.352.939a.79.79,0,0,0-.186,1.145.813.813,0,0,0,1.155.2h0l1.32-.949h.01a.8.8,0,0,0,.2-1.155A.811.811,0,0,0,194.005,91.161Z" transform="translate(37.079 -65.597)" fill="#fff"/>
      <path id="Path_997" data-name="Path 997" d="M193.562,91.487l-1.362.98a.831.831,0,0,0-.186,1.145.88.88,0,0,0,1.176.2h0l1.31-1h0a.8.8,0,0,0,.2-1.145A.771.771,0,0,0,193.562,91.487Z" transform="translate(33.035 -62.695)" fill="#fff"/>
      <path id="Path_998" data-name="Path 998" d="M193.1,91.791l-1.341,1.032a.841.841,0,0,0-.155,1.155.8.8,0,0,0,1.155.175h0l1.32-1.011v-.021a.792.792,0,0,0,.165-1.135A.8.8,0,0,0,193.1,91.791Z" transform="translate(29.055 -59.718)" fill="#fff"/>
      <path id="Path_999" data-name="Path 999" d="M192.656,92.152l-1.3.98a.884.884,0,0,0-.175,1.217.846.846,0,0,0,1.186.113h0l1.3-1.021a.819.819,0,0,0,.155-1.155A.8.8,0,0,0,192.656,92.152Z" transform="translate(25.09 -56.654)" fill="#fff"/>
      <path id="Path_1000" data-name="Path 1000" d="M192.224,92.484l-1.31,1.042a.854.854,0,0,0-.165,1.166.876.876,0,0,0,1.207.144h0l1.289-1.042a.818.818,0,0,0,.124-1.186A.782.782,0,0,0,192.224,92.484Z" transform="translate(21.167 -53.572)" fill="#fff"/>
      <path id="Path_1001" data-name="Path 1001" d="M191.8,92.812l-1.321,1.011a.871.871,0,0,0,1.073,1.372h0l1.269-1.063a.848.848,0,0,0,.155-1.2A.826.826,0,0,0,191.8,92.812Z" transform="translate(17.249 -50.454)" fill="#fff"/>
      <path id="Path_1002" data-name="Path 1002" d="M191.373,93.144l-1.3,1.021a.84.84,0,1,0,1.052,1.31h0l1.29-1a.841.841,0,0,0,.155-1.2A.851.851,0,0,0,191.373,93.144Z" transform="translate(13.332 -47.341)" fill="#fff"/>
      <path id="Path_1003" data-name="Path 1003" d="M190.96,93.483,189.671,94.5h-.021a.8.8,0,0,0-.113,1.186.783.783,0,0,0,1.155.124h.031l1.289-.99a.866.866,0,0,0,.134-1.207A.82.82,0,0,0,190.96,93.483Z" transform="translate(9.392 -44.255)" fill="#fff"/>
      <path id="Path_1004" data-name="Path 1004" d="M190.541,93.8l-1.3.98h0A.9.9,0,0,0,189.056,96a.858.858,0,0,0,1.186.134h0l1.351-1.011a.822.822,0,0,0,.144-1.155.834.834,0,0,0-1.2-.165Z" transform="translate(5.427 -41.198)" fill="#fff"/>
      <path id="Path_1005" data-name="Path 1005" d="M190.159,94.09l-1.31.99h-.01a.825.825,0,0,0-.206,1.176.9.9,0,0,0,1.217.217h0l1.32-.99a.835.835,0,0,0,.186-1.176.851.851,0,0,0-1.186-.217Z" transform="translate(1.394 -38.218)" fill="#fff"/>
      <path id="Path_1006" data-name="Path 1006" d="M189.755,94.392l-1.341.959h-.021a.85.85,0,1,0,.99,1.382h0l1.362-.939a.815.815,0,0,0,.186-1.176.84.84,0,0,0-1.166-.227Z" transform="translate(-2.69 -35.301)" fill="#fff"/>
      <path id="Path_1007" data-name="Path 1007" d="M189.4,94.7l-1.4.908h0a.851.851,0,0,0-.268,1.2.835.835,0,0,0,1.176.237h0l1.434-.908a.88.88,0,0,0,.247-1.2A.833.833,0,0,0,189.4,94.7Z" transform="translate(-6.871 -32.519)" fill="#fff"/>
      <path id="Path_1008" data-name="Path 1008" d="M188.98,94.979l-1.424.856h-.031a.888.888,0,0,0-.258,1.217.848.848,0,0,0,1.155.279h0l1.465-.867a.888.888,0,0,0,.278-1.186.816.816,0,0,0-1.176-.3Z" transform="translate(-11.117 -29.843)" fill="#fff"/>
      <path id="Path_1009" data-name="Path 1009" d="M188.54,95.209l-1.434.815h-.01a.889.889,0,0,0-.33,1.186.877.877,0,0,0,1.166.361h0l1.475-.794a.918.918,0,0,0,.33-1.207.852.852,0,0,0-1.145-.361Z" transform="translate(-15.464 -27.328)" fill="#fff"/>
      <path id="Path_1010" data-name="Path 1010" d="M188.164,95.452l-1.5.763h0a.865.865,0,1,0,.774,1.547l1.465-.733a.9.9,0,0,0,.4-1.2.852.852,0,0,0-1.145-.382Z" transform="translate(-19.906 -24.982)" fill="#fff"/>
      <path id="Path_1011" data-name="Path 1011" d="M187.738,95.666l-1.527.66h0a.906.906,0,0,0-.454,1.145.894.894,0,0,0,1.176.444l1.5-.722a.805.805,0,0,0,.444-1.083.851.851,0,0,0-1.125-.444h-.01Z" transform="translate(-24.442 -22.782)" fill="#fff"/>
      <path id="Path_1012" data-name="Path 1012" d="M187.289,95.871l-1.527.629h-.041a.857.857,0,0,0-.444,1.135.827.827,0,0,0,1.114.454l1.537-.629a.847.847,0,0,0,.485-1.114.868.868,0,0,0-1.124-.475Z" transform="translate(-29.037 -20.8)" fill="#fff"/>
      <path id="Path_1013" data-name="Path 1013" d="M186.818,96.043l-1.527.588h0a.846.846,0,1,0,.547,1.6l1.589-.537a.88.88,0,1,0-.609-1.651Z" transform="translate(-33.704 -18.982)" fill="#fff"/>
      <path id="Path_1014" data-name="Path 1014" d="M186.353,96.228l-1.578.475h0a.982.982,0,0,0-.557,1.124.834.834,0,0,0,1.083.516l1.609-.485a.848.848,0,0,0,.526-1.083.814.814,0,0,0-1.062-.547h-.021Z" transform="translate(-38.438 -17.33)" fill="#fff"/>
      <path id="Path_1015" data-name="Path 1015" d="M185.912,96.376l-1.6.444h0a.847.847,0,0,0-.609,1.021.884.884,0,0,0,1.063.619l1.589-.475a.832.832,0,0,0-.423-1.609h-.021Z" transform="translate(-43.238 -15.848)" fill="#fff"/>
      <path id="Path_1016" data-name="Path 1016" d="M185.426,96.508l-1.609.413h0a.783.783,0,0,0-.629.98.857.857,0,0,0,1.021.64l1.62-.4a.83.83,0,0,0,.609-1.011.781.781,0,0,0-.98-.619h-.031Z" transform="translate(-48.065 -14.557)" fill="#fff"/>
      <path id="Path_1017" data-name="Path 1017" d="M184.915,96.63l-1.62.309h0a.838.838,0,0,0-.64.99.882.882,0,0,0,.97.681l1.661-.351a.857.857,0,0,0,.639-1,.78.78,0,0,0-.99-.629h-.021Z" transform="translate(-52.939 -13.43)" fill="#fff"/>
      <path id="Path_1018" data-name="Path 1018" d="M184.437,96.747l-1.64.247h0a.839.839,0,0,0,.3,1.651l1.609-.309a.777.777,0,0,0,.691-.929.844.844,0,0,0-.959-.7v.041Z" transform="translate(-57.845 -12.495)" fill="#fff"/>
      <path id="Path_1019" data-name="Path 1019" d="M183.951,96.79l-1.661.186h-.01a.859.859,0,0,0-.691.959.8.8,0,0,0,.929.712l1.65-.227a.77.77,0,0,0,.691-.9.792.792,0,0,0-.908-.732Z" transform="translate(-62.796 -11.713)" fill="#fff"/>
      <path id="Path_1020" data-name="Path 1020" d="M183.462,96.847,181.8,97h0a.826.826,0,0,0-.753.887.8.8,0,0,0,.908.763l1.651-.144a.848.848,0,0,0,.763-.928.86.86,0,0,0-.908-.732Z" transform="translate(-67.775 -11.13)" fill="#fff"/>
      <path id="Path_1021" data-name="Path 1021" d="M182.964,96.89l-1.692.124h0a.8.8,0,0,0-.764.836.832.832,0,0,0,.9.794l1.661-.082a.837.837,0,0,0-.1-1.671Z" transform="translate(-72.765 -10.719)" fill="#fff"/>
      <path id="Path_1022" data-name="Path 1022" d="M182.418,96.916l-1.62.052h-.031a.8.8,0,0,0-.794.846.838.838,0,0,0,.846.784l1.651-.031a.783.783,0,0,0,.795-.825.8.8,0,0,0-.836-.825h-.01Z" transform="translate(-77.749 -10.467)" fill="#fff"/>
      <path id="Path_1023" data-name="Path 1023" d="M181.942,96.952l-1.65-.031h-.01a.829.829,0,0,0-.846.8.856.856,0,0,0,.846.846h1.64a.806.806,0,0,0,.836-.8.791.791,0,0,0-.815-.815Z" transform="translate(-82.761 -10.42)" fill="#fff"/>
      <path id="Path_1024" data-name="Path 1024" d="M181.445,97.009l-1.682-.1h0a.877.877,0,0,0-.866.774.9.9,0,0,0,.825.867l1.65.072a.84.84,0,0,0,.856-.763.776.776,0,0,0-.784-.846Z" transform="translate(-87.773 -10.58)" fill="#fff"/>
      <path id="Path_1025" data-name="Path 1025" d="M180.877,96.993l-1.661-.124h-.01a.772.772,0,0,0-.836.763.826.826,0,0,0,.732.877l1.651.1a.774.774,0,0,0,.866-.753.838.838,0,0,0-.743-.867Z" transform="translate(-92.714 -10.925)" fill="#fff"/>
      <path id="Path_1026" data-name="Path 1026" d="M180.394,97.009l-1.661-.2h-.01a.815.815,0,0,0-.175,1.62l1.64.175a.778.778,0,0,0,.9-.712.836.836,0,0,0-.691-.887Z" transform="translate(-97.698 -11.447)" fill="#fff"/>
      <path id="Path_1027" data-name="Path 1027" d="M179.858,96.974l-1.63-.227h-.01a.8.8,0,0,0-.908.64.767.767,0,0,0,.67.908l1.651.279a.8.8,0,0,0,.908-.66.811.811,0,0,0-.681-.939Z" transform="translate(-102.64 -12.123)" fill="#fff"/>
      <path id="Path_1028" data-name="Path 1028" d="M179.352,96.979l-1.63-.32h0a.793.793,0,1,0-.3,1.558l1.65.31a.832.832,0,0,0,.939-.619.8.8,0,0,0-.66-.928Z" transform="translate(-107.571 -12.995)" fill="#fff"/>
      <path id="Path_1029" data-name="Path 1029" d="M178.819,96.905l-1.6-.361h0a.793.793,0,1,0-.351,1.547l1.6.371a.819.819,0,0,0,.97-.619.829.829,0,0,0-.6-.939h-.021Z" transform="translate(-112.443 -14.046)" fill="#fff"/>
      <path id="Path_1030" data-name="Path 1030" d="M178.323,96.849l-1.62-.413v-.021a.788.788,0,0,0-.939.567.764.764,0,0,0,.547.97l1.6.433a.8.8,0,1,0,.413-1.537Z" transform="translate(-117.291 -15.28)" fill="#fff"/>
      <path id="Path_1031" data-name="Path 1031" d="M177.8,96.773l-1.568-.5h0a.775.775,0,0,0-.97.526.754.754,0,0,0,.5.98l1.609.505a.8.8,0,0,0,.97-.516.788.788,0,0,0-.526-1h-.01Z" transform="translate(-122.076 -16.688)" fill="#fff"/>
      <path id="Path_1032" data-name="Path 1032" d="M177.309,96.688l-1.558-.567h-.021a.757.757,0,0,0-.99.516.828.828,0,0,0,.485.98l1.547.516a.769.769,0,0,0,1.032-.485.76.76,0,0,0-.5-.959Z" transform="translate(-126.811 -18.275)" fill="#fff"/>
      <path id="Path_1033" data-name="Path 1033" d="M176.779,96.551l-1.506-.609h-.031a.779.779,0,0,0-.578,1.444l1.578.619a.838.838,0,0,0,1.011-.444.777.777,0,0,0-.454-1.011h-.021Z" transform="translate(-131.479 -20.026)" fill="#fff"/>
      <path id="Path_1034" data-name="Path 1034" d="M176.3,96.369l-1.5-.619h0a.775.775,0,0,0-1.032.4.735.735,0,0,0,.413.98l1.517.671a.782.782,0,0,0,1.011-.361.843.843,0,0,0-.382-1.073H176.3Z" transform="translate(-136.089 -21.959)" fill="#fff"/>
      <path id="Path_1035" data-name="Path 1035" d="M175.827,96.256l-1.5-.743h0a.8.8,0,0,0-1.032.382.737.737,0,0,0,.382,1.011l1.475.722a.812.812,0,0,0,1.052-.351.785.785,0,0,0-.382-1.021Z" transform="translate(-140.617 -24.085)" fill="#fff"/>
      <path id="Path_1036" data-name="Path 1036" d="M175.318,96.07l-1.444-.743h-.021a.686.686,0,0,0-1.011.289.735.735,0,0,0,.289,1.011l1.485.8a.728.728,0,0,0,1.032-.31.778.778,0,0,0-.31-1.052h-.021Z" transform="translate(-145.039 -26.385)" fill="#fff"/>
      <path id="Path_1037" data-name="Path 1037" d="M174.866,95.894l-1.434-.846h0a.758.758,0,0,0-.763,1.31l1.4.836a.745.745,0,0,0,1.062-.237.777.777,0,0,0-.268-1.063Z" transform="translate(-149.384 -28.87)" fill="#fff"/>
      <path id="Path_1038" data-name="Path 1038" d="M174.385,95.741l-1.362-.97H173a.739.739,0,0,0-1.021.206.731.731,0,0,0,.175,1.042l1.382.939a.748.748,0,0,0,1.052-.186.729.729,0,0,0-.175-1.032h-.031Z" transform="translate(-153.566 -31.585)" fill="#fff"/>
      <path id="Path_1039" data-name="Path 1039" d="M173.926,95.54,172.636,94.5l-.021-.031a.756.756,0,0,0-1.032.134.723.723,0,0,0,.113,1.052l1.3,1.083a.75.75,0,0,0,1.042-.124.758.758,0,0,0-.1-1.073h-.01Z" transform="translate(-157.533 -34.624)" fill="#fff"/>
      <path id="Path_1040" data-name="Path 1040" d="M173.47,95.352l-1.155-1.176h-.031a.747.747,0,0,0-1.052,0,.722.722,0,0,0,0,1.032l1.2,1.186a.7.7,0,0,0,1.042,0,.689.689,0,0,0,0-1.032h0Z" transform="translate(-161.203 -38.015)" fill="#fff"/>
      <path id="Path_1041" data-name="Path 1041" d="M173.016,95.158l-.99-1.29h0a.738.738,0,0,0-1.052-.165.76.76,0,0,0-.165,1.052l1.042,1.351a.762.762,0,0,0,1.062.1.709.709,0,0,0,.114-1.011h0Z" transform="translate(-164.442 -41.823)" fill="#fff"/>
      <path id="Path_1042" data-name="Path 1042" d="M172.581,94.936l-.784-1.4v-.041a.752.752,0,0,0-1.331.7l.825,1.516a.742.742,0,0,0,1.29-.732h0Z" transform="translate(-167.092 -46.058)" fill="#fff"/>
      <path id="Path_1043" data-name="Path 1043" d="M172.14,94.7a15.344,15.344,0,0,1-.485-1.578l-.041-.031a.728.728,0,0,0-.928-.444.752.752,0,0,0-.474.939c.2.526.371,1.073.547,1.6h.01a.758.758,0,0,0,.939.454.731.731,0,0,0,.433-.939Z" transform="translate(-168.992 -50.666)" fill="#fff"/>
      <path id="Path_1044" data-name="Path 1044" d="M171.723,94.37l-.186-1.6v-.041a.782.782,0,0,0-.825-.65.747.747,0,0,0-.629.825l.206,1.692a.718.718,0,0,0,.8.64.749.749,0,0,0,.629-.8h0Z" transform="translate(-169.947 -55.56)" fill="#fff"/>
      <path id="Path_1045" data-name="Path 1045" d="M171.54,93.975l.072-1.63V92.3a.717.717,0,0,0-.681-.763.784.784,0,0,0-.763.691l-.1,1.681a.757.757,0,0,0,.691.794.722.722,0,0,0,.763-.7h0Z" transform="translate(-170.064 -60.55)" fill="#fff"/>
      <path id="Path_1046" data-name="Path 1046" d="M171.557,93.487l.413-1.547v-.031a.761.761,0,0,0-.547-.887.77.77,0,0,0-.867.547l-.413,1.64a.734.734,0,0,0,.536.867.711.711,0,0,0,.877-.516h0Z" transform="translate(-169.442 -65.448)" fill="#fff"/>
      <path id="Path_1047" data-name="Path 1047" d="M171.7,93.043l.629-1.516V91.5a.684.684,0,0,0-.4-.918.7.7,0,0,0-.929.371l-.65,1.558a.766.766,0,0,0,.361.98.808.808,0,0,0,.959-.413h0Z" transform="translate(-167.995 -70.152)" fill="#fff"/>
      <path id="Path_1048" data-name="Path 1048" d="M171.854,92.555l.856-1.393.01-.021a.721.721,0,0,0-1.217-.774l-.877,1.455a.716.716,0,0,0,.247.99.705.705,0,0,0,.949-.227h0Z" transform="translate(-165.808 -74.543)" fill="#fff"/>
      <path id="Path_1049" data-name="Path 1049" d="M172.1,92.037l1.052-1.248.01-.01a.708.708,0,0,0-.113-1,.648.648,0,0,0-.949.093L171,91.16a.683.683,0,0,0,.083.98.735.735,0,0,0,.99-.072h.01Z" transform="translate(-162.969 -78.503)" fill="#fff"/>
      <path id="Path_1050" data-name="Path 1050" d="M172.391,91.564l1.2-1.083.031-.041a.651.651,0,0,0,.082-.97.718.718,0,0,0-.97-.072l-1.279,1.114a.656.656,0,0,0-.072.98.716.716,0,0,0,.98.072h.031Z" transform="translate(-159.536 -81.96)" fill="#fff"/>
      <path id="Path_1051" data-name="Path 1051" d="M172.686,91.087l1.372-.846.031-.031a.7.7,0,0,0,.237-.928.673.673,0,0,0-.928-.248l-1.444.887a.679.679,0,0,0-.227.939.739.739,0,0,0,.928.258v-.031Z" transform="translate(-155.56 -84.794)" fill="#fff"/>
      <path id="Path_1052" data-name="Path 1052" d="M173.037,90.606l1.486-.567.072-.031a.689.689,0,0,0,.382-.867.663.663,0,0,0-.866-.371l-1.589.609a.666.666,0,0,0-.382.867.62.62,0,0,0,.867.361h.031Z" transform="translate(-151.135 -86.872)" fill="#fff"/>
      <path id="Path_1053" data-name="Path 1053" d="M173.442,90.208l1.6-.34h.01a.665.665,0,0,0,.547-.732.724.724,0,0,0-.8-.547l-1.651.32a.655.655,0,0,0-.526.763.668.668,0,0,0,.794.536h.031Z" transform="translate(-146.372 -88.094)" fill="#fff"/>
      <path id="Path_1054" data-name="Path 1054" d="M173.863,89.9l1.6-.041h.021a.7.7,0,0,0,.66-.66.72.72,0,0,0-.681-.66l-1.7.072a.664.664,0,0,0-.619.66.639.639,0,0,0,.66.629h.062Z" transform="translate(-141.407 -88.536)" fill="#fff"/>
      <path id="Path_1055" data-name="Path 1055" d="M174.265,89.808l1.63.186h.031a.618.618,0,1,0,.144-1.228l-1.7-.206a.653.653,0,0,0-.691.526.677.677,0,0,0,.578.722h.01Z" transform="translate(-136.404 -88.343)" fill="#fff"/>
      <path id="Path_1056" data-name="Path 1056" d="M174.677,89.886l1.578.444h.021a.645.645,0,0,0,.794-.444.633.633,0,0,0-.433-.753l-1.65-.475a.626.626,0,0,0-.743.475.574.574,0,0,0,.4.753h.031Z" transform="translate(-131.461 -87.503)" fill="#fff"/>
      <path id="Path_1057" data-name="Path 1057" d="M175.124,90l1.516.629.01.052a.657.657,0,0,0,.8-.371.646.646,0,0,0-.32-.8l-1.568-.629a.577.577,0,0,0-.794.32.589.589,0,0,0,.34.8h.01Z" transform="translate(-126.698 -85.953)" fill="#fff"/>
      <path id="Path_1058" data-name="Path 1058" d="M175.524,90.146l1.413.836v.041a.618.618,0,0,0,.825-.237.573.573,0,0,0-.2-.815l-1.444-.825a.583.583,0,0,0-.836.2.606.606,0,0,0,.186.8h.052Z" transform="translate(-122.178 -83.781)" fill="#fff"/>
      <path id="Path_1059" data-name="Path 1059" d="M175.919,90.408l1.269,1.021h.021a.566.566,0,0,0,.8-.124.586.586,0,0,0-.082-.815l-1.341-1.042a.588.588,0,0,0-.815.124.565.565,0,0,0,.113.8h0Z" transform="translate(-117.972 -81.052)" fill="#fff"/>
      <path id="Path_1060" data-name="Path 1060" d="M176.235,90.7l1.166,1.155v.031a.551.551,0,0,0,.825,0,.605.605,0,0,0,.01-.825l-1.176-1.217a.627.627,0,0,0-.825,0,.6.6,0,0,0-.01.825h0Z" transform="translate(-114.172 -77.804)" fill="#fff"/>
      <path id="Path_1061" data-name="Path 1061" d="M176.53,91.017l.97,1.3.01.031a.569.569,0,0,0,.918-.67l-.99-1.351a.562.562,0,1,0-.908.66h0Z" transform="translate(-110.825 -74.047)" fill="#fff"/>
    </g>
    <g id="Group_528" data-name="Group 528" transform="translate(262.417 193.162)">
      <g id="Group_522" data-name="Group 522" transform="translate(50.444 66.826)">
        <rect id="Rectangle_197" data-name="Rectangle 197" width="2.982" height="31.936" transform="translate(15.233 7.597)" fill="#030644"/>
        <path id="Path_1062" data-name="Path 1062" d="M223.881,112.977H198.008v-1.331a.546.546,0,0,1,.547-.557h24.738a.592.592,0,0,1,.588.578Z" transform="translate(-194.218 -72.845)" fill="#030644"/>
        <path id="Rectangle_198" data-name="Rectangle 198" d="M.326,0H34.209a.326.326,0,0,1,.326.326V9.478a.324.324,0,0,1-.324.324H.328A.328.328,0,0,1,0,9.474V.326A.326.326,0,0,1,.326,0Z" fill="#030644"/>
      </g>
      <g id="Group_524" data-name="Group 524" transform="translate(23.399)">
        <path id="Path_1063" data-name="Path 1063" d="M204.877,110.963s-9.553,4.137-9.006,8.439c0,0,9.883-1.9,11.647-4.745,1.764-2.816.774-4.457.774-4.457Z" transform="translate(-187.288 -14.301)" fill="url(#linear-gradient-20)"/>
        <path id="Path_1064" data-name="Path 1064" d="M200.649,109.821l.464,4.168a1.337,1.337,0,0,1-.846,1.475,3.514,3.514,0,0,1-1.207.175,1.61,1.61,0,0,1-1.578-1.176l-.929-3.4Z" transform="translate(-180.728 -17.832)" fill="url(#linear-gradient-21)"/>
        <path id="Path_1065" data-name="Path 1065" d="M226.13,106.748s-17.579-.825-26.317,4.281c-8.707,5.086.454,29.556.454,29.556s2.269.516,5.56-1.259c0,0-4.673-17.929,3.476-21.055a47.7,47.7,0,0,1,18.621-2.641l-1.764-8.325Z" transform="translate(-185.34 -46.915)" fill="url(#linear-gradient-22)"/>
        <path id="Path_1066" data-name="Path 1066" d="M199.244,113.507c1.96-.433,7.9-2.9,8.81-2.878s2.156,1.393,2.156,1.393a2.5,2.5,0,0,1-.423,1.805,16.417,16.417,0,0,1-8.624,3.6,6.337,6.337,0,0,1-5.468-2.022A7.842,7.842,0,0,1,199.244,113.507Z" transform="translate(-188.721 -10.305)" fill="url(#linear-gradient-23)"/>
        <path id="Path_1067" data-name="Path 1067" d="M201.939,114.539a16.417,16.417,0,0,0,8.624-3.6,7.6,7.6,0,0,1-2.837,2.435c-3.838,2.187-10.223,1.857-11.513,1.393-.98-.4-.671-1.362.258-2.249A6.336,6.336,0,0,0,201.939,114.539Z" transform="translate(-189.498 -7.416)" fill="url(#linear-gradient-24)"/>
        <path id="Path_1068" data-name="Path 1068" d="M202.2,112.562a14.831,14.831,0,0,1-2.373,2.816,1.544,1.544,0,0,1-1.465.444,2.6,2.6,0,0,1-1.032-.382,1,1,0,0,1-.413-1.393l2.043-3.714Z" transform="translate(-178.594 -13.053)" fill="url(#linear-gradient-25)"/>
        <path id="Path_1069" data-name="Path 1069" d="M236.115,106.564s1.537,10.842-2.888,13.07c-4.446,2.218-14.164,3.652-17.517,9.336-3.322,5.633-9.367,16.681-14.824,19.869,0,0-3.136-1-4.034-2.538,0,0,6.478-17.084,9.212-21.22,2.342-3.611,5.777-8.789,10.646-11.018,1.393-.65,1.5-2.156,1.269-3.642l-.474-2.775Z" transform="translate(-177.942 -48.175)" fill="url(#linear-gradient-26)"/>
        <path id="Path_1070" data-name="Path 1070" d="M197.852,119.9c6.21,1.774,9-15.711,8.965-16.093l9.522,11.1s-5.674,9.986-14.247,11.079a10.436,10.436,0,0,1-5.54-.836A9.074,9.074,0,0,0,197.852,119.9Z" transform="translate(-180.737 -73.869)" fill="#023e8a"/>
        <path id="Path_1071" data-name="Path 1071" d="M200.61,105.107c2.713-1.135,5,1.073,5,1.073,2.692,2.785,4.807,4.168,6.52,4.622a9.074,9.074,0,0,1-1.3,5.251,13.809,13.809,0,0,1-6.138-6.19,1.088,1.088,0,0,0-1.517-.506c-.578.237-1.176.691-1.186,1.279-.093,1.124-1.444,1.186-1.465.763a17.644,17.644,0,0,1,1.073-2.662s-3.136,2-4.322,2.765a1.8,1.8,0,0,1-2.259-.475S197.907,106.18,200.61,105.107Z" transform="translate(-195.019 -64.771)" fill="url(#linear-gradient-27)"/>
        <path id="Path_1072" data-name="Path 1072" d="M227.387,104.537s-8.315-5.725-28.5,4.591a6.613,6.613,0,0,0-1.094,5.6c.949,2.971,12.937,19.044,13.391,26.564,0,0,8.181,4.818,18.827.072C230.008,141.366,233.546,121.424,227.387,104.537Z" transform="translate(-171.618 -81.821)" fill="#023e8a"/>
        <path id="Path_1073" data-name="Path 1073" d="M204.675,102.4l3.3,6.479a1.825,1.825,0,0,1-.175,1.96,5.283,5.283,0,0,1-6.045,1.7,2.846,2.846,0,0,1-1.929-2.063l-1.723-7.232Z" transform="translate(-166.288 -86.967)" fill="url(#linear-gradient-28)"/>
        <path id="Path_1074" data-name="Path 1074" d="M209.885,125.667c.578-3.92-9.811-11.533-9.811-11.533l3.621-11.028s19.828,14.143,15.65,25.7a8.241,8.241,0,0,1-2.559,3.714C214.671,128.195,211.834,126.42,209.885,125.667Z" transform="translate(-147.925 -80.39)" fill="#023e8a"/>
        <path id="Path_1075" data-name="Path 1075" d="M207.578,106.4s11.75,3.291,14.164-.3a1.55,1.55,0,0,0,.309-.8c1.95.753,4.787,2.527,6.9,6.85-5.591,4.405-16.331-.557-19.26-2.012a1.912,1.912,0,0,0-1.537-.134,14.871,14.871,0,0,1-3.858.763c-1.444-.072-3.012,5.23-5.529,3.879C198.768,114.639,199.872,105.592,207.578,106.4Z" transform="translate(-160.092 -60.015)" fill="url(#linear-gradient-29)"/>
        <g id="Group_523" data-name="Group 523" transform="translate(27.201)">
          <path id="Path_1076" data-name="Path 1076" d="M204.622,101.625c-.072.072-4.457,7.7-6.664,11.544a2.285,2.285,0,0,0,1.083,3.239l.97.423c1.29.547,4.106,1.011,5.22.1l7-7.355S206.984,99.582,204.622,101.625Z" transform="translate(-197.656 -96.755)" fill="url(#linear-gradient-30)"/>
          <path id="Path_1077" data-name="Path 1077" d="M209.944,111.695a2.223,2.223,0,0,0,1.073-3.157,3.119,3.119,0,0,0-3.456-1.816.911.911,0,0,1-.939-.629c-.062-.248-.227-.413-.619-.516a.811.811,0,0,1-.64-1.021,2.6,2.6,0,0,0-1.32-3.115c-2.662-1.609-5.137.722-5.829,2.775-.691,2.012,2.3,3.611,4.2,3.9,1.465.268,2.156,1.95,2.4,2.713a.817.817,0,0,1-.093.743L202.6,114.82c.557.732,1.1,1.517,1.589,2.3.227-.206.382-.382.526-.5.908-.867,2.548-.413,3.219-.2a1.088,1.088,0,0,0,.681-.041,2.262,2.262,0,0,0,1.011-3.487A.856.856,0,0,1,209.944,111.695Z" transform="translate(-193.395 -100.904)" fill="url(#linear-gradient-31)"/>
          <path id="Path_1078" data-name="Path 1078" d="M198.629,105.588s1.351-3.487,2.889-3.291c1.558.186,2.713,1.774.722,3.435C199.764,107.8,198.629,105.588,198.629,105.588Z" transform="translate(-188.589 -87.999)" fill="url(#linear-gradient-32)"/>
        </g>
      </g>
      <g id="Group_525" data-name="Group 525" transform="translate(1.857 28.937)">
        <path id="Path_1079" data-name="Path 1079" d="M224.094,108.391h-.052l-27.441-.072a1.217,1.217,0,1,1,0-2.435l27.441.041a1.222,1.222,0,0,1,1.228,1.217A1.26,1.26,0,0,1,224.094,108.391Z" transform="translate(-170.087 -83.457)" fill="url(#linear-gradient-33)"/>
        <path id="Path_1080" data-name="Path 1080" d="M194.789,103.709h22.84a4.4,4.4,0,0,1,3.931,2.5l10.564,22.407h-28.4a2.667,2.667,0,0,1-2.455-1.671l-8.212-20.735A1.846,1.846,0,0,1,194.789,103.709Z" transform="translate(-192.931 -103.709)" fill="url(#linear-gradient-34)"/>
      </g>
      <g id="Group_527" data-name="Group 527" transform="translate(0 53.582)">
        <g id="Group_526" data-name="Group 526" transform="translate(6.244 2.483)">
          <path id="Path_1081" data-name="Path 1081" d="M194.49,163a2.433,2.433,0,0,1-.413-.083,1.124,1.124,0,0,1-.64-1.475l24.2-54.449a1.186,1.186,0,0,1,1.5-.567,1.091,1.091,0,0,1,.619,1.465l-24.191,54.449A1.136,1.136,0,0,1,194.49,163Z" transform="translate(-193.356 -106.339)" fill="#030644"/>
          <path id="Path_1082" data-name="Path 1082" d="M219.025,163a1.136,1.136,0,0,1-1.073-.66L193.74,107.889a1.109,1.109,0,0,1,.588-1.465,1.237,1.237,0,0,1,1.547.567l24.161,54.449a1.086,1.086,0,0,1-.609,1.475A2.783,2.783,0,0,1,219.025,163Z" transform="translate(-190.584 -106.339)" fill="#030644"/>
          <path id="Path_1083" data-name="Path 1083" d="M201.775,163a4.007,4.007,0,0,1-.464-.083,1.131,1.131,0,0,1-.619-1.475l24.222-54.449a1.178,1.178,0,0,1,1.486-.567,1.086,1.086,0,0,1,.609,1.465l-24.181,54.449A1.138,1.138,0,0,1,201.775,163Z" transform="translate(-125.746 -106.339)" fill="#030644"/>
          <path id="Path_1084" data-name="Path 1084" d="M226.253,163a1.123,1.123,0,0,1-1.042-.66l-24.2-54.449a1.093,1.093,0,0,1,.588-1.465,1.229,1.229,0,0,1,1.537.567L227.3,161.44a1.1,1.1,0,0,1-.578,1.475A3.5,3.5,0,0,1,226.253,163Z" transform="translate(-122.978 -106.339)" fill="#030644"/>
        </g>
        <path id="Path_1085" data-name="Path 1085" d="M305.117,107.553a1.24,1.24,0,0,0-.217-.97,1.033,1.033,0,0,0-.835-.485H194.032a1.22,1.22,0,0,0-1.073.66,1.515,1.515,0,0,0-.093,1.351l1.2,2.889a1.691,1.691,0,0,0,1.527,1.083H303.28a1.326,1.326,0,0,0,1.238-1.155Z" transform="translate(-192.751 -106.098)" fill="#030644"/>
      </g>
    </g>
    <g id="Group_529" data-name="Group 529" transform="translate(379.857 117.198)">
      <path id="Path_1086" data-name="Path 1086" d="M224.614,265.3c11.4,2.259,25.945-10.161,30.608-23.717,4.828-13.937-4.023-19.766-3.951-39.139.083-21.973,11.492-25.285,19.106-54.954C272.068,140.8,281.92,102.1,269.7,94.9c-11.327-6.726-43.122,12.483-48.7,37.138-3.961,17.568,8.315,24.945,3.621,45.412-4.106,17.929-14.917,18.218-19.1,35.5C200.494,234.073,209.676,262.277,224.614,265.3Z" transform="translate(-204.135 -93.54)" fill="#90e0ef"/>
      <path id="Path_1087" data-name="Path 1087" d="M206.965,236.259c-3.095-23.686,2.9-60.246,8.459-86.749,6.025-28.658,12.854-52.045,12.916-52.282l.959.279c-.072.237-6.881,23.583-12.926,52.22-5.53,26.43-11.492,62.846-8.439,86.418Z" transform="translate(-185.64 -59.187)" fill="#48cae4"/>
    </g>
    <g id="Group_530" data-name="Group 530" transform="translate(391.789 167.327)">
      <path id="Path_1088" data-name="Path 1088" d="M220.957,217.4c-14.917-7.789-20.075-34.528-11.565-43.2,5.736-5.87,13.968.32,21.881-5.767,10.141-7.768,2.693-22.417,10.657-41.368,6.778-16.124,23.026-31.361,32.537-28.256,9.945,3.291,15.175,27.585,6.685,42.255-5.53,9.511-13.979,10-15.835,18.827-2.1,10.306,8.181,15.01,8.222,24.955C273.642,202.751,240.713,227.685,220.957,217.4Z" transform="translate(-205.291 -98.4)" fill="#ade8f4"/>
      <path id="Path_1089" data-name="Path 1089" d="M208.145,191.881a.79.79,0,0,1-.289-.072.589.589,0,0,1-.258-.794c19.8-40.8,25.595-88.1,25.656-88.616a.584.584,0,0,1,.681-.516.625.625,0,0,1,.526.671c-.072.454-5.9,48-25.77,88.987A.653.653,0,0,1,208.145,191.881Z" transform="translate(-184.423 -66.052)" fill="#90e0ef"/>
      <path id="Path_1090" data-name="Path 1090" d="M211.765,142.549l-.155-.062a.346.346,0,0,1-.072-.413c6.283-8.005,13.164-20.065,10.7-31.887a21.246,21.246,0,0,0-5.694-10.822.253.253,0,0,1-.041-.382.286.286,0,0,1,.413-.031c.175.114,4.354,3.838,5.891,11.1,1.413,6.633.66,17.692-10.811,32.372A.213.213,0,0,1,211.765,142.549Z" transform="translate(-147.458 -93.936)" fill="url(#linear-gradient-35)"/>
      <path id="Path_1091" data-name="Path 1091" d="M216.748,145.761a.236.236,0,0,1-.237-.134c-9.625-13.978-12.906-24.821-9.749-32.166,2.785-6.54,9.842-7.758,9.924-7.758a.335.335,0,0,1,.341.247.319.319,0,0,1-.237.351c-.083,0-6.819,1.176-9.47,7.386-3.095,7.149.165,17.816,9.635,31.629a.267.267,0,0,1-.062.413Z" transform="translate(-202.423 -30.361)" fill="#f0f0f0"/>
    </g>
    <g id="Group_533" data-name="Group 533" transform="translate(340.315 176.057)">
      <path id="Path_1092" data-name="Path 1092" d="M205.557,106.23s-3.322-8.088,9.15-6.479c12.421,1.651,9.429,6.334,10.4,10.007s6.21,7.84,20.756,13.494c14.525,5.674,10.213,21.138,3.683,26.265s-10.089,1.723-11.616,10.564c-1.517,8.872-7.541,16.031-15.113,8.521-7.562-7.479-16.176-16.372-13.741-27.988,2.4-11.657-.32-9.46-5.034-14.783C199.347,120.507,209.292,115.339,205.557,106.23Z" transform="translate(-177.454 -96.512)" fill="url(#linear-gradient-36)"/>
      <path id="Path_1093" data-name="Path 1093" d="M201.519,99.87s12.534,17.692,26.5,20.508c0,0-2.3,7.747-4.292,8.707,0,0-17.7-13.184-22.757-26.6Z" transform="translate(-194.058 -93.433)" fill="url(#linear-gradient-37)"/>
      <path id="Path_1094" data-name="Path 1094" d="M206.533,112.068l.382,3.105a4.228,4.228,0,0,0,2.053,2.135,9.378,9.378,0,0,0,2.981.175c.66-.062,1.341-1.908,1.145-2.527a11.744,11.744,0,0,0-2.073-4.1h-3.415A1.1,1.1,0,0,0,206.533,112.068Z" transform="translate(-142.302 8.961)" fill="url(#linear-gradient-38)"/>
      <path id="Path_1095" data-name="Path 1095" d="M206.259,107.471l-.588,3.425s1.929,19.611,2.259,27.441a6.048,6.048,0,0,1-.908,3.508L203.68,147.3l8.552-5.034.165-1.052-1.413-1.95,1.847-21.953a6.4,6.4,0,0,0-.794-3.714l-1.743-3.353Z" transform="translate(-168.83 -22.621)" fill="url(#linear-gradient-39)"/>
      <path id="Path_1096" data-name="Path 1096" d="M204.264,118.741h2.744a1.717,1.717,0,0,0,1.32-.64c.836-1.1,2.59-3.26,3.456-3.332,1.114-.072.959,3.972.959,3.972h.66l.8-5.034a3,3,0,0,0-1.568-3.084,4.278,4.278,0,0,1-1.671,2.775c-1.382.836-5.725,3.9-5.725,3.9a3.433,3.433,0,0,0-1.114,0A.731.731,0,0,0,204.264,118.741Z" transform="translate(-170.002 6.734)" fill="url(#linear-gradient-40)"/>
      <path id="Path_1097" data-name="Path 1097" d="M205.064,108.9s11.348,21.509,13.163,26.42a47.278,47.278,0,0,1,2.435,9.419c.031.6.794,1.186,2.878,1.186a1.968,1.968,0,0,0,1.847-.846,1.253,1.253,0,0,0,.062-1.176c-.66-1.31-2.723-5.591-3.518-7.51-.908-2.29-2.9-12.73-3.992-16.31-1.073-3.621-2.29-7.572-7.046-11.183C210.893,108.9,207.653,105.733,205.064,108.9Z" transform="translate(-155.936 -22.42)" fill="url(#linear-gradient-41)"/>
      <path id="Path_1098" data-name="Path 1098" d="M218.788,127.651c-2.93-12.39,4.467-19.4,4.467-19.4-4.663-4.487-13.194-6.551-13.194-6.551s-8.108,5.942-7.159,10.626c.567,2.734,5.736,16.33,5.736,16.33A11.291,11.291,0,0,0,218.788,127.651Z" transform="translate(-176.809 -76.421)" fill="#023e8a"/>
      <path id="Path_1099" data-name="Path 1099" d="M220.563,110.35c-1.166-3.569-6.478-6.138-6.478-6.138a11.291,11.291,0,0,1-10.151,1,20.159,20.159,0,0,0-.351,7.861c.743,3.807,5.364,28.184,5.364,28.184,7.283,1.475,18.466-1.5,18.466-1.5C222.791,131.519,221.76,113.94,220.563,110.35Z" transform="translate(-172.106 -52.982)" fill="#03045e"/>
      <path id="Path_1100" data-name="Path 1100" d="M208.171,101.8l2.363,10.7c.279.98-.619.794-1.558.609-1.547-.278-3.59-.9-4.23-2.084a1.072,1.072,0,0,1-.124-.444l-1-7.407a1.309,1.309,0,0,1,.743-1.4l1.97-.856A1.356,1.356,0,0,1,208.171,101.8Z" transform="translate(-169.608 -84.728)" fill="url(#linear-gradient-42)"/>
      <path id="Path_1101" data-name="Path 1101" d="M208.24,102.331s16.63,11.853,2.146,24.336a3.778,3.778,0,0,1-1.65.97,18.231,18.231,0,0,0-2.981,2.012.555.555,0,0,1-.836-.124.784.784,0,0,1-.052-.722l2.084-4.364a1.53,1.53,0,0,1,2.043-.072.783.783,0,0,0,1.176-.3c1.124-2.27,3.239-8.985-5.4-16.537a.933.933,0,0,1-.237-1.135C205.156,105.2,206.559,102.9,208.24,102.331Z" transform="translate(-161.795 -70.506)" fill="url(#linear-gradient-43)"/>
      <path id="Path_1102" data-name="Path 1102" d="M208.855,100.074s-2.806,1.176-4.725,5.251-.474,5.952,1.289,6.21a8.3,8.3,0,0,0,7.335-2.414C215.612,106.5,212.528,98.641,208.855,100.074Z" transform="translate(-173.076 -93.142)" fill="url(#linear-gradient-44)"/>
      <path id="Path_1103" data-name="Path 1103" d="M208.472,110.228s2.125-5.963-3.188-6.035l-1.2.887s-1.97-3.311,1.2-4.9c3.188-1.547,6.912-.268,8.243,4.013,1.382,4.3,1.62,7.159-.65,9.212-2.249,2.074-3.157-.279-3.157-.279s1.2-1.888.7-2.93c-.475-1.032-1.64.217-1.64.217Z" transform="translate(-170.672 -96.425)" fill="url(#linear-gradient-45)"/>
      <path id="Path_1104" data-name="Path 1104" d="M203.935,102.582s1.083-3.074,2.5-1.857c1.444,1.217-1.166,2.847-2.156,3.373Z" transform="translate(-166.454 -88.119)" fill="url(#linear-gradient-46)"/>
      <g id="Group_531" data-name="Group 531">
        <path id="Path_1105" data-name="Path 1105" d="M208.051,109.438c-.01.382,1.4.588,1.764-1.063-.144-.7-.537-3.734-1.114-4.209a57.147,57.147,0,0,0-8.212-4.921,1,1,0,0,0,.247,1.4l2.641,1.568a10.394,10.394,0,0,0-.557,2.713,2.983,2.983,0,0,0,.846,2.032c.526.557,1.279,1.238,1.908,1.795A2.864,2.864,0,0,0,208.051,109.438Z" transform="translate(-200.302 -99.246)" fill="url(#linear-gradient-47)"/>
        <path id="Path_1106" data-name="Path 1106" d="M204.312,102.163l-1.042-1.444-2.29-1.073c-.351.3-.454.681.134,1.269a20.823,20.823,0,0,1,2.022,3.549Z" transform="translate(-196.645 -95.52)" fill="url(#linear-gradient-48)"/>
      </g>
      <g id="Group_532" data-name="Group 532" transform="translate(43.338 7.348)" opacity="0.7">
        <path id="Path_1107" data-name="Path 1107" d="M214.068,114.625l.083-.113c.041-.052-.021-.155-.052-.155-5.22-1.785-7.778-5.1-7.262-9.284.578-4.364-2.187-5.107-2.218-5.107-.052-.021-.093,0-.113.072a.106.106,0,0,0,.072.124c.093.031,2.579.722,2.053,4.88-.567,4.3,2.074,7.675,7.4,9.584Z" transform="translate(-204.503 -99.958)" fill="#7d97f4"/>
        <path id="Path_1108" data-name="Path 1108" d="M206.58,125.244h.041c5.973-3.332,9.491-7.335,10.44-11.915,1.279-5.983-2.373-10.884-2.414-10.945a.114.114,0,0,0-.144-.041c-.031.072-.062.134-.021.186a14.588,14.588,0,0,1,2.383,10.729c-.949,4.549-4.436,8.49-10.327,11.75-.062.041-.062.1-.062.206Z" transform="translate(-186.111 -77.865)" fill="#7d97f4"/>
      </g>
    </g>
  </g>
</svg>
