<svg xmlns="http://www.w3.org/2000/svg" viewBox="0 0 167.96 161.88"><defs><style>.cls-1{fill:#34a457;}</style></defs><g id="Layer_2" data-name="Layer 2"><g id="Layer_1-2" data-name="Layer 1"><path class="cls-1" d="M108.52,0H59.44a84.46,84.46,0,0,0-10.5,4H119A83.72,83.72,0,0,0,108.52,0Z"/><path class="cls-1" d="M136,14.35H32c-1.63,1.28-3.22,2.61-4.74,4H140.69C139.17,17,137.57,15.63,136,14.35Z"/><path class="cls-1" d="M150.26,28.71H17.7c-1,1.3-2,2.63-2.95,4H153.21C152.27,31.34,151.28,30,150.26,28.71Z"/><path class="cls-1" d="M159.32,43.06H8.64c-.65,1.31-1.28,2.65-1.87,4H161.18C160.6,45.71,160,44.37,159.32,43.06Z"/><path class="cls-1" d="M164.87,57.41H3.09c-.38,1.32-.72,2.66-1,4H165.9C165.59,60.07,165.25,58.73,164.87,57.41Z"/><path class="cls-1" d="M167.65,71.76H.31c-.14,1.33-.24,2.66-.31,4H168C167.88,74.42,167.79,73.09,167.65,71.76Z"/><path class="cls-1" d="M.43,90.12h167.1c.15-1.33.27-2.66.36-4H.07C.16,87.46.28,88.79.43,90.12Z"/><path class="cls-1" d="M3.36,104.47H164.6c.4-1.32.76-2.65,1.08-4H2.27C2.6,101.82,3,103.15,3.36,104.47Z"/><path class="cls-1" d="M9.12,118.82H158.84c.67-1.31,1.31-2.64,1.92-4H7.2C7.81,116.18,8.45,117.51,9.12,118.82Z"/><path class="cls-1" d="M18.44,133.18H149.52c1-1.3,2-2.64,3-4H15.42C16.39,130.54,17.39,131.88,18.44,133.18Z"/><path class="cls-1" d="M33.21,147.53H134.75c1.68-1.27,3.3-2.61,4.87-4H28.34C29.91,144.92,31.53,146.26,33.21,147.53Z"/><path class="cls-1" d="M62.75,161.88H105.2a83.07,83.07,0,0,0,11.73-4H51A83.38,83.38,0,0,0,62.75,161.88Z"/></g></g></svg>