<?xml version="1.0" encoding="utf-8"?>
<!-- Generator: Adobe Illustrator 24.3.0, SVG Export Plug-In . SVG Version: 6.00 Build 0)  -->
<svg version="1.1" id="Layer_1" xmlns="http://www.w3.org/2000/svg" xmlns:xlink="http://www.w3.org/1999/xlink" x="0px" y="0px"
	 viewBox="0 0 127.5 34.3" style="enable-background:new 0 0 127.5 34.3;" xml:space="preserve">
<style type="text/css">
	.st0{fill:#0E90CF;}
	.st1{font-family:'Ubuntu-Bold';}
	.st2{font-size:17.6821px;}
</style>
<path class="st0" d="M78.8,16.7l-2.5-4.3l-5-8.5L69,0l-2.8,3.5l-1.5,1.8l-4.5,5.5l0,0c-0.8,1-1.9,1.6-3.3,1.6
	c-2.3,0-4.1-1.8-4.1-4.1s1.8-4.1,4.1-4.1s4.1,1.8,4.1,4.1c0,0.2,0,0.4,0,0.6l3.4-4.2C63.1,1.9,60.3,0,57,0c-4.6,0-8.3,3.7-8.3,8.3
	c0,4.6,3.7,8.4,8.3,8.4c2.7,0,5-1.3,6.5-3.3l0,0l5-6.1l3,5l0.1,0.1h-6.6v0c0,0,0,0,0,0.1c0.2,0.5,1,3.9,5.3,4.1h4.4l0,0H78.8z"/>
<text transform="matrix(1 0 0 1 0 30.3762)" class="st0 st1 st2">ocean academy</text>
</svg>
