<svg width="323" height="391" viewBox="0 0 323 391" fill="none" xmlns="http://www.w3.org/2000/svg">
<path fill-rule="evenodd" clip-rule="evenodd" d="M102.844 0.156471C100.857 0.766471 99.2758 2.16047 98.3738 4.09847L97.7808 5.37147L97.7838 21.2145C97.7878 39.1505 97.6818 38.1775 99.8728 40.4185C101.522 42.1055 102.917 42.5075 107.125 42.5075H110.625L115.781 50.2495C118.959 55.0215 121.002 57.8665 121.107 57.6645C121.2 57.4835 121.936 53.9995 122.743 49.9215L124.211 42.5075H147.957C175.028 42.5075 173.206 42.6495 175.492 40.3635C177.729 38.1265 177.65 38.8775 177.568 20.6835C177.502 5.82547 177.469 4.81047 177.026 3.97747C176.369 2.74147 174.897 1.24847 173.695 0.597473L172.681 0.0484697L138.08 0.00447095C119.05 -0.0185291 103.194 0.0494714 102.844 0.156471ZM173.715 1.83147C174.556 2.35047 175.231 3.04947 175.786 3.97547L176.61 5.34947L176.605 21.0765C176.598 38.6215 176.673 37.8425 174.816 39.6995C172.912 41.6035 174.764 41.4815 147.67 41.4875L123.419 41.4935L123.281 42.1905C123.206 42.5735 122.61 45.6255 121.957 48.9715C121.304 52.3175 120.692 55.1435 120.597 55.2515C120.502 55.3605 118.338 52.3165 115.789 48.4875L111.155 41.5265L107.043 41.4465C101.625 41.3415 99.6938 40.2405 98.8068 36.7545C98.3508 34.9615 98.4428 6.91947 98.9098 5.35447C99.3858 3.75647 100.55 2.35347 102.047 1.57147L103.226 0.956474L137.847 1.00947L172.468 1.06247L173.715 1.83147ZM109.69 12.2155V13.8635H137.7H165.71V12.2155V10.5685H137.7H109.69V12.2155ZM109.69 20.7075V22.2285H137.7H165.71V20.7075V19.1865H137.7H109.69V20.7075ZM109.69 29.1995V30.8465H137.7H165.71V29.1995V27.5515H137.7H109.69V29.1995ZM55.1908 60.8625C35.9638 64.2635 23.4888 82.5085 27.5308 101.315C31.7448 120.928 51.8678 132.523 71.1408 126.443L72.7688 125.929L82.0258 129.713C87.1168 131.793 91.3108 133.467 91.3458 133.432C91.3808 133.397 90.2058 129.679 88.7358 125.17C86.4918 118.291 86.1078 116.885 86.3488 116.431C86.5068 116.134 87.3188 114.978 88.1518 113.863C96.5808 102.578 96.4348 85.7455 87.8058 74.0975C80.4458 64.1615 67.1158 58.7525 55.1908 60.8625ZM66.3558 61.9275C90.8698 66.1385 101.83 95.6935 86.0528 115.04L84.8858 116.471L87.3708 124.103C88.7368 128.3 89.7858 131.734 89.7008 131.734C89.6168 131.734 85.7698 130.189 81.1528 128.301L72.7588 124.869L70.8128 125.504C52.8708 131.361 33.4998 120.733 28.8038 102.456C22.8858 79.4235 42.8398 57.8885 66.3558 61.9275ZM153.543 81.1915C151.672 81.6855 150.784 81.7945 149.559 81.6795C138.834 80.6725 132.421 92.3325 136.059 106.221C137.273 110.857 137.993 112.362 139.164 112.713C140.403 113.084 141.134 113.615 142.13 114.87L142.851 115.777L144.107 113.149C145.896 109.404 147.677 106.875 150.527 104.034L153.013 101.557L155.113 103.744C164.513 113.535 175.352 114.772 182.776 106.902C190.001 99.2435 185.641 88.0555 175.679 88.6905L174.048 88.7945L172.906 87.1935C168.848 81.5075 161.255 79.1535 153.543 81.1915ZM44.0328 91.9025C40.7628 93.6505 42.0888 98.6905 45.8058 98.6365C49.5018 98.5815 50.7088 93.8765 47.5248 91.9355C46.4878 91.3035 45.1768 91.2905 44.0328 91.9025ZM59.0108 91.8735C54.8028 94.0195 57.8238 100.218 62.1448 98.3075C65.6168 96.7715 64.4478 91.4305 60.6408 91.4305C60.2218 91.4305 59.4888 91.6305 59.0108 91.8735ZM73.7988 91.9095C72.5188 92.6905 71.9208 93.6415 71.9208 94.8985C71.9208 99.6605 78.5708 100.114 78.9638 95.3795C79.2108 92.3955 76.2568 90.4105 73.7988 91.9095ZM156.205 114.099C154.023 115.164 154.097 115.756 156.319 115.008C158.201 114.374 159.153 114.494 160.777 115.57C162.056 116.417 162.45 116.369 161.757 115.45C160.57 113.876 157.962 113.242 156.205 114.099ZM168.695 114.892C167.983 115.278 167.332 116.202 167.589 116.46C167.67 116.54 167.935 116.431 168.18 116.217C169.438 115.118 171.611 115.09 173.176 116.152C174.119 116.792 174.453 116.723 174.05 115.971C173.332 114.628 170.305 114.018 168.695 114.892ZM157.657 116.948C157.48 117.019 157.166 117.403 156.96 117.802C155.873 119.903 157.712 121.932 159.101 120.166C160.302 118.639 159.254 116.305 157.657 116.948ZM169.542 117.939C168.836 118.837 168.825 120.338 169.52 120.967C170.792 122.118 172.586 119.875 171.767 118.159C171.273 117.124 170.262 117.024 169.542 117.939ZM135.639 225.794C124.543 226.812 114.115 233.511 109.821 242.38C105.037 252.263 104.998 268.125 109.731 278.942L110.756 281.283L116.624 281.139C122.468 280.995 122.497 280.992 124.012 280.25C125.578 279.484 128.363 278.824 129 279.069C129.198 279.145 129.741 280.446 130.208 281.959C131.422 285.898 133.898 292.654 135.214 295.612C135.833 297.007 136.919 299.63 137.625 301.442C142.407 313.711 149.457 330.882 154.083 341.529L155.861 345.621L161.229 345.559C164.182 345.525 167.069 345.411 167.645 345.305L168.692 345.113L167.737 342.669C167.211 341.326 166.487 339.565 166.129 338.758L165.476 337.291L166.29 336.795C173.007 332.699 184.274 331.232 193.447 333.259C196.208 333.869 195.986 334.293 195.251 329.813C193.654 320.086 190.401 307.133 186.4 294.566L186.229 294.028L197.452 293.888C227.214 293.517 245.189 288.806 256.008 278.54C270.232 265.043 268.177 240.838 252.529 237.564C241.913 235.342 215.989 243.442 177.145 261.117C175.418 261.904 173.974 262.514 173.937 262.476C173.899 262.437 172.881 260.296 171.673 257.716C159.435 231.57 151.292 224.357 135.639 225.794ZM10.1638 308.35C10.2368 308.733 10.3658 310.13 10.4508 311.455C10.5348 312.779 10.6608 314.165 10.7318 314.535C10.8488 315.151 10.7758 315.222 9.85782 315.377C4.16782 316.338 0.625817 322.704 2.66982 328.294C4.28382 332.707 8.40182 336.949 11.7808 337.679C12.2338 337.777 12.6128 337.991 12.6228 338.154C12.6328 338.317 12.7218 339.336 12.8198 340.415L12.9988 342.378L12.2318 342.5C11.8098 342.568 10.5518 342.746 9.43681 342.898C0.977815 344.047 -2.45419 346.594 1.87581 348.509C10.7998 352.457 41.8198 352.062 47.6268 347.927C50.2968 346.026 45.5988 343.516 37.9158 342.739C36.9898 342.645 36.1038 342.491 35.9488 342.395C35.7458 342.27 36.1318 337.52 37.3168 325.565C38.2248 316.405 38.9678 308.628 38.9678 308.281V307.652H24.4988H10.0298L10.1638 308.35ZM11.0888 319.249C11.0918 319.493 11.3718 322.94 11.7118 326.908C12.4168 335.154 12.4608 334.357 11.3328 333.811C7.02981 331.727 4.32181 325.075 6.40381 321.701C7.61181 319.743 11.0738 317.931 11.0888 319.249ZM273.442 340.258C260.934 345.211 246.888 347.16 217.928 347.959C212.561 348.107 206.116 348.339 203.606 348.473C201.097 348.607 198.777 348.717 198.451 348.717C197.909 348.717 197.871 348.798 198.007 349.668C198.089 350.19 198.27 352.089 198.41 353.888C198.55 355.701 198.801 357.322 198.971 357.528C199.536 358.209 234.131 357.395 255.951 356.185C316.682 352.822 330.776 345.022 285.208 339.993C275.814 338.957 276.782 338.935 273.442 340.258ZM91.5658 341.317C89.6498 341.511 81.8798 343.2 79.7438 343.887C64.5358 348.773 88.2988 354.06 136.179 356.442C142.351 356.749 156.412 357.329 157.803 357.334C158.422 357.337 159.447 360.094 159.576 362.1L159.697 363.977L161.626 363.886C164.981 363.729 169.012 361.301 170.7 358.419C171.511 357.036 171.569 355.238 170.894 352.373L170.448 350.479L168.143 350.675C163.425 351.077 136.359 350.888 130.476 350.413C113.78 349.063 105.684 347.271 95.4948 342.67C93.3918 341.721 92.0698 341.265 91.5658 341.317ZM138.334 380.314C128.693 381.776 126.958 383.256 130.857 386.688C136.776 391.898 157.307 391.142 184.754 384.704L188.969 383.715L195.441 383.969C204.729 384.333 209.817 383.923 209.817 382.808C209.817 381.55 202.276 380.138 199.403 380.859C197.531 381.329 190.395 381.409 187.964 380.987C186.628 380.757 186.085 380.84 180.867 382.095C166.042 385.661 158.57 386.814 154.562 386.156C150.137 385.43 146.178 383.793 142.947 381.355C141.301 380.113 140.641 379.965 138.334 380.314Z" fill="#003399"/>
<path fill-rule="evenodd" clip-rule="evenodd" d="M155.307 104.167C155.928 104.829 156.47 105.371 156.511 105.371C156.701 105.371 156.5 105.143 155.381 104.093L154.177 102.963L155.307 104.167ZM169.576 112.136C169.82 112.2 170.219 112.2 170.463 112.136C170.707 112.073 170.508 112.021 170.02 112.021C169.532 112.021 169.332 112.073 169.576 112.136ZM157.792 113.662C158.107 113.723 158.563 113.72 158.806 113.657C159.048 113.593 158.79 113.544 158.233 113.547C157.675 113.549 157.477 113.601 157.792 113.662ZM170.21 114.422C170.523 114.482 171.037 114.482 171.35 114.422C171.664 114.362 171.407 114.312 170.78 114.312C170.153 114.312 169.896 114.362 170.21 114.422ZM137.51 115.265C137.025 115.561 136.302 116.812 136.313 117.336C136.317 117.517 136.639 117.28 137.029 116.81C138.312 115.263 140.109 116.073 141.435 118.795C142.13 120.221 142.395 119.556 141.777 117.938C140.994 115.888 138.77 114.495 137.51 115.265ZM36.6855 116.857C36.6855 116.901 37.0565 117.272 37.5095 117.681L38.3335 118.426L37.5885 117.602C36.8945 116.834 36.6855 116.661 36.6855 116.857ZM164.373 121.309C164.002 123.038 164.154 124.014 164.95 125.016C166.266 126.673 165.608 128.842 163.948 128.315C163.344 128.124 163.234 128.563 163.83 128.791C166.258 129.723 167.586 126.506 165.63 124.428C165.261 124.036 164.99 123.275 164.817 122.147C164.576 120.576 164.543 120.516 164.373 121.309ZM149.08 135.484C151.898 140.933 158.756 146.416 163.366 146.905L165.203 147.099V143.569V140.039L164.633 140.217C160.757 141.427 154.77 139.72 150.427 136.167C148.95 134.959 148.758 134.862 149.08 135.484ZM170.009 160.777C162.271 168.721 151.187 169.274 140.307 162.257C138.146 160.863 137.805 161.256 139.861 162.77C148.967 169.474 159.125 170.263 166.593 164.847C167.999 163.828 171.202 160.749 171.573 160.061C172.04 159.194 171.157 159.598 170.009 160.777ZM189.538 170.119C189.538 171.855 195.183 204.346 197.808 217.719C198.479 221.133 198.917 221.978 198.917 219.855C198.917 217.384 192.699 182.406 190.292 171.341C190.069 170.315 189.538 169.455 189.538 170.119ZM119.485 176.543C119.001 177.326 115.017 198.738 113.351 209.51C112.737 213.479 112.204 216.744 112.166 216.765C112.129 216.787 110.9 217.066 109.437 217.385C105.874 218.161 101.01 219.75 100.866 220.184C100.781 220.439 100.879 220.482 101.227 220.341C104.608 218.974 112.175 217.703 114.316 218.143C117.532 218.804 124.565 221.828 130.153 224.953C132.089 226.036 132.52 226.183 133.484 226.084L134.591 225.971L132.217 224.567C125.93 220.851 116.403 216.905 113.717 216.905C113.315 216.905 112.985 216.849 112.985 216.781C112.985 216.714 113.556 213.846 114.254 210.408C116.961 197.077 120.336 176.347 119.8 176.347C119.693 176.347 119.551 176.435 119.485 176.543ZM278.535 207.462C278.018 209.428 276.737 214.598 276.737 214.716C276.737 214.784 277.462 214.461 278.348 214C281.125 212.552 283.835 212.559 283.835 214.014C283.835 214.55 282.913 215.582 279.252 219.148L274.67 223.611L275.26 224.075C278.762 226.827 279.855 229.213 278.49 231.13L277.961 231.872L278.493 232.773C280.865 236.794 278.85 238.257 267.865 240.488C263.482 241.379 263.556 241.375 263.556 240.724C263.556 238.843 265.56 236.564 267.564 236.167C271.868 235.315 277.751 233.244 277.751 232.581C277.751 232.234 277.311 232.333 276.426 232.879C274.646 233.978 263.628 236.833 263.122 236.327C261.76 234.965 266.436 231.255 270.963 230.105C272.657 229.675 272.827 229.572 273.036 228.843C273.334 227.804 273.287 227.773 270.842 227.392C251.341 224.355 224.306 232.443 194.365 250.27L191.182 252.166L190.756 253.605C190.212 255.445 189.737 255.493 195.392 253.136C239.042 234.946 255.613 232.881 262.58 244.762C263.09 245.63 263.57 246.237 263.649 246.11C263.728 245.983 265.307 245.811 267.159 245.728C269.214 245.636 271.268 245.384 272.428 245.082C274.648 244.504 274.624 244.495 274.245 245.76C273.432 248.471 271.487 249.724 267.398 250.168C265.472 250.377 264.834 250.534 264.927 250.776C266.398 254.609 265.206 264.268 262.59 269.715C254.882 285.764 234.227 293.429 197.452 293.888L186.229 294.028L186.4 294.566C190.665 307.962 193.691 320.205 195.491 331.353C196.221 335.873 196.618 338.684 197.793 347.64C197.91 348.536 198.027 348.717 198.489 348.717C198.794 348.717 201.097 348.607 203.606 348.473C206.116 348.339 212.561 348.107 217.928 347.959C251.281 347.039 266.726 344.349 280.793 337.013C318.929 317.125 335.194 259.12 311.525 227.413C304.608 218.147 295.027 211.531 282.768 207.556C278.825 206.278 278.846 206.278 278.535 207.462ZM136.623 225.698C136.867 225.762 137.266 225.762 137.51 225.698C137.754 225.634 137.554 225.582 137.066 225.582C136.579 225.582 136.379 225.634 136.623 225.698ZM88.1055 230.25C67.0855 246.981 58.4145 275.184 65.4375 303.977C72.7805 334.076 91.2406 347.299 130.222 350.383C139.411 351.11 169.486 351.11 170.213 350.383C170.308 350.287 169.998 349.064 169.524 347.664L168.663 345.118L167.63 345.307C167.062 345.412 164.182 345.525 161.229 345.559L155.861 345.621L154.083 341.529C149.34 330.613 141.431 311.32 137.299 300.588C135.961 297.112 136.634 297.381 130.415 297.84C124.82 298.253 125.377 298.113 118.562 300.808C104.07 306.54 93.2435 308.788 87.2565 307.31C77.2255 304.832 73.4535 294.939 80.0285 288.352C83.7155 284.659 92.0845 282.466 106.09 281.524C109.251 281.311 110.69 281.123 110.61 280.934C110.545 280.781 110.091 279.744 109.601 278.628C105.024 268.21 105.107 252.061 109.785 242.426C110.232 241.507 110.546 240.806 110.483 240.868C109.995 241.357 92.8516 231.006 91.2046 229.228C90.3996 228.359 90.5375 228.313 88.1055 230.25ZM156.585 232.748C157.342 233.514 158.019 234.142 158.088 234.142C158.158 234.142 157.596 233.514 156.838 232.748C156.081 231.981 155.404 231.353 155.335 231.353C155.265 231.353 155.828 231.981 156.585 232.748ZM168.879 235.574C167.661 235.759 163.467 236.922 162.154 237.44C161.492 237.701 160.853 237.836 160.734 237.739C160.616 237.643 160.705 237.792 160.932 238.071C161.608 238.899 164.516 243.715 165.945 246.372L167.275 248.844H177.139C182.564 248.844 187.003 248.791 187.003 248.726C187.003 248.318 182.59 243.24 180.455 241.191C175.694 236.62 172.427 235.035 168.879 235.574ZM278.102 239.216C278.529 241.886 277.608 242.935 273.77 244.144C270.832 245.07 264.316 245.854 264.316 245.282C264.316 244.024 266.642 241.373 268.053 241.024C268.577 240.894 270.317 240.479 271.921 240.101C273.524 239.723 275.463 239.15 276.23 238.828C276.997 238.505 277.695 238.232 277.782 238.22C277.869 238.207 278.013 238.656 278.102 239.216Z" fill="#0059C1"/>
<path fill-rule="evenodd" clip-rule="evenodd" d="M138.714 140.878C129.362 142.675 118.894 145.769 109.437 149.529C100.35 153.143 97.402 156.475 95.9 164.831C92.477 183.887 86.876 217.606 86.876 219.162C86.876 226.587 90.956 230.583 107.703 239.554L110.405 241.002L111.351 239.443C114.665 233.988 121.92 229.022 129.795 226.817L132.283 226.12L129.415 224.566C119.86 219.385 114.514 217.56 110.564 218.132C108.559 218.421 102.329 219.896 101.227 220.342C100.879 220.483 100.781 220.439 100.866 220.184C101.01 219.75 105.874 218.162 109.437 217.386C110.9 217.067 112.129 216.787 112.166 216.765C112.204 216.744 112.737 213.48 113.351 209.511C115.714 194.228 119.192 176.348 119.8 176.348C120.336 176.348 116.961 197.077 114.254 210.408C113.556 213.846 112.985 216.715 112.985 216.782C112.985 216.85 113.315 216.906 113.717 216.906C116.373 216.906 125.684 220.735 131.852 224.365L134.277 225.794L136.876 225.628C146.083 225.045 153.97 228.593 159.354 235.74L160.983 237.903L162.171 237.433C166.699 235.648 171.044 235.129 173.455 236.084C176.462 237.274 181.599 241.778 185.229 246.408L187.13 248.834L189.475 248.839C192.095 248.845 192.006 248.755 191.459 250.808C191.264 251.54 191.137 252.14 191.176 252.14C191.215 252.14 192.317 251.494 193.625 250.705C223.398 232.733 251.301 224.321 270.907 227.407C272.092 227.594 273.094 227.716 273.135 227.68C273.453 227.399 283.562 188.677 283.575 187.691C283.581 187.271 281.725 187.248 248.108 187.248H212.636L211.977 185.029C209.732 177.467 202.663 157.888 201.109 154.928C200.062 152.933 197.096 149.844 195.076 148.646C192.261 146.976 172.258 141.099 166.402 140.221L165.203 140.042L165.197 143.176C165.174 153.279 162.602 157.211 155.799 157.542C148.058 157.919 142.824 152.524 142.425 143.76L142.263 140.197L138.714 140.878ZM171.573 160.062C171.202 160.75 167.999 163.829 166.593 164.848C159.125 170.264 148.967 169.475 139.861 162.771C137.805 161.257 138.146 160.864 140.307 162.258C151.187 169.275 162.271 168.721 170.009 160.777C171.157 159.598 172.04 159.195 171.573 160.062ZM190.292 171.342C193.988 188.333 199.447 220.604 198.704 221.063C198.237 221.352 189.538 173.002 189.538 170.12C189.538 169.456 190.069 170.316 190.292 171.342ZM172.278 258.794C173.084 260.502 173.789 262.031 173.846 262.192C173.912 262.379 174.947 262.029 176.737 261.213C178.271 260.514 181.693 258.986 184.342 257.818L189.158 255.696L179.985 255.692L170.813 255.688L172.278 258.794Z" fill="#00116B"/>
<path fill-rule="evenodd" clip-rule="evenodd" d="M98.6546 21.2145C98.6546 29.3705 98.6876 32.7065 98.7266 28.6285C98.7656 24.5505 98.7656 17.8775 98.7266 13.7995C98.6876 9.7225 98.6546 13.0585 98.6546 21.2145ZM123.715 19.1235C131.498 19.1605 144.159 19.1605 151.851 19.1235C159.544 19.0855 153.175 19.0555 137.7 19.0555C122.225 19.0555 115.931 19.0855 123.715 19.1235ZM123.715 22.4185C131.498 22.4555 144.159 22.4555 151.851 22.4185C159.544 22.3815 153.175 22.3505 137.7 22.3505C122.225 22.3505 115.931 22.3815 123.715 22.4185ZM150.571 104.051C147.5 107.13 145.204 110.559 143.441 114.704L142.867 116.053L142.144 115.055C138.006 109.342 131.663 114.185 134.906 120.581C136.146 123.028 139.986 126.665 141.328 126.665C142.344 126.665 142.39 127.095 142.393 136.758C142.398 148.712 142.765 150.354 146.195 153.785C153.041 160.63 164.393 157.697 164.899 148.952L165.011 147.018L163.298 146.88C159.52 146.577 154.596 143.122 150.948 138.217C148.501 134.926 148.393 134.503 150.427 136.167C162.113 145.727 172.154 139.895 175.301 121.721C175.888 118.331 176.669 111.202 176.454 111.202C176.435 111.202 175.921 111.38 175.311 111.598C169.631 113.627 161.902 110.714 155.264 104.042C152.615 101.38 153.239 101.38 150.571 104.051ZM160.027 113.964C160.595 114.223 161.308 114.748 161.611 115.133C162.628 116.425 162.151 116.676 160.732 115.594C159.502 114.656 157.676 114.521 155.868 115.238C153.965 115.992 154.115 115.165 156.06 114.18C157.666 113.366 158.6 113.315 160.027 113.964ZM172.372 114.592C173.348 115.007 174.445 116.132 174.224 116.49C174.128 116.645 173.646 116.504 172.994 116.131C171.649 115.362 169.991 115.319 168.686 116.018C167.568 116.618 167.485 116.629 167.485 116.189C167.485 114.813 170.545 113.813 172.372 114.592ZM140.527 116.055C141.432 116.931 142.243 118.707 142.09 119.475C142.022 119.818 141.843 119.632 141.435 118.796C140.109 116.074 138.312 115.264 137.029 116.811C136.26 117.738 136.077 117.451 136.686 116.271C137.474 114.748 139.085 114.657 140.527 116.055ZM159.163 117.197C160.235 118.167 159.355 121.087 157.991 121.087C157.261 121.087 156.585 120.129 156.585 119.094C156.585 117.279 158.057 116.196 159.163 117.197ZM171.694 117.924C172.192 118.685 172.039 120.143 171.385 120.865C170.69 121.633 169.599 121.483 169.118 120.553C168.05 118.487 170.454 116.033 171.694 117.924ZM165.63 124.428C167.586 126.507 166.258 129.724 163.83 128.792C163.234 128.564 163.344 128.125 163.948 128.316C165.608 128.843 166.266 126.673 164.95 125.016C164.154 124.014 164.002 123.038 164.373 121.309C164.543 120.516 164.576 120.577 164.817 122.148C164.99 123.276 165.261 124.036 165.63 124.428ZM165.029 131.641L167.264 131.807L166.311 132.783C164.196 134.948 162.038 135.017 160.07 132.98C158.41 131.264 158.472 131.131 160.831 131.318C161.911 131.404 163.801 131.549 165.029 131.641ZM280.39 213.136C279.82 213.265 278.736 213.738 277.982 214.188L276.61 215.005L275.542 219.059C274.955 221.29 274.199 224.143 273.863 225.396C273.528 226.652 273.153 228.121 273.03 228.661C272.811 229.628 272.781 229.648 270.963 230.109C266.443 231.25 261.759 234.964 263.122 236.327C263.628 236.833 274.646 233.979 276.426 232.88C277.311 232.333 277.751 232.234 277.751 232.581C277.751 233.244 271.868 235.315 267.564 236.167C265.56 236.564 263.556 238.844 263.556 240.725C263.556 241.376 263.482 241.38 267.865 240.489C278.85 238.258 280.865 236.795 278.493 232.774L277.961 231.873L278.49 231.131C279.855 229.214 278.762 226.828 275.26 224.076L274.67 223.611L279.252 219.149C282.913 215.583 283.835 214.551 283.835 214.015C283.835 212.944 282.623 212.634 280.39 213.136ZM276.23 238.829C275.463 239.151 273.524 239.723 271.921 240.101C270.317 240.479 268.577 240.894 268.053 241.024C266.642 241.373 264.316 244.025 264.316 245.283C264.316 245.855 270.832 245.071 273.77 244.145C276.976 243.135 277.68 242.611 278.095 240.928C278.277 240.188 278.045 238.184 277.782 238.221C277.695 238.232 276.997 238.506 276.23 238.829ZM272.301 245.089C271.209 245.387 269.231 245.631 267.159 245.726C263.185 245.906 263.361 245.75 264.246 248.343L264.95 250.403L266.978 250.226C270.878 249.886 272.836 248.889 273.839 246.736C274.447 245.43 274.629 244.504 274.265 244.57C274.161 244.589 273.277 244.822 272.301 245.089ZM79.8936 288.452L78.8916 289.529L79.9686 288.527C80.9706 287.595 81.1626 287.375 80.9706 287.375C80.9286 287.375 80.4446 287.859 79.8936 288.452ZM79.9056 303.344C80.4496 303.902 80.9526 304.358 81.0216 304.358C81.0916 304.358 80.7036 303.902 80.1586 303.344C79.6136 302.786 79.1116 302.33 79.0416 302.33C78.9716 302.33 79.3606 302.786 79.9056 303.344ZM90.8686 307.837C91.3216 307.893 92.0626 307.893 92.5156 307.837C92.9696 307.781 92.5986 307.735 91.6926 307.735C90.7856 307.735 90.4156 307.781 90.8686 307.837Z" fill="#F9B484"/>
<path fill-rule="evenodd" clip-rule="evenodd" d="M102.9 1.25443C101.727 1.63043 99.8166 3.38943 99.2656 4.60143C98.6456 5.96743 98.5286 36.0684 99.1386 37.5274C100.378 40.4934 102.133 41.3374 107.292 41.4474L111.358 41.5354L115.91 48.4634C118.414 52.2734 120.495 55.3594 120.534 55.3204C120.574 55.2814 121.215 52.1834 121.959 48.4354L123.313 41.6194L147.744 41.4934C175.115 41.3514 173.04 41.4994 174.884 39.5514C176.65 37.6874 176.599 38.2304 176.599 21.2144C176.599 2.99443 176.656 3.29844 172.935 1.53944L171.667 0.94043L137.7 0.963432C114.683 0.979432 103.465 1.07343 102.9 1.25443ZM165.71 12.2154V13.8634H137.7H109.69V12.2154V10.5684H137.7H165.71V12.2154ZM165.71 20.7074V22.4814H137.7H109.69V20.7074V18.9334H137.7H165.71V20.7074ZM165.71 29.1994V30.8464H137.7H109.69V29.1994V27.5514H137.7H165.71V29.1994ZM56.8376 61.6764C29.6566 65.8074 18.3326 97.0834 36.8796 116.8C45.8096 126.294 57.8666 129.159 71.8246 125.106C72.8546 124.806 72.9786 124.847 81.2666 128.234C85.8856 130.121 89.6646 131.631 89.6646 131.589C89.6646 131.547 88.5806 128.202 87.2566 124.155C84.4116 115.465 84.5406 116.793 86.3276 114.561C100.207 97.2314 92.6926 71.0264 71.6666 63.4304C67.6366 61.9744 60.4606 61.1254 56.8376 61.6764ZM47.7636 91.9264C48.8186 92.5694 49.3606 93.6524 49.3606 95.1174C49.3606 99.7524 42.5566 100.016 42.0886 95.3994C41.7906 92.4634 45.2116 90.3704 47.7636 91.9264ZM62.7846 92.0934C65.5786 94.4444 64.1876 98.7794 60.6406 98.7794C56.9986 98.7794 55.5916 93.9264 58.6486 91.9104C59.7766 91.1674 61.7886 91.2564 62.7846 92.0934ZM77.4196 91.9254C80.5546 93.8374 79.1476 98.7804 75.4696 98.7804C72.5966 98.7804 70.7846 95.4264 72.3586 93.0244C73.3796 91.4654 75.8026 90.9394 77.4196 91.9254ZM158.866 131.448C158.866 132.112 161.276 134.226 162.236 134.404C163.534 134.645 165.101 134.021 166.311 132.782L167.264 131.806L165.029 131.64C163.801 131.548 161.911 131.403 160.831 131.317C159.445 131.207 158.866 131.246 158.866 131.448ZM167.485 248.974C167.485 249.046 168.227 250.586 169.134 252.396L170.784 255.688H180.112C191.026 255.688 190.04 255.989 190.93 252.393C191.293 250.929 191.649 249.531 191.722 249.287C191.846 248.869 191.155 248.844 179.669 248.844C172.968 248.844 167.485 248.902 167.485 248.974ZM25.6506 265.929C25.1636 266.286 25.1726 266.332 26.0816 268.025C28.1916 271.957 28.3716 275.602 26.6986 280.59C24.9036 285.942 26.0066 289.483 29.6536 290.074C30.5756 290.224 31.4296 289.213 30.6116 288.94C29.8576 288.689 28.5566 287.246 28.2946 286.372C27.9816 285.328 28.0636 284.969 29.5816 280.72C31.4896 275.377 30.5506 270.009 27.0956 266.52C26.2296 265.646 26.1066 265.596 25.6506 265.929ZM11.9226 267.698C8.71061 275.581 10.5446 283.177 17.5306 290.922C21.6986 295.544 22.2386 298.179 19.7006 301.515C17.7876 304.031 19.0736 304.531 21.3726 302.166C24.6856 298.757 24.1546 294.393 19.8046 289.275C13.4486 281.796 11.5256 275.8 13.2356 268.789C13.6536 267.075 13.6696 266.775 13.3526 266.574C12.6906 266.156 12.4856 266.318 11.9226 267.698ZM126.674 279.28C126.046 279.405 124.848 279.842 124.012 280.252L122.491 280.995L116.281 281.149C96.3386 281.642 84.8556 283.922 80.2676 288.299C72.1906 296.002 79.0776 307.652 91.7076 307.652C97.8116 307.652 107.549 305.09 119.732 300.278C125.323 298.069 125.808 297.968 132.461 297.622C135.41 297.468 135.824 297.393 135.714 297.036C135.644 296.81 134.996 295.2 134.273 293.457C133.55 291.715 132.124 287.779 131.104 284.712C129.017 278.437 129.28 278.76 126.674 279.28ZM180.248 332.482C175.813 332.994 171.913 334.092 168.055 335.916C165.269 337.233 165.347 336.633 167.321 341.542C172.968 355.587 172.631 359.445 165.457 362.887L163.556 363.799L156.838 363.953C147.342 364.17 143.41 365.153 140.404 368.06C132.413 375.79 146.317 388.013 160.937 386.111C165.876 385.468 180.841 382.331 185.141 381.037C185.999 380.779 186.752 380.788 189.197 381.086C199.885 382.386 207.092 379.31 207.092 373.446C207.092 370.935 204.963 366.5 200.576 359.87L198.647 356.955L198.397 353.66C198.259 351.848 198.041 349.851 197.914 349.224C197.786 348.597 197.615 347.456 197.534 346.689C197.453 345.922 197.032 342.717 196.598 339.567L195.81 333.839L194.005 333.425C189.833 332.467 183.897 332.061 180.248 332.482Z" fill="white"/>
<path d="M261.614 216.513L258.297 211.256L251.728 200.847L248.744 196.118L245.352 200.545L243.568 202.871L238.204 209.86C237.48 210.875 236.41 211.591 235.195 211.873C233.98 212.155 232.704 211.983 231.607 211.39C230.51 210.797 229.667 209.823 229.238 208.653C228.808 207.482 228.821 206.194 229.274 205.032C229.727 203.87 230.588 202.914 231.697 202.343C232.806 201.772 234.085 201.625 235.294 201.931C236.503 202.237 237.559 202.974 238.262 204.004C238.966 205.033 239.27 206.284 239.115 207.522L243.233 202.153C242.158 200.063 240.405 198.401 238.26 197.44C236.116 196.479 233.709 196.277 231.434 196.865C229.159 197.454 227.152 198.799 225.743 200.679C224.333 202.559 223.606 204.863 223.679 207.212C223.768 209.973 224.941 212.588 226.945 214.489C228.949 216.39 231.623 217.424 234.384 217.367C235.96 217.313 237.501 216.896 238.889 216.149C240.276 215.402 241.473 214.346 242.386 213.061L248.337 205.277L252.23 211.446L252.316 211.581L244.075 211.84C244.075 211.84 244.084 211.87 244.105 211.92C244.332 212.527 245.457 216.714 250.893 216.853L256.42 216.68L256.414 216.67L261.614 216.513Z" fill="#7BC8F4"/>
</svg>
